<svg width="393" height="147" viewBox="0 0 393 147" fill="none" xmlns="http://www.w3.org/2000/svg">
<path opacity="0.5" d="M395.338 144.941L392.215 146M395.338 144.941H386.084M395.338 144.941L398.565 143.847M395.338 144.941H401.892M392.215 146L393.351 146L394.476 145.997L395.577 145.991L396.644 145.978L397.664 145.958L398.627 145.927L399.522 145.883L400.352 145.829L401.065 145.753L401.714 145.665L401.892 145.634V144.941M392.215 146H383.11M383.11 146H374.004M383.11 146L386.084 144.941M374.004 146H364.899M374.004 146L376.83 144.941M364.899 146H355.793M364.899 146L367.576 144.941M355.793 146H346.688M355.793 146L358.321 144.941M346.688 146H337.582M346.688 146L349.067 144.941M337.582 146H328.477M337.582 146L339.813 144.941M328.477 146H319.371M328.477 146L330.559 144.941M319.371 146H310.266M319.371 146L321.304 144.941M310.266 146H301.16M310.266 146L312.05 144.941M301.16 146H292.055M301.16 146L302.796 144.941M292.055 146H282.949M292.055 146L293.542 144.941M282.949 146H273.844M282.949 146L283.28 145.738L283.781 145.342L284.288 144.941M273.844 146H264.738M273.844 146L274.138 145.738L275.033 144.941M264.738 146H255.633M264.738 146L265.779 144.941M255.633 146H246.527M255.633 146L255.964 145.607L256.299 145.209L256.412 145.075L256.525 144.941M246.527 146H237.422M246.527 146L246.803 145.607L246.896 145.475L246.989 145.342L247.271 144.941M237.422 146H228.316M237.422 146L238.017 144.941M228.316 146L228.372 145.87L228.427 145.738L228.706 145.075L228.763 144.941M228.316 146H219.211M219.211 146H210.105M219.211 146L219.508 144.941M210.105 146H201M210.105 146L210.161 145.607L210.254 144.941M201 146H191.895M201 146V144.941M191.895 146H182.789M191.895 146L191.839 145.607L191.746 144.941M182.789 146H173.684M182.789 146L182.492 144.941M173.684 146L173.629 145.87L173.573 145.738L173.294 145.075L173.237 144.941M173.684 146H164.578M164.578 146H155.472M164.578 146L164.059 145.075L163.983 144.941M155.472 146H146.367M155.472 146L155.197 145.607L155.104 145.475L154.917 145.209L154.823 145.075L154.729 144.941M146.367 146H137.262M146.367 146L146.036 145.607L145.701 145.209L145.588 145.075L145.475 144.941M137.262 146H128.156M137.262 146L136.221 144.941M128.156 146H119.051M128.156 146L127.862 145.738L126.967 144.941M119.051 146H109.945M119.051 146L117.712 144.941M109.945 146H100.84M109.945 146L108.458 144.941M100.84 146H91.7341M100.84 146L99.2039 144.941M91.7341 146H82.6287M91.7341 146L89.9497 144.941M82.6287 146H73.5233M82.6287 146L80.6955 144.941M73.5233 146H64.4178M73.5233 146L71.4413 144.941M64.4178 146H55.3122M64.4178 146L62.1871 144.941M55.3122 146H46.2068M55.3122 146L52.9329 144.941M46.2068 146H37.1014M46.2068 146L43.6787 144.941M37.1014 146H27.9957M37.1014 146L34.4245 144.941M27.9957 146H18.8903M27.9957 146L25.1705 144.941M18.8903 146H9.7849M18.8903 146L15.9163 144.941M9.7849 146L8.6486 146L7.52403 145.997L6.42289 145.991L5.35628 145.978L4.33592 145.958L3.37268 145.927L2.47808 145.883L1.64773 145.829L0.935194 145.753L0.286481 145.665L0.10819 145.634V144.941M9.7849 146L6.66207 144.941M25.1705 144.941H34.4245M25.1705 144.941H15.9163M25.1705 144.941L22.2511 143.847M34.4245 144.941L31.6589 143.847M34.4245 144.941H43.6787M62.1871 144.941H71.4413M62.1871 144.941H52.9329M62.1871 144.941L61.6181 144.671L59.8825 143.847M71.4413 144.941L69.2903 143.847M71.4413 144.941H80.6955M99.2039 144.941H108.458M99.2039 144.941H89.9497M99.2039 144.941L98.7867 144.671L98.5766 144.535L97.5137 143.847M108.458 144.941L108.269 144.806L108.079 144.671L106.922 143.847M108.458 144.941H117.712M136.221 144.941L136.088 144.806L135.145 143.847M136.221 144.941H145.475M136.221 144.941H126.967M145.475 144.941L145.247 144.671L145.133 144.535L145.018 144.399L144.553 143.847M145.475 144.941H154.729M173.237 144.941H182.492M173.237 144.941H163.983M173.237 144.941L172.777 143.847M182.492 144.941L182.454 144.806L182.416 144.671L182.378 144.535L182.262 144.124L182.184 143.847M182.492 144.941H191.746M210.254 144.941H219.508M210.254 144.941H201M210.254 144.941L210.408 143.847M219.508 144.941L219.546 144.806L219.584 144.671L219.622 144.535L219.816 143.847M219.508 144.941H228.763M247.271 144.941H256.525M247.271 144.941H238.017M247.271 144.941L247.461 144.671L247.845 144.124L247.942 143.986L248.039 143.847M256.525 144.941L256.753 144.671L256.867 144.535L256.982 144.399L257.447 143.847M256.525 144.941H265.779M284.288 144.941H293.542M284.288 144.941H275.033M284.288 144.941L284.629 144.671L284.801 144.535L285.67 143.847M293.542 144.941L293.731 144.806L293.921 144.671L295.078 143.847M293.542 144.941H302.796M321.304 144.941H330.559M321.304 144.941H312.05M321.304 144.941L321.798 144.671L322.046 144.535L323.302 143.847M330.559 144.941L332.71 143.847M330.559 144.941H339.813M358.321 144.941H367.576M358.321 144.941H349.067M358.321 144.941L360.933 143.847M367.576 144.941L370.341 143.847M367.576 144.941H376.83M0.0757545 135.039H0.10819M9.39023 135.039L12.9234 136.436M9.39023 135.039L5.72165 133.588M9.39023 135.039H20.0352M9.39023 135.039H0.10819M12.9234 136.436H2.47474M12.9234 136.436L16.3287 137.783M12.9234 136.436H23.3721M2.47474 136.436L6.06923 137.783M2.47474 136.436H0.10819M2.47474 136.436L0.10819 135.549M12.8811 140.336H22.7822M12.8811 140.336L16.1117 141.547M12.8811 140.336H2.98031M12.8811 140.336L9.53567 139.082M22.7822 140.336L25.8428 141.547M22.7822 140.336L19.6129 139.082M22.7822 140.336H32.6832M16.1117 141.547H25.8428M16.1117 141.547L19.2333 142.716M16.1117 141.547H6.38083M25.8428 141.547H35.5738M25.8428 141.547L28.7999 142.716M0.00627921 112.98H0.10819M8.59566 112.98L13.1517 115.297M8.59566 112.98L3.81318 110.547M8.59566 112.98H22.339M8.59566 112.98H0.10819M13.1517 115.297L17.4971 117.506M13.1517 115.297H26.5694M13.1517 115.297H0.10819M4.38969 117.506H17.4971M4.38969 117.506L8.83485 119.616M4.38969 117.506H0.10819M4.38969 117.506L0.10819 115.474M13.0833 121.633H25.611M13.0833 121.633L17.148 123.562M13.0833 121.633H0.555593M13.0833 121.633L8.83485 119.616M25.611 121.633L29.4049 123.562M25.611 121.633L21.6457 119.616M25.611 121.633H38.1389M17.148 123.562H29.4049M17.148 123.562H4.8913M17.148 123.562L21.0407 125.41M29.4049 123.562L33.0379 125.41M29.4049 123.562H41.6616M28.3515 128.88H39.8613M28.3515 128.88L31.7886 130.512M28.3515 128.88H16.8416M28.3515 128.88L24.7718 127.181M39.8613 128.88L43.0693 130.512M39.8613 128.88L36.5205 127.181M39.8613 128.88H51.3714M31.7886 130.512H43.0693M31.7886 130.512H20.5079M31.7886 130.512L35.0916 132.08M43.0693 130.512L46.1522 132.08M43.0693 130.512H54.3502M41.3251 135.039H51.9701M41.3251 135.039L44.2694 136.436M41.3251 135.039H30.6802M41.3251 135.039L38.268 133.588M51.9701 135.039L54.7181 136.436M51.9701 135.039L49.1168 133.588M51.9701 135.039H62.615M44.2694 136.436H54.7181M44.2694 136.436H33.8208M44.2694 136.436L47.1072 137.783M54.7181 136.436L57.3668 137.783M54.7181 136.436H65.1668M52.4851 140.336H62.3861M52.4851 140.336L55.0356 141.547M52.4851 140.336H42.5843M52.4851 140.336L49.844 139.082M62.3861 140.336L64.7665 141.547M62.3861 140.336L59.921 139.082M62.3861 140.336H72.2872M55.0356 141.547H64.7665M55.0356 141.547L57.5001 142.716M55.0356 141.547H45.3047M64.7665 141.547H74.4976M64.7665 141.547L67.0667 142.716M7.14924 72.8087L13.5615 77.3743M7.14924 72.8087L0.282505 67.9197M7.14924 72.8087H26.5343M7.14924 72.8087H0.10819M13.5615 77.3743L19.5633 81.6475M13.5615 77.3743H32.3053M13.5615 77.3743H0.10819M13.4313 89.4226H30.483M13.4313 89.4226L18.9108 92.9692M13.4313 89.4226L7.61171 85.6556M13.4313 89.4226H0.10819M30.483 89.4226L35.4643 92.9692M30.483 89.4226L25.1925 85.6556M30.483 89.4226H47.5348M18.9108 92.9692H35.4643M18.9108 92.9692H2.35734M18.9108 92.9692L24.0794 96.3148M35.4643 92.9692L40.1631 96.3148M35.4643 92.9692H52.018M33.5833 102.467H48.8031M33.5833 102.467L37.9625 105.301M33.5833 102.467H18.3636M33.5833 102.467L28.9625 99.4754M48.8031 102.467L52.7841 105.301M48.8031 102.467L44.6022 99.4754M48.8031 102.467H64.0228M37.9625 105.301H52.7841M37.9625 105.301H23.1409M37.9625 105.301L42.1182 107.991M52.7841 105.301L56.5621 107.991M52.7841 105.301H67.6055M49.8251 112.98H63.5684M49.8251 112.98L53.405 115.297M49.8251 112.98H36.0821M49.8251 112.98L46.0676 110.547M63.5684 112.98L66.8227 115.297M63.5684 112.98L60.1522 110.547M63.5684 112.98H77.3115M53.405 115.297H66.8227M53.405 115.297H39.9873M53.405 115.297L56.8191 117.506M66.8227 115.297L69.9265 117.506M66.8227 115.297H80.2404M63.1945 121.633H75.7222M63.1945 121.633L66.1752 123.562M63.1945 121.633H50.6666M63.1945 121.633L60.0788 119.616M75.7222 121.633L78.4321 123.562M75.7222 121.633L72.8898 119.616M75.7222 121.633H88.2499M66.1752 123.562H78.4321M66.1752 123.562H53.9185M66.1752 123.562L69.0298 125.41M78.4321 123.562L81.0272 125.41M78.4321 123.562H90.6888M74.3911 128.88H85.9009M74.3911 128.88L76.9116 130.512M74.3911 128.88H62.8812M74.3911 128.88L71.7661 127.181M85.9009 128.88L86.1926 129.088L88.1923 130.512M85.9009 128.88L83.5147 127.181M85.9009 128.88H97.411M76.9116 130.512H88.1923M76.9116 130.512H65.6309M76.9116 130.512L79.3339 132.08M88.1923 130.512L90.3944 132.08M88.1923 130.512H99.4732M83.905 135.039H94.5501M83.905 135.039L86.0644 136.436M83.905 135.039H73.26M83.905 135.039L81.6632 133.588M94.5501 135.039L96.513 136.436M94.5501 135.039L93.7949 134.501L92.5119 133.588M94.5501 135.039H105.195M86.0644 136.436H96.513M86.0644 136.436H75.6157M86.0644 136.436L88.1453 137.783M96.513 136.436L98.4048 137.783M96.513 136.436H106.962M92.089 140.336H101.99M92.089 140.336L93.9594 141.547M92.089 140.336H82.1882M92.089 140.336L90.1523 139.082M101.99 140.336L103.271 141.248L103.481 141.398L103.691 141.547M101.99 140.336L100.229 139.082M101.99 140.336H111.891M93.9594 141.547H103.691M93.9594 141.547L95.7666 142.716M93.9594 141.547H84.2285M103.691 141.547H113.421M103.691 141.547L105.333 142.716M14.1727 20.8003H40.8624M14.1727 20.8003L22.5767 29.3483M14.1727 20.8003L4.93796 11.407M14.1727 20.8003L0.10819 20.8001M40.8624 20.8003L48.0659 29.3483M40.8624 20.8003L32.9469 11.407M40.8624 20.8003H67.552M22.5767 29.3483H48.0659M22.5767 29.3483L30.2572 37.1605M22.5767 29.3483H0.10819M48.0659 29.3483L54.6491 37.1605M48.0659 29.3483H73.5549M43.7917 50.927H66.2501M43.7917 50.927L49.785 57.0232M43.7917 50.927H21.3335M43.7917 50.927L37.3037 44.3278M66.2501 50.927L71.3871 57.0232M66.2501 50.927L60.689 44.3278M66.2501 50.927H88.7084M49.785 57.0232H71.3871M49.785 57.0232H28.1828M49.785 57.0232L55.3382 62.6714M71.3871 57.0232L76.147 62.6714M71.3871 57.0232H92.9893M65.3045 72.8087H84.6895M65.3045 72.8087L69.7932 77.3743M65.3045 72.8087H45.9193M65.3045 72.8087L60.4977 67.9197M84.6895 72.8087L88.537 77.3743M84.6895 72.8087L80.5695 67.9197M84.6895 72.8087H104.075M69.7932 77.3743H88.537M69.7932 77.3743H51.0491M69.7932 77.3743L73.9943 81.6475M88.537 77.3743L92.138 81.6475M88.537 77.3743H107.281M81.638 89.4226H98.6898M81.638 89.4226L85.1252 92.9692M81.638 89.4226H64.5865M81.638 89.4226L77.9347 85.6556M98.6898 89.4226L101.679 92.9692M98.6898 89.4226L95.5155 85.6556M98.6898 89.4226H115.742M85.1252 92.9692H101.679M85.1252 92.9692H68.5715M85.1252 92.9692L88.4142 96.3148M101.679 92.9692L104.498 96.3148M101.679 92.9692H118.232M94.4621 102.467H109.682M94.4621 102.467L97.2488 105.301M94.4621 102.467H79.2424M94.4621 102.467L91.5215 99.4754M109.682 102.467L112.07 105.301M109.682 102.467L107.161 99.4754M109.682 102.467H124.902M97.2488 105.301H112.07M97.2488 105.301H82.4272M97.2488 105.301L99.8934 107.991M112.07 105.301L114.337 107.991M112.07 105.301H126.892M104.798 112.98H118.541M104.798 112.98L107.076 115.297M104.798 112.98H91.0546M104.798 112.98L102.407 110.547M118.541 112.98L120.494 115.297M118.541 112.98L116.491 110.547M118.541 112.98H132.284M107.076 115.297H120.494M107.076 115.297H93.6581M107.076 115.297L109.249 117.506M120.494 115.297L122.356 117.506M120.494 115.297H133.911M113.306 121.633H125.833M113.306 121.633L115.202 123.562M113.306 121.633H100.778M113.306 121.633L111.323 119.616M125.833 121.633L127.459 123.562M125.833 121.633L124.134 119.616M125.833 121.633H138.361M115.202 123.562H127.459M115.202 123.562H102.946M115.202 123.562L117.019 125.41M127.459 123.562L129.016 125.41M127.459 123.562H139.716M120.431 128.88H131.941M120.431 128.88L122.035 130.512M120.431 128.88H108.921M120.431 128.88L118.76 127.181M131.941 128.88L131.765 128.672L130.509 127.181M131.941 128.88L133.315 130.512M131.941 128.88H143.451M122.035 130.512H133.315M122.035 130.512H110.754M122.035 130.512L123.576 132.08M133.315 130.512L134.637 132.08M133.315 130.512H144.596M126.485 135.039H137.13M126.485 135.039L127.859 136.436M126.485 135.039H115.84M126.485 135.039L125.059 133.588M137.13 135.039L138.308 136.436M137.13 135.039L136.677 134.501L136.371 134.138L135.907 133.588M137.13 135.039H147.775M127.859 136.436H138.308M127.859 136.436H117.41M127.859 136.436L129.183 137.783M138.308 136.436L138.738 136.947L139.022 137.284L139.443 137.783M138.308 136.436H148.756M131.693 140.336H141.594M131.693 140.336L132.59 141.248L132.883 141.547M131.693 140.336H121.792M131.693 140.336L130.617 139.241L130.461 139.082M141.594 140.336L142.363 141.248L142.489 141.398L142.614 141.547M141.594 140.336L141.07 139.715L140.538 139.082M141.594 140.336H151.495M132.883 141.547H142.614M132.883 141.547L134.033 142.716M132.883 141.547H123.152M142.614 141.547H152.345M142.614 141.547L143.6 142.716M120.931 20.8003H147.621M120.931 20.8003L124.533 29.3483M120.931 20.8003H94.2417M120.931 20.8003L116.973 11.407M147.621 20.8003L150.022 29.3483M147.621 20.8003L144.982 11.407M147.621 20.8003H174.31M124.533 29.3483H150.022M124.533 29.3483H99.0438M124.533 29.3483L127.825 37.1605M150.022 29.3483L152.216 37.1605M150.022 29.3483H175.511M133.625 50.927H156.083M133.625 50.927L136.194 57.0232M133.625 50.927H111.167M133.625 50.927L130.844 44.3278M156.083 50.927L157.796 57.0232M156.083 50.927L154.23 44.3278M156.083 50.927H178.542M136.194 57.0232H157.796M136.194 57.0232H114.591M136.194 57.0232L138.574 62.6714M157.796 57.0232L159.382 62.6714M157.796 57.0232H179.398M142.845 72.8087H162.23M142.845 72.8087L144.769 77.3743M142.845 72.8087H123.46M142.845 72.8087L140.785 67.9197M162.23 72.8087L163.512 77.3743M162.23 72.8087L160.857 67.9197M162.23 72.8087H181.615M144.769 77.3743H163.512M144.769 77.3743H126.025M144.769 77.3743L146.569 81.6475M163.512 77.3743L164.713 81.6475M163.512 77.3743H182.256M149.845 89.4226H166.897M149.845 89.4226L151.339 92.9692M149.845 89.4226H132.793M149.845 89.4226L148.258 85.6556M166.897 89.4226L167.893 92.9692M166.897 89.4226L165.839 85.6556M166.897 89.4226H183.948M151.339 92.9692H167.893M151.339 92.9692H134.786M151.339 92.9692L152.749 96.3148M167.893 92.9692L168.833 96.3148M167.893 92.9692H184.447M155.341 102.467H170.561M155.341 102.467L156.535 105.301M155.341 102.467H140.121M155.341 102.467L154.081 99.4754M170.561 102.467L171.357 105.301M170.561 102.467L169.721 99.4754M170.561 102.467H185.78M156.535 105.301H171.357M156.535 105.301H141.714M156.535 105.301L157.669 107.991M171.357 105.301L172.112 107.991M171.357 105.301H186.178M159.771 112.98H173.514M159.771 112.98L160.747 115.297M159.771 112.98H146.027M159.771 112.98L158.746 110.547M173.514 112.98L174.165 115.297M173.514 112.98L172.83 110.547M173.514 112.98H187.257M160.747 115.297H174.165M160.747 115.297H147.329M160.747 115.297L161.101 116.137L161.678 117.506M174.165 115.297L174.785 117.506M174.165 115.297H187.582M163.417 121.633H175.944M163.417 121.633L164.23 123.562M163.417 121.633H150.889M163.417 121.633L162.783 120.129L162.567 119.616M175.944 121.633L176.151 122.367L176.486 123.562M175.944 121.633L175.378 119.616M175.944 121.633H188.472M164.23 123.562L164.329 123.798L165.008 125.41M164.23 123.562H176.486M164.23 123.562H151.973M176.486 123.562L176.684 124.265L176.749 124.496L176.813 124.726L177.005 125.41M176.486 123.562H188.743M166.47 128.88H177.98M166.47 128.88L166.817 129.704L166.903 129.908L166.988 130.11L167.073 130.311L167.158 130.512M166.47 128.88H154.96M166.47 128.88L165.754 127.181M177.98 128.88L178.326 130.11L178.382 130.311L178.438 130.512M177.98 128.88L177.503 127.181M177.98 128.88H189.49M167.158 130.512H178.438M167.158 130.512H155.877M167.158 130.512L167.574 131.499L167.656 131.694L167.818 132.08M178.438 130.512L178.716 131.499L178.77 131.694L178.825 131.887L178.879 132.08M178.438 130.512H189.719M169.065 135.039H179.71M169.065 135.039L169.654 136.436M169.065 135.039H158.42M169.065 135.039L168.914 134.681L168.686 134.138L168.454 133.588M179.71 135.039L179.66 134.86L179.354 133.772L179.302 133.588M179.71 135.039L180.103 136.436M179.71 135.039H190.355M169.654 136.436H180.103M169.654 136.436H159.205M169.654 136.436L170.222 137.783M180.103 136.436L180.246 136.947L180.294 137.116L180.341 137.284L180.481 137.783M180.103 136.436H190.551M171.297 140.336H181.198M171.297 140.336L171.681 141.248L171.807 141.547M171.297 140.336H161.396M171.297 140.336L171.101 139.871L171.035 139.715L170.969 139.558L170.769 139.082M181.198 140.336L181.241 140.49L181.327 140.795L181.412 141.097L181.538 141.547M181.198 140.336L181.023 139.715L180.979 139.558L180.891 139.241L180.846 139.082M181.198 140.336H191.099M171.807 141.547H181.538M171.807 141.547L172.239 142.572L172.3 142.716M171.807 141.547H162.076M181.538 141.547L181.58 141.695L181.621 141.843L181.663 141.99L181.704 142.136L181.826 142.572L181.867 142.716M181.538 141.547H191.269M227.69 20.8003H254.379M227.69 20.8003L226.489 29.3483M227.69 20.8003H201M227.69 20.8003L229.009 11.407M254.379 20.8003L251.978 29.3483M254.379 20.8003L257.018 11.407M254.379 20.8003H281.069M226.489 29.3483H251.978M226.489 29.3483H201M226.489 29.3483L225.392 37.1605M251.978 29.3483L249.784 37.1605M251.978 29.3483H277.467M223.458 50.927H245.917M223.458 50.927L222.602 57.0232M223.458 50.927H201M223.458 50.927L224.385 44.3278M245.917 50.927L244.204 57.0232M245.917 50.927L247.77 44.3278M245.917 50.927H268.375M222.602 57.0232H244.204M222.602 57.0232H201M222.602 57.0232L221.809 62.6714M244.204 57.0232L242.618 62.6714M244.204 57.0232H265.806M220.385 72.8087H239.77M220.385 72.8087L219.744 77.3743M220.385 72.8087H201M220.385 72.8087L221.072 67.9197M239.77 72.8087L238.488 77.3743M239.77 72.8087L241.143 67.9197M239.77 72.8087H259.155M219.744 77.3743H238.488M219.744 77.3743H201M219.744 77.3743L219.144 81.6475M238.488 77.3743L237.287 81.6475M238.488 77.3743H257.232M218.052 89.4226H235.103M218.052 89.4226L217.553 92.9692M218.052 89.4226H201M218.052 89.4226L218.581 85.6556M235.103 89.4226L234.107 92.9692M235.103 89.4226L236.162 85.6556M235.103 89.4226H252.155M217.553 92.9692H234.107M217.553 92.9692H201M217.553 92.9692L217.084 96.3148M234.107 92.9692L233.167 96.3148M234.107 92.9692H250.661M216.22 102.467H231.439M216.22 102.467L215.822 105.301M216.22 102.467H201M216.22 102.467L216.64 99.4754M231.439 102.467L230.643 105.301M231.439 102.467L232.279 99.4754M231.439 102.467H246.659M215.822 105.301H230.643M215.822 105.301H201M215.822 105.301L215.444 107.991M230.643 105.301L229.888 107.991M230.643 105.301H245.465M214.743 112.98H228.486M214.743 112.98L214.418 115.297M214.743 112.98H201M214.743 112.98L215.085 110.547M228.486 112.98L227.835 115.297M228.486 112.98L229.17 110.547M228.486 112.98H242.229M214.418 115.297H227.835M214.418 115.297H201M214.418 115.297L214.107 117.506M227.835 115.297L227.215 117.506M227.835 115.297H241.253M213.528 121.633H226.056M213.528 121.633L213.257 123.562M213.528 121.633H201M213.528 121.633L213.811 119.616M226.056 121.633L225.58 123.326L225.514 123.562M226.056 121.633L226.622 119.616M226.056 121.633H238.583M213.257 123.562L213.224 123.798L212.997 125.41M213.257 123.562H225.514M213.257 123.562H201M225.514 123.562L225.316 124.265L225.251 124.496L225.187 124.726L224.995 125.41M225.514 123.562H237.77M212.51 128.88H224.02M212.51 128.88L212.281 130.512M212.51 128.88H201M212.51 128.88L212.598 128.251L212.628 128.04L212.658 127.827L212.718 127.397L212.749 127.181M224.02 128.88L223.674 130.11L223.561 130.512M224.02 128.88L224.497 127.181M224.02 128.88H235.53M212.281 130.512H223.561M212.281 130.512H201M212.281 130.512L212.061 132.08M223.561 130.512L223.284 131.499L223.23 131.694L223.175 131.887L223.121 132.08M223.561 130.512H234.842M211.645 135.039H222.29M211.645 135.039L211.449 136.436M211.645 135.039H201M211.645 135.039L211.849 133.588M222.29 135.039L222.34 134.86L222.646 133.772L222.698 133.588M222.29 135.039L221.897 136.436M222.29 135.039H232.935M211.449 136.436H221.897M211.449 136.436H201M211.449 136.436L211.26 137.783M221.897 136.436L221.754 136.947L221.706 137.116L221.659 137.284L221.519 137.783M221.897 136.436H232.346M210.901 140.336H220.802M210.901 140.336L210.731 141.547M210.901 140.336H201M210.901 140.336L211.077 139.082M220.802 140.336L220.759 140.49L220.673 140.795L220.63 140.947L220.546 141.248L220.504 141.398L220.462 141.547M220.802 140.336L220.977 139.715L221.021 139.558L221.109 139.241L221.154 139.082M220.802 140.336H230.703M210.731 141.547L210.71 141.695L210.689 141.843L210.669 141.99L210.567 142.716M210.731 141.547H220.462M210.731 141.547H201M220.462 141.547H230.193M220.462 141.547L220.379 141.843L220.337 141.99L220.296 142.136L220.174 142.572L220.133 142.716M334.448 20.8003H361.138M334.448 20.8003L328.445 29.3483M334.448 20.8003H307.759M334.448 20.8003L341.044 11.407M361.138 20.8003L353.934 29.3483M361.138 20.8003L369.053 11.407M361.138 20.8003H387.827M328.445 29.3483H353.934M328.445 29.3483H302.956M328.445 29.3483L322.959 37.1605M353.934 29.3483L347.351 37.1605M353.934 29.3483H379.423M313.292 50.927H335.75M313.292 50.927L309.011 57.0232M313.292 50.927H290.833M313.292 50.927L317.926 44.3278M335.75 50.927L330.613 57.0232M335.75 50.927L341.311 44.3278M335.75 50.927H358.208M309.011 57.0232H330.613M309.011 57.0232H287.409M309.011 57.0232L305.044 62.6714M330.613 57.0232L325.853 62.6714M330.613 57.0232H352.215M297.925 72.8087H317.311M297.925 72.8087L294.719 77.3743M297.925 72.8087H278.54M297.925 72.8087L301.359 67.9197M317.311 72.8087L313.463 77.3743M317.311 72.8087L321.43 67.9197M317.311 72.8087H336.696M294.719 77.3743H313.463M294.719 77.3743H275.975M294.719 77.3743L291.718 81.6475M313.463 77.3743L309.862 81.6475M313.463 77.3743H332.207M286.258 89.4226H303.31M286.258 89.4226L283.768 92.9692M286.258 89.4226H269.207M286.258 89.4226L288.904 85.6556M303.31 89.4226L300.321 92.9692M303.31 89.4226L306.485 85.6556M303.31 89.4226H320.362M283.768 92.9692H300.321M283.768 92.9692H267.214M283.768 92.9692L281.418 96.3148M300.321 92.9692L297.502 96.3148M300.321 92.9692H316.875M277.098 102.467H292.318M277.098 102.467L275.108 105.301M277.098 102.467H261.879M277.098 102.467L279.199 99.4754M292.318 102.467L289.93 105.301M292.318 102.467L294.839 99.4754M292.318 102.467H307.538M275.108 105.301H289.93M275.108 105.301H260.286M275.108 105.301L273.219 107.991M289.93 105.301L287.663 107.991M289.93 105.301H304.751M269.716 112.98H283.459M269.716 112.98L268.089 115.297M269.716 112.98H255.973M269.716 112.98L271.424 110.547M283.459 112.98L281.506 115.297M283.459 112.98L285.509 110.547M283.459 112.98H297.202M268.089 115.297H281.506M268.089 115.297H254.671M268.089 115.297L266.537 117.506M281.506 115.297L279.644 117.506M281.506 115.297H294.924M263.639 121.633L263.812 121.386L263.987 121.137L265.055 119.616M263.639 121.633H276.167M263.639 121.633L262.284 123.562M263.639 121.633H251.111M276.167 121.633L274.541 123.562M276.167 121.633L277.866 119.616M276.167 121.633H288.694M262.284 123.562H274.541M262.284 123.562H250.027M262.284 123.562L260.987 125.41M274.541 123.562L272.984 125.41M274.541 123.562H286.798M258.549 128.88H270.06M258.549 128.88L257.404 130.512M258.549 128.88H247.04M258.549 128.88L259.743 127.181M270.06 128.88L269.194 129.908L268.685 130.512M270.06 128.88L271.491 127.181M270.06 128.88H281.569M257.404 130.512H268.685M257.404 130.512H246.123M257.404 130.512L256.438 131.887L256.303 132.08M268.685 130.512L267.363 132.08M268.685 130.512H279.965M254.225 135.039H264.87M254.225 135.039L253.976 135.393L253.244 136.436M254.225 135.039H243.58M254.225 135.039L254.476 134.681L254.986 133.955L255.244 133.588M264.87 135.039L263.692 136.436M264.87 135.039L265.323 134.501L265.629 134.138L266.093 133.588M264.87 135.039H275.515M253.244 136.436H263.692M253.244 136.436H242.795M253.244 136.436L252.531 137.451L252.298 137.783M263.692 136.436L263.262 136.947L262.978 137.284L262.557 137.783M263.692 136.436H274.141M250.505 140.336H260.406M250.505 140.336L249.97 141.097L249.655 141.547M250.505 140.336H240.604M250.505 140.336L251.385 139.082M260.406 140.336L259.637 141.248L259.511 141.398L259.386 141.547M260.406 140.336L260.93 139.715L261.462 139.082M260.406 140.336H270.307M249.655 141.547H259.386M249.655 141.547L249.241 142.136L249.036 142.428L248.934 142.572L248.833 142.716M249.655 141.547H239.924M259.386 141.547H269.117M259.386 141.547L258.4 142.716M395.419 57.0232H373.817M395.419 57.0232L388.28 62.6714M395.419 57.0232H401.892M395.419 57.0232L401.892 51.9026M375.466 72.8087H394.851M375.466 72.8087L369.695 77.3743M375.466 72.8087H356.081M375.466 72.8087L381.646 67.9197M394.851 72.8087L388.439 77.3743M394.851 72.8087L401.718 67.9197M394.851 72.8087H401.892M369.695 77.3743H388.439M369.695 77.3743H350.951M369.695 77.3743L364.293 81.6475M388.439 77.3743L382.437 81.6475M388.439 77.3743H401.892M354.465 89.4226H371.517M354.465 89.4226L349.982 92.9692M354.465 89.4226H337.414M354.465 89.4226L359.227 85.6556M371.517 89.4226L366.536 92.9692M371.517 89.4226L376.808 85.6556M371.517 89.4226H388.569M349.982 92.9692H366.536M349.982 92.9692H333.429M349.982 92.9692L345.753 96.3148M366.536 92.9692L361.837 96.3148M366.536 92.9692H383.089M337.977 102.467H353.197M337.977 102.467L334.394 105.301M337.977 102.467H322.758M337.977 102.467L341.758 99.4754M353.197 102.467L349.216 105.301M353.197 102.467L357.398 99.4754M353.197 102.467H368.417M334.394 105.301H349.216M334.394 105.301H319.573M334.394 105.301L330.994 107.991M349.216 105.301L345.438 107.991M349.216 105.301H364.038M324.688 112.98H338.432M324.688 112.98L321.76 115.297M324.688 112.98H310.945M324.688 112.98L327.763 110.547M338.432 112.98L335.177 115.297M338.432 112.98L341.848 110.547M338.432 112.98H352.175M321.76 115.297H335.177M321.76 115.297H308.342M321.76 115.297L318.966 117.506M335.177 115.297L332.074 117.506M335.177 115.297H348.595M313.75 121.633H326.278M313.75 121.633L311.311 123.562M313.75 121.633H301.222M313.75 121.633L316.299 119.616M326.278 121.633L323.568 123.562M326.278 121.633L329.11 119.616M326.278 121.633H338.806M311.311 123.562H323.568M311.311 123.562H299.054M311.311 123.562L308.976 125.41M323.568 123.562L320.973 125.41M323.568 123.562H335.825M304.589 128.88H316.099M304.589 128.88L302.527 130.512M304.589 128.88H293.079M304.589 128.88L306.737 127.181M316.099 128.88L313.808 130.512M316.099 128.88L318.486 127.181M316.099 128.88H327.609M302.527 130.512H313.808M302.527 130.512H291.246M302.527 130.512L300.545 132.08M313.808 130.512L311.606 132.08M313.808 130.512H325.088M296.805 135.039H307.45M296.805 135.039L295.038 136.436M296.805 135.039H286.16M296.805 135.039L297.257 134.681L297.485 134.501L298.639 133.588M307.45 135.039L305.487 136.436M307.45 135.039L309.488 133.588M307.45 135.039H318.095M295.038 136.436H305.487M295.038 136.436H284.59M295.038 136.436L293.336 137.783M305.487 136.436L303.595 137.783M305.487 136.436H315.936M290.109 140.336H300.01M290.109 140.336L288.579 141.547M290.109 140.336H280.208M290.109 140.336L291.694 139.082M300.01 140.336L298.729 141.248L298.519 141.398L298.309 141.547M300.01 140.336L301.771 139.082M300.01 140.336H309.911M288.579 141.547H298.309M288.579 141.547L287.282 142.572L287.1 142.716M288.579 141.547H278.848M298.309 141.547H308.041M298.309 141.547L296.667 142.716M398.856 102.467L393.681 105.301M398.856 102.467H383.636M398.856 102.467L401.892 100.804M398.856 102.467H401.892M393.681 105.301H378.859M393.681 105.301L388.769 107.991M393.681 105.301H401.892M379.661 112.98H393.404M379.661 112.98L375.43 115.297M379.661 112.98H365.918M379.661 112.98L384.102 110.547M393.404 112.98L388.848 115.297M393.404 112.98L398.187 110.547M393.404 112.98H401.892M375.43 115.297H388.848M375.43 115.297H362.013M375.43 115.297L371.396 117.506M388.848 115.297L384.503 117.506M388.848 115.297H401.892M363.861 121.633H376.389M363.861 121.633L360.338 123.562M363.861 121.633H351.333M363.861 121.633L367.543 119.616M376.389 121.633L372.595 123.562M376.389 121.633L380.354 119.616M376.389 121.633H388.917M360.338 123.562H372.595M360.338 123.562H348.081M360.338 123.562L356.965 125.41M372.595 123.562L368.962 125.41M372.595 123.562H384.852M350.629 128.88H362.138M350.629 128.88L347.65 130.512M350.629 128.88H339.119M350.629 128.88L353.731 127.181M362.138 128.88L358.931 130.512M362.138 128.88L365.48 127.181M362.138 128.88H373.649M347.65 130.512H358.931M347.65 130.512H336.369M347.65 130.512L344.787 132.08M358.931 130.512L355.848 132.08M358.931 130.512H370.211M339.385 135.039H350.03M339.385 135.039L336.833 136.436M339.385 135.039H328.74M339.385 135.039L342.034 133.588M350.03 135.039L347.282 136.436M350.03 135.039L352.883 133.588M350.03 135.039H360.675M336.833 136.436H347.282M336.833 136.436H326.384M336.833 136.436L334.374 137.783M347.282 136.436L344.633 137.783M347.282 136.436H357.731M329.713 140.336H339.614M329.713 140.336L327.502 141.547M329.713 140.336H319.812M329.713 140.336L332.002 139.082M339.614 140.336L337.233 141.547M339.614 140.336L342.079 139.082M339.614 140.336H349.515M327.502 141.547H337.233M327.502 141.547L325.367 142.716M327.502 141.547H317.772M337.233 141.547H346.964M337.233 141.547L334.933 142.716M396.668 128.88L392.773 130.512M396.668 128.88H385.158M396.668 128.88L400.725 127.181M396.668 128.88H401.892M392.773 130.512H381.492M392.773 130.512L389.03 132.08M392.773 130.512H401.892M381.965 135.039H392.61M381.965 135.039L378.628 136.436M381.965 135.039H371.32M381.965 135.039L385.43 133.588M392.61 135.039L389.077 136.436M392.61 135.039L396.278 133.588M392.61 135.039H401.892M378.628 136.436H389.077M378.628 136.436H368.179M378.628 136.436L375.412 137.783M389.077 136.436L385.671 137.783M389.077 136.436H399.525M369.317 140.336H379.218M369.317 140.336L366.426 141.547M369.317 140.336H359.416M369.317 140.336L372.31 139.082M379.218 140.336L376.157 141.547M379.218 140.336L382.387 139.082M379.218 140.336H389.119M366.426 141.547H376.157M366.426 141.547L363.633 142.716M366.426 141.547H356.695M376.157 141.547H385.888M376.157 141.547L373.2 142.716M382.387 139.082L385.671 137.783M382.387 139.082H392.464M382.387 139.082H372.31M389.119 140.336L385.888 141.547M389.119 140.336L392.464 139.082M389.119 140.336H399.02M385.888 141.547H395.619M385.888 141.547L382.767 142.716M373.2 142.716H363.633M373.2 142.716H382.767M373.2 142.716L370.341 143.847M392.464 139.082L395.931 137.783M392.464 139.082H401.892M399.02 140.336L395.619 141.547M399.02 140.336L401.892 139.314M399.02 140.336H401.892M395.619 141.547L392.333 142.716M395.619 141.547H401.892M382.767 142.716H392.333M382.767 142.716L379.749 143.847M392.333 142.716L389.157 143.847M392.333 142.716H401.892M385.671 137.783H395.931M385.671 137.783H375.412M399.525 136.436L395.931 137.783M399.525 136.436L401.892 135.549M399.525 136.436H401.892M395.931 137.783H401.892M375.412 137.783H365.152M375.412 137.783L372.31 139.082M372.31 139.082H362.233M396.278 133.588L400.09 132.08M396.278 133.588H385.43M396.278 133.588H401.892M401.924 135.039H401.892M400.09 132.08H389.03M400.09 132.08L401.892 131.367M400.09 132.08H401.892M389.03 132.08H377.969M389.03 132.08L385.43 133.588M385.43 133.588H374.581M342.079 139.082L344.633 137.783M342.079 139.082H352.156M342.079 139.082H332.002M349.515 140.336L346.964 141.547M349.515 140.336L352.156 139.082M349.515 140.336H359.416M346.964 141.547H356.695M346.964 141.547L344.5 142.716M334.933 142.716H344.5M334.933 142.716L332.71 143.847M334.933 142.716H325.367M352.156 139.082L354.893 137.783M352.156 139.082H362.233M359.416 140.336L356.695 141.547M359.416 140.336L362.233 139.082M356.695 141.547L354.067 142.716M344.5 142.716H354.067M344.5 142.716L342.118 143.847M362.233 139.082L365.152 137.783M363.633 142.716H354.067M363.633 142.716L360.933 143.847M354.067 142.716L351.525 143.847M344.633 137.783H354.893M344.633 137.783H334.374M357.731 136.436L354.893 137.783M357.731 136.436L360.675 135.039M357.731 136.436H368.179M354.893 137.783H365.152M334.374 137.783H324.114M334.374 137.783L332.002 139.082M365.152 137.783L368.179 136.436M332.002 139.082H321.925M360.675 135.039L363.732 133.588M360.675 135.039H371.32M368.179 136.436L371.32 135.039M371.32 135.039L374.581 133.588M352.883 133.588L355.848 132.08M352.883 133.588H363.732M352.883 133.588H342.034M363.732 133.588L366.908 132.08M363.732 133.588H374.581M374.581 133.588L377.969 132.08M355.848 132.08H366.908M355.848 132.08H344.787M370.211 130.512L366.908 132.08M370.211 130.512L373.649 128.88M370.211 130.512H381.492M366.908 132.08H377.969M344.787 132.08H333.727M344.787 132.08L342.034 133.588M377.969 132.08L381.492 130.512M342.034 133.588H331.186M373.649 128.88L377.228 127.181M373.649 128.88H385.158M381.492 130.512L385.158 128.88M385.158 128.88L388.977 127.181M365.48 127.181L368.962 125.41M365.48 127.181H377.228M365.48 127.181H353.731M377.228 127.181L380.959 125.41M377.228 127.181H388.977M388.977 127.181L392.957 125.41M388.977 127.181H400.725M400.725 127.181H401.892M400.725 127.181L401.892 126.693M368.962 125.41H380.959M368.962 125.41H356.965M384.852 123.562L380.959 125.41M384.852 123.562L388.917 121.633M384.852 123.562H397.109M380.959 125.41H392.957M356.965 125.41H344.967M356.965 125.41L353.731 127.181M392.957 125.41L397.109 123.562M392.957 125.41H401.892M353.731 127.181H341.983M388.917 121.633L393.165 119.616M388.917 121.633H401.444M397.109 123.562L401.444 121.633M397.109 123.562H401.892M401.955 125.41H401.892M401.444 121.633L401.892 121.434M401.444 121.633H401.892M380.354 119.616L384.503 117.506M380.354 119.616H393.165M380.354 119.616H367.543M393.165 119.616L397.61 117.506M393.165 119.616H401.892M402 121.386L401.892 121.434M384.503 117.506H397.61M384.503 117.506H371.396M397.61 117.506H401.892M397.61 117.506L401.892 115.474M371.396 117.506H358.288M371.396 117.506L367.543 119.616M367.543 119.616H354.732M398.187 110.547H384.102M398.187 110.547L401.892 108.663M398.187 110.547H401.892M401.994 112.98H401.892M384.102 110.547H370.017M384.102 110.547L388.769 107.991M401.933 108.642L401.892 108.663M301.771 139.082L303.595 137.783M301.771 139.082H311.848M301.771 139.082H291.694M309.911 140.336L308.041 141.547M309.911 140.336L311.848 139.082M309.911 140.336H319.812M308.041 141.547H317.772M308.041 141.547L306.233 142.716M296.667 142.716H306.233M296.667 142.716L296.065 143.145L295.078 143.847M296.667 142.716H287.1M311.848 139.082L313.855 137.783M311.848 139.082H321.925M319.812 140.336L317.772 141.547M319.812 140.336L321.925 139.082M317.772 141.547L315.8 142.716M306.233 142.716H315.8M306.233 142.716L304.486 143.847M321.925 139.082L324.114 137.783M325.367 142.716L323.302 143.847M325.367 142.716H315.8M315.8 142.716L315.558 142.86L315.078 143.145L313.894 143.847M303.595 137.783H313.855M303.595 137.783H293.336M315.936 136.436L313.855 137.783M315.936 136.436L318.095 135.039M315.936 136.436H326.384M313.855 137.783H324.114M293.336 137.783H283.076M293.336 137.783L291.694 139.082M324.114 137.783L326.384 136.436M291.694 139.082H281.616M318.095 135.039L320.337 133.588M318.095 135.039H328.74M326.384 136.436L326.674 136.264L328.74 135.039M328.74 135.039L331.186 133.588M309.488 133.588L309.748 133.402L311.606 132.08M309.488 133.588H320.337M309.488 133.588H298.639M320.337 133.588L322.666 132.08M320.337 133.588H331.186M331.186 133.588L333.727 132.08M311.606 132.08H322.666M311.606 132.08H300.545M325.088 130.512L322.666 132.08M325.088 130.512L327.609 128.88M325.088 130.512H336.369M322.666 132.08H333.727M300.545 132.08H289.484M300.545 132.08L298.639 133.588M333.727 132.08L336.369 130.512M298.639 133.588H287.79M327.609 128.88L330.234 127.181M327.609 128.88H339.119M336.369 130.512L339.119 128.88M339.119 128.88L341.983 127.181M318.486 127.181L320.973 125.41M318.486 127.181H330.234M318.486 127.181H306.737M330.234 127.181L332.97 125.41M330.234 127.181H341.983M341.983 127.181L344.967 125.41M320.973 125.41H332.97M320.973 125.41H308.976M335.825 123.562L332.97 125.41M335.825 123.562L338.806 121.633M335.825 123.562H348.081M332.97 125.41H344.967M308.976 125.41H296.978M308.976 125.41L306.737 127.181M344.967 125.41L348.081 123.562M306.737 127.181H294.988M338.806 121.633L341.921 119.616M338.806 121.633H351.333M348.081 123.562L351.333 121.633M351.333 121.633L354.732 119.616M329.11 119.616L332.074 117.506M329.11 119.616H341.921M329.11 119.616H316.299M341.921 119.616L345.181 117.506M341.921 119.616H354.732M354.732 119.616L358.288 117.506M332.074 117.506H345.181M332.074 117.506H318.966M348.595 115.297L345.181 117.506M348.595 115.297L352.175 112.98M348.595 115.297H362.013M345.181 117.506H358.288M318.966 117.506H305.859M318.966 117.506L316.299 119.616M358.288 117.506L362.013 115.297M316.299 119.616H303.488M352.175 112.98L355.932 110.547M352.175 112.98H365.918M362.013 115.297L365.918 112.98M365.918 112.98L370.017 110.547M341.848 110.547L345.438 107.991M341.848 110.547H355.932M341.848 110.547H327.763M355.932 110.547L359.882 107.991M355.932 110.547H370.017M370.017 110.547L374.325 107.991M345.438 107.991H359.882M345.438 107.991H330.994M364.038 105.301L359.882 107.991M364.038 105.301L368.417 102.467M364.038 105.301H378.859M359.882 107.991H374.325M330.994 107.991H316.55M330.994 107.991L327.763 110.547M374.325 107.991L378.859 105.301M374.325 107.991H388.769M327.763 110.547H313.678M368.417 102.467L373.037 99.4754M368.417 102.467H383.636M378.859 105.301L383.636 102.467M388.769 107.991H401.892M383.636 102.467L388.677 99.4754M357.398 99.4754L361.837 96.3148M357.398 99.4754H373.037M357.398 99.4754H341.758M373.037 99.4754L377.921 96.3148M373.037 99.4754H388.677M388.677 99.4754L394.004 96.3148M388.677 99.4754H401.892M361.837 96.3148H377.921M361.837 96.3148H345.753M383.089 92.9692L377.921 96.3148M383.089 92.9692L388.569 89.4226M383.089 92.9692H399.643M377.921 96.3148H394.004M345.753 96.3148H329.67M345.753 96.3148L341.758 99.4754M394.004 96.3148L399.643 92.9692M394.004 96.3148H401.892M341.758 99.4754H326.118M388.569 89.4226L394.388 85.6556M388.569 89.4226H401.892M399.643 92.9692H401.892M399.643 92.9692L401.892 91.6348M376.808 85.6556L382.437 81.6475M376.808 85.6556H394.388M376.808 85.6556H359.227M394.388 85.6556L400.58 81.6475M394.388 85.6556H401.892M382.437 81.6475H400.58M382.437 81.6475H364.293M400.58 81.6475L401.892 80.7987M400.58 81.6475H401.892M364.293 81.6475H346.149M364.293 81.6475L359.227 85.6556M359.227 85.6556H341.646M401.718 67.9197H381.646M401.718 67.9197H401.892M401.718 67.9197L401.892 67.7956M381.646 67.9197H361.574M381.646 67.9197L388.28 62.6714M261.462 139.082L261.868 138.601L262.005 138.438L262.557 137.783M261.462 139.082H271.539M261.462 139.082H251.385M270.307 140.336L269.41 141.248L269.117 141.547M270.307 140.336L271.383 139.241L271.539 139.082M270.307 140.336H280.208M269.117 141.547H278.848M269.117 141.547L267.967 142.716M258.4 142.716H267.967M258.4 142.716L258.039 143.145L257.447 143.847M258.4 142.716H248.833M271.539 139.082L271.855 138.762L272.817 137.783M271.539 139.082H281.616M280.208 140.336L278.848 141.547M280.208 140.336L281.616 139.082M278.848 141.547L277.858 142.428L277.533 142.716M267.967 142.716H277.533M267.967 142.716L266.855 143.847M281.616 139.082L283.076 137.783M287.1 142.716L286.919 142.86L285.67 143.847M287.1 142.716H277.533M277.533 142.716L277.052 143.145L276.263 143.847M262.557 137.783H272.817M262.557 137.783H252.298M274.141 136.436L272.817 137.783M274.141 136.436L275.515 135.039M274.141 136.436H284.59M272.817 137.783H283.076M252.298 137.783H242.038M252.298 137.783L251.385 139.082M283.076 137.783L284.59 136.436M251.385 139.082H241.308M275.515 135.039L276.4 134.138L276.58 133.955L276.942 133.588M275.515 135.039H286.16M284.59 136.436L286.16 135.039M286.16 135.039L287.79 133.588M266.093 133.588L267.363 132.08M266.093 133.588H276.942M266.093 133.588H255.244M276.942 133.588L278.424 132.08M276.942 133.588H287.79M287.79 133.588L289.484 132.08M267.363 132.08H278.424M267.363 132.08H256.303M279.965 130.512L278.995 131.499L278.804 131.694L278.424 132.08M279.965 130.512L281.569 128.88M279.965 130.512H291.246M278.424 132.08H289.484M256.303 132.08H245.242M256.303 132.08L255.244 133.588M289.484 132.08L291.246 130.512M255.244 133.588H244.395M281.569 128.88L283.24 127.181M281.569 128.88H293.079M291.246 130.512L293.079 128.88M293.079 128.88L294.988 127.181M271.491 127.181L272.23 126.305L272.417 126.083L272.984 125.41M271.491 127.181H283.24M271.491 127.181H259.743M283.24 127.181L284.981 125.41M283.24 127.181H294.988M294.988 127.181L296.978 125.41M272.984 125.41H284.981M272.984 125.41H260.987M286.798 123.562L284.981 125.41M286.798 123.562L288.694 121.633M286.798 123.562H299.054M284.981 125.41H296.978M260.987 125.41H248.989M260.987 125.41L260.671 125.86L259.743 127.181M296.978 125.41L299.054 123.562M259.743 127.181H247.994M288.694 121.633L290.677 119.616M288.694 121.633H301.222M299.054 123.562L301.222 121.633M301.222 121.633L303.488 119.616M277.866 119.616L279.644 117.506M277.866 119.616H290.677M277.866 119.616H265.055M290.677 119.616L292.751 117.506M290.677 119.616H303.488M303.488 119.616L305.859 117.506M279.644 117.506H292.751M279.644 117.506H266.537M294.924 115.297L292.751 117.506M294.924 115.297L297.202 112.98M294.924 115.297H308.342M292.751 117.506H305.859M266.537 117.506H253.429M266.537 117.506L265.055 119.616M305.859 117.506L308.342 115.297M265.055 119.616H252.244M297.202 112.98L299.593 110.547M297.202 112.98H310.945M308.342 115.297L310.945 112.98M310.945 112.98L313.678 110.547M285.509 110.547L287.663 107.991M285.509 110.547H299.593M285.509 110.547H271.424M299.593 110.547L302.107 107.991M299.593 110.547H313.678M313.678 110.547L316.55 107.991M287.663 107.991H302.107M287.663 107.991H273.219M304.751 105.301L302.107 107.991M304.751 105.301L307.538 102.467M304.751 105.301H319.573M302.107 107.991H316.55M273.219 107.991H258.775M273.219 107.991L271.424 110.547M316.55 107.991L319.573 105.301M271.424 110.547H257.339M307.538 102.467L310.478 99.4754M307.538 102.467H322.758M319.573 105.301L322.758 102.467M322.758 102.467L326.118 99.4754M294.839 99.4754L297.502 96.3148M294.839 99.4754H310.478M294.839 99.4754H279.199M310.478 99.4754L313.586 96.3148M310.478 99.4754H326.118M326.118 99.4754L329.67 96.3148M297.502 96.3148H313.586M297.502 96.3148H281.418M316.875 92.9692L313.586 96.3148M316.875 92.9692L320.362 89.4226M316.875 92.9692H333.429M313.586 96.3148H329.67M281.418 96.3148H265.335M281.418 96.3148L279.199 99.4754M329.67 96.3148L333.429 92.9692M279.199 99.4754H263.559M320.362 89.4226L324.065 85.6556M320.362 89.4226H337.414M333.429 92.9692L337.414 89.4226M337.414 89.4226L341.646 85.6556M306.485 85.6556L309.862 81.6475M306.485 85.6556H324.065M306.485 85.6556H288.904M324.065 85.6556L328.006 81.6475M324.065 85.6556H341.646M341.646 85.6556L346.149 81.6475M309.862 81.6475H328.006M309.862 81.6475H291.718M332.207 77.3743L328.006 81.6475M332.207 77.3743L336.696 72.8087M332.207 77.3743H350.951M328.006 81.6475H346.149M291.718 81.6475H273.575M291.718 81.6475L288.904 85.6556M346.149 81.6475L350.951 77.3743M288.904 85.6556H271.323M336.696 72.8087L341.502 67.9197M336.696 72.8087H356.081M350.951 77.3743L356.081 72.8087M356.081 72.8087L361.574 67.9197M321.43 67.9197L325.853 62.6714M321.43 67.9197H341.502M321.43 67.9197H301.359M341.502 67.9197L346.662 62.6714M341.502 67.9197H361.574M361.574 67.9197L367.471 62.6714M325.853 62.6714H346.662M325.853 62.6714H305.044M352.215 57.0232L346.662 62.6714M352.215 57.0232L358.208 50.927M352.215 57.0232H373.817M346.662 62.6714H367.471M305.044 62.6714H284.235M305.044 62.6714L301.359 67.9197M367.471 62.6714L373.817 57.0232M367.471 62.6714H388.28M301.359 67.9197H281.287M358.208 50.927L364.696 44.3278M358.208 50.927H380.667M373.817 57.0232L380.667 50.927M388.28 62.6714H401.892M380.667 50.927L388.082 44.3278M380.667 50.927H401.892M341.311 44.3278L347.351 37.1605M341.311 44.3278H364.696M341.311 44.3278H317.926M364.696 44.3278L371.743 37.1605M364.696 44.3278H388.082M388.082 44.3278L396.135 37.1605M388.082 44.3278H401.892M347.351 37.1605H371.743M347.351 37.1605H322.959M379.423 29.3483L371.743 37.1605M379.423 29.3483L387.827 20.8003M379.423 29.3483H401.892M371.743 37.1605H396.135M322.959 37.1605H298.567M322.959 37.1605L317.926 44.3278M396.135 37.1605H401.892M396.135 37.1605L401.892 32.0364M317.926 44.3278H294.541M387.827 20.8003L397.062 11.407M387.827 20.8003H401.892M369.053 11.407L377.792 1.03684M369.053 11.407H397.062M369.053 11.407H341.044M397.062 11.407L401.892 6.49428M397.062 11.407H401.892M377.792 1.03684H348.327M377.792 1.03684L401.892 1.03703M348.327 1.03684H318.861M348.327 1.03684L341.044 11.407M341.044 11.407H313.035M221.154 139.082L221.199 138.922L221.244 138.762L221.289 138.601L221.335 138.438L221.473 137.948L221.519 137.783M221.154 139.082H231.231M221.154 139.082H211.077M230.703 140.336L230.319 141.248L230.193 141.547M230.703 140.336L231.031 139.558L231.231 139.082M230.703 140.336H240.604M230.193 141.547H239.924M230.193 141.547L229.822 142.428L229.7 142.716M220.133 142.716L220.093 142.86L219.934 143.428L219.816 143.847M220.133 142.716H229.7M220.133 142.716H210.567M231.231 139.082L231.298 138.922L231.366 138.762L231.434 138.601L231.502 138.438L231.779 137.783M231.231 139.082H241.308M240.604 140.336L240.092 141.248L239.924 141.547M240.604 140.336L241.308 139.082M239.924 141.547L239.592 142.136L239.348 142.572L239.267 142.716M229.7 142.716L229.64 142.86L229.52 143.145L229.4 143.428L229.341 143.568L229.223 143.847M229.7 142.716H239.267M241.308 139.082L241.853 138.112L242.038 137.783M248.833 142.716L248.235 143.568L248.039 143.847M248.833 142.716H239.267M239.267 142.716L238.71 143.708L238.631 143.847M221.519 137.783H231.779M221.519 137.783H211.26M232.346 136.436L231.779 137.783M232.346 136.436L232.935 135.039M232.346 136.436H242.795M231.779 137.783H242.038M211.26 137.783H201M211.26 137.783L211.077 139.082M242.038 137.783L242.795 136.436M211.077 139.082H201M232.935 135.039L233.086 134.681L233.315 134.138L233.546 133.588M232.935 135.039H243.58M242.795 136.436L242.891 136.264L243.58 135.039M243.58 135.039L243.68 134.86L243.781 134.681L243.882 134.501L244.395 133.588M222.698 133.588L223.121 132.08M222.698 133.588H233.546M222.698 133.588H211.849M233.546 133.588L234.182 132.08M233.546 133.588H244.395M244.395 133.588L245.027 132.462L245.135 132.271L245.242 132.08M223.121 132.08H234.182M223.121 132.08H212.061M234.842 130.512L234.927 130.311L235.012 130.11L235.097 129.908L235.53 128.88M234.842 130.512L234.509 131.304L234.426 131.499L234.344 131.694L234.182 132.08M234.842 130.512H246.123M234.182 132.08H245.242M212.061 132.08H201M212.061 132.08L211.849 133.588M245.242 132.08L246.123 130.512M211.849 133.588H201M235.53 128.88L236.155 127.397L236.246 127.181M235.53 128.88H247.04M246.123 130.512L246.349 130.11L247.04 128.88M247.04 128.88L247.393 128.251L247.994 127.181M224.497 127.181L224.743 126.305L224.806 126.083L224.995 125.41M224.497 127.181H236.246M224.497 127.181H212.749M236.246 127.181L236.992 125.41M236.246 127.181H247.994M247.994 127.181L248.989 125.41M224.995 125.41H236.992M224.995 125.41H212.997M237.77 123.562L236.992 125.41M237.77 123.562L238.583 121.633M237.77 123.562H250.027M236.992 125.41H248.989M212.997 125.41H201M212.997 125.41L212.934 125.86L212.81 126.745L212.749 127.181M248.989 125.41L250.027 123.562M212.749 127.181H201M238.583 121.633L239.217 120.129L239.433 119.616M238.583 121.633H251.111M250.027 123.562L251.111 121.633M251.111 121.633L251.671 120.636L252.244 119.616M226.622 119.616L227.215 117.506M226.622 119.616H239.433M226.622 119.616H213.811M239.433 119.616L240.322 117.506M239.433 119.616H252.244M252.244 119.616L253.429 117.506M227.215 117.506H240.322M227.215 117.506H214.107M241.253 115.297L241.016 115.859L240.322 117.506M241.253 115.297L242.229 112.98M241.253 115.297H254.671M240.322 117.506H253.429M214.107 117.506H201M214.107 117.506L213.811 119.616M253.429 117.506L254.671 115.297M213.811 119.616H201M242.229 112.98L243.254 110.547M242.229 112.98H255.973M254.671 115.297L255.973 112.98M255.973 112.98L257.339 110.547M229.17 110.547L229.888 107.991M229.17 110.547H243.254M229.17 110.547H215.085M243.254 110.547L244.331 107.991M243.254 110.547H257.339M257.339 110.547L258.775 107.991M229.888 107.991H244.331M229.888 107.991H215.444M245.465 105.301L244.331 107.991M245.465 105.301L246.659 102.467M245.465 105.301H260.286M244.331 107.991H258.775M215.444 107.991H201M215.444 107.991L215.129 110.235L215.085 110.547M258.775 107.991L260.286 105.301M215.085 110.547H201M246.659 102.467L247.919 99.4754M246.659 102.467H261.879M260.286 105.301L261.473 103.189L261.879 102.467M261.879 102.467L263.559 99.4754M232.279 99.4754L233.167 96.3148M232.279 99.4754H247.919M232.279 99.4754H216.64M247.919 99.4754L249.251 96.3148M247.919 99.4754H263.559M263.559 99.4754L265.335 96.3148M233.167 96.3148H249.251M233.167 96.3148H217.084M250.661 92.9692L249.251 96.3148M250.661 92.9692L252.155 89.4226M250.661 92.9692H267.214M249.251 96.3148H265.335M217.084 96.3148H201M217.084 96.3148L216.64 99.4754M265.335 96.3148L267.214 92.9692M216.64 99.4754H201M252.155 89.4226L253.742 85.6556M252.155 89.4226H269.207M267.214 92.9692L269.207 89.4226M269.207 89.4226L271.323 85.6556M236.162 85.6556L237.287 81.6475M236.162 85.6556H253.742M236.162 85.6556H218.581M253.742 85.6556L255.431 81.6475M253.742 85.6556H271.323M271.323 85.6556L273.575 81.6475M237.287 81.6475H255.431M237.287 81.6475H219.144M257.232 77.3743L255.431 81.6475M257.232 77.3743L259.155 72.8087M257.232 77.3743H275.975M255.431 81.6475H273.575M219.144 81.6475H201M219.144 81.6475L218.581 85.6556M273.575 81.6475L275.975 77.3743M218.581 85.6556H201M259.155 72.8087L261.215 67.9197M259.155 72.8087H278.54M275.975 77.3743L278.54 72.8087M278.54 72.8087L281.287 67.9197M241.143 67.9197L242.618 62.6714M241.143 67.9197H261.215M241.143 67.9197H221.072M261.215 67.9197L263.427 62.6714M261.215 67.9197H281.287M281.287 67.9197L284.235 62.6714M242.618 62.6714H263.427M242.618 62.6714H221.809M265.806 57.0232L263.427 62.6714M265.806 57.0232L268.375 50.927M265.806 57.0232H287.409M263.427 62.6714H284.235M221.809 62.6714H201M221.809 62.6714L221.072 67.9197M284.235 62.6714L287.409 57.0232M221.072 67.9197H201M268.375 50.927L271.156 44.3278M268.375 50.927H290.833M287.409 57.0232L290.833 50.927M290.833 50.927L294.541 44.3278M247.77 44.3278L249.784 37.1605M247.77 44.3278H271.156M247.77 44.3278H224.385M271.156 44.3278L274.175 37.1605M271.156 44.3278H294.541M294.541 44.3278L298.567 37.1605M249.784 37.1605H274.175M249.784 37.1605H225.392M277.467 29.3483L274.175 37.1605M277.467 29.3483L281.069 20.8003M277.467 29.3483H302.956M274.175 37.1605H298.567M225.392 37.1605H201M225.392 37.1605L224.385 44.3278M298.567 37.1605L302.956 29.3483M224.385 44.3278H201M281.069 20.8003L285.027 11.407M281.069 20.8003H307.759M302.956 29.3483L307.759 20.8003M307.759 20.8003L313.035 11.407M257.018 11.407L259.931 1.03684M257.018 11.407H285.027M257.018 11.407H229.009M285.027 11.407L289.396 1.03684M285.027 11.407H313.035M313.035 11.407L318.861 1.03684M289.396 1.03684H259.931M289.396 1.03684H318.861M259.931 1.03684H230.465M230.465 1.03684H201M230.465 1.03684L229.009 11.407M229.009 11.407H201M180.846 139.082L180.801 138.922L180.756 138.762L180.711 138.601L180.665 138.438L180.574 138.112L180.527 137.948L180.481 137.783M180.846 139.082H190.923M180.846 139.082H170.769M191.099 140.336L191.269 141.547M191.099 140.336L190.923 139.082M191.099 140.336H201M191.269 141.547L191.29 141.695L191.311 141.843L191.331 141.99L191.433 142.716M191.269 141.547H201M181.867 142.716L181.907 142.86L182.066 143.428L182.184 143.847M181.867 142.716H191.433M181.867 142.716H172.3M190.923 139.082L190.9 138.922L190.878 138.762L190.855 138.601L190.741 137.783M190.923 139.082H201M201 140.336V141.547M201 140.336V139.082M201 141.547V142.716M191.433 142.716H201M191.433 142.716L191.493 143.145L191.514 143.286L191.592 143.847M201 139.082V137.783M210.567 142.716L210.507 143.145L210.487 143.286L210.467 143.428L210.447 143.568L210.427 143.708L210.408 143.847M210.567 142.716H201M201 142.716V143.847M180.481 137.783H190.741M180.481 137.783H170.222M190.551 136.436L190.527 136.264L190.503 136.092L190.355 135.039M190.551 136.436L190.741 137.783M190.551 136.436H201M190.741 137.783H201M170.222 137.783H159.962M170.222 137.783L170.36 138.112L170.429 138.276L170.498 138.438L170.566 138.601L170.634 138.762L170.702 138.922L170.769 139.082M201 137.783V136.436M170.769 139.082H160.692M190.355 135.039L190.151 133.588M190.355 135.039H201M201 136.436V135.039M201 135.039V133.588M179.302 133.588L178.879 132.08M179.302 133.588H190.151M179.302 133.588H168.454M190.151 133.588L189.939 132.08M190.151 133.588H201M201 133.588V132.08M178.879 132.08H189.939M178.879 132.08H167.818M189.719 130.512L189.939 132.08M189.719 130.512L189.49 128.88M189.719 130.512H201M189.939 132.08H201M167.818 132.08H156.758M167.818 132.08L168.454 133.588M201 132.08V130.512M168.454 133.588H157.605M189.49 128.88L189.402 128.251L189.312 127.613L189.251 127.181M189.49 128.88H201M201 130.512V128.88M201 128.88V127.181M177.503 127.181L177.257 126.305L177.195 126.083L177.005 125.41M177.503 127.181H189.251M177.503 127.181H165.754M189.251 127.181L189.19 126.745L189.066 125.86L189.003 125.41M189.251 127.181H201M201 127.181V125.41M177.005 125.41H189.003M177.005 125.41H165.008M188.743 123.562L188.776 123.798L189.003 125.41M188.743 123.562L188.472 121.633M188.743 123.562H201M189.003 125.41H201M165.008 125.41H153.011M165.008 125.41L165.754 127.181M201 125.41V123.562M165.754 127.181H154.006M188.472 121.633L188.189 119.616M188.472 121.633H201M201 123.562V121.633M201 121.633V119.616M175.378 119.616L174.785 117.506M175.378 119.616H188.189M175.378 119.616H162.567M188.189 119.616L187.893 117.506M188.189 119.616H201M201 119.616V117.506M174.785 117.506H187.893M174.785 117.506H161.678M187.582 115.297L187.893 117.506M187.582 115.297L187.257 112.98M187.582 115.297H201M187.893 117.506H201M161.678 117.506H148.571M161.678 117.506L162.567 119.616M201 117.506V115.297M162.567 119.616H149.756M187.257 112.98L186.915 110.547M187.257 112.98H201M201 115.297V112.98M201 112.98V110.547M172.83 110.547L172.112 107.991M172.83 110.547H186.915M172.83 110.547H158.746M186.915 110.547L186.556 107.991M186.915 110.547H201M201 110.547V107.991M172.112 107.991H186.556M172.112 107.991H157.669M186.178 105.301L186.556 107.991M186.178 105.301L185.78 102.467M186.178 105.301H201M186.556 107.991H201M157.669 107.991H143.225M157.669 107.991L158.746 110.547M201 107.991V105.301M158.746 110.547H144.661M185.78 102.467L185.36 99.4754M185.78 102.467H201M201 105.301V102.467M201 102.467V99.4754M169.721 99.4754L168.833 96.3148M169.721 99.4754H185.36M169.721 99.4754H154.081M185.36 99.4754L184.916 96.3148M185.36 99.4754H201M201 99.4754V96.3148M168.833 96.3148H184.916M168.833 96.3148H152.749M184.447 92.9692L184.916 96.3148M184.447 92.9692L183.948 89.4226M184.447 92.9692H201M184.916 96.3148H201M152.749 96.3148H136.665M152.749 96.3148L154.081 99.4754M201 96.3148V92.9692M154.081 99.4754H138.441M183.948 89.4226L183.419 85.6556M183.948 89.4226H201M201 92.9692V89.4226M201 89.4226V85.6556M165.839 85.6556L164.713 81.6475M165.839 85.6556H183.419M165.839 85.6556H148.258M183.419 85.6556L182.856 81.6475M183.419 85.6556H201M201 85.6556V81.6475M164.713 81.6475H182.856M164.713 81.6475H146.569M182.256 77.3743L182.856 81.6475M182.256 77.3743L181.615 72.8087M182.256 77.3743H201M182.856 81.6475H201M146.569 81.6475H128.425M146.569 81.6475L148.258 85.6556M201 81.6475V77.3743M148.258 85.6556H130.677M181.615 72.8087L180.928 67.9197M181.615 72.8087H201M201 77.3743V72.8087M201 72.8087V67.9197M160.857 67.9197L159.382 62.6714M160.857 67.9197H180.928M160.857 67.9197H140.785M180.928 67.9197L180.191 62.6714M180.928 67.9197H201M201 67.9197V62.6714M159.382 62.6714H180.191M159.382 62.6714H138.574M179.398 57.0232L180.191 62.6714M179.398 57.0232L178.542 50.927M179.398 57.0232H201M180.191 62.6714H201M138.574 62.6714H117.765M138.574 62.6714L140.785 67.9197M201 62.6714V57.0232M140.785 67.9197H120.713M178.542 50.927L177.615 44.3278M178.542 50.927H201M201 57.0232V50.927M201 50.927V44.3278M154.23 44.3278L152.216 37.1605M154.23 44.3278H177.615M154.23 44.3278H130.844M177.615 44.3278L176.608 37.1605M177.615 44.3278H201M201 44.3278V37.1605M152.216 37.1605H176.608M152.216 37.1605H127.825M175.511 29.3483L176.608 37.1605M175.511 29.3483L174.31 20.8003M175.511 29.3483H201M176.608 37.1605H201M127.825 37.1605H103.433M127.825 37.1605L130.844 44.3278M201 37.1605V29.3483M130.844 44.3278H107.459M174.31 20.8003L172.991 11.407M174.31 20.8003H201M201 29.3483V20.8003M201 20.8003V11.407M144.982 11.407L142.069 1.03684M144.982 11.407H172.991M144.982 11.407H116.973M172.991 11.407L171.535 1.03684M172.991 11.407H201M201 11.407V1.03684M171.535 1.03684H142.069M171.535 1.03684H201M142.069 1.03684H112.604M112.604 1.03684H83.1387M112.604 1.03684L116.973 11.407M116.973 11.407H88.9645M140.538 139.082L139.995 138.438L139.443 137.783M140.538 139.082H150.615M140.538 139.082H130.461M151.495 140.336L152.345 141.547M151.495 140.336L150.615 139.082M151.495 140.336H161.396M152.345 141.547H162.076M152.345 141.547L152.964 142.428L153.167 142.716M143.6 142.716H153.167M143.6 142.716L143.961 143.145L144.553 143.847M143.6 142.716H134.033M150.615 139.082L149.702 137.783M150.615 139.082H160.692M161.396 140.336L162.076 141.547M161.396 140.336L160.692 139.082M162.076 141.547L162.408 142.136L162.652 142.572L162.733 142.716M153.167 142.716H162.733M153.167 142.716L153.765 143.568L153.961 143.847M160.692 139.082L160.147 138.112L159.962 137.783M172.3 142.716L172.36 142.86L172.48 143.145L172.659 143.568L172.777 143.847M172.3 142.716H162.733M162.733 142.716L162.814 142.86L162.974 143.145L163.369 143.847M139.443 137.783H149.702M139.443 137.783H129.183M148.756 136.436L148.877 136.607L148.996 136.778L149.469 137.451L149.702 137.783M148.756 136.436L148.024 135.393L147.775 135.039M148.756 136.436H159.205M149.702 137.783H159.962M129.183 137.783H118.924M129.183 137.783L130.145 138.762L130.461 139.082M159.962 137.783L159.205 136.436M130.461 139.082H120.383M147.775 135.039L147.65 134.86L147.524 134.681L147.143 134.138L147.014 133.955L146.756 133.588M147.775 135.039H158.42M159.205 136.436L159.109 136.264L158.42 135.039M158.42 135.039L158.32 134.86L158.219 134.681L158.118 134.501L157.605 133.588M135.907 133.588L134.637 132.08M135.907 133.588H146.756M135.907 133.588H125.059M146.756 133.588L145.697 132.08M146.756 133.588H157.605M157.605 133.588L156.758 132.08M134.637 132.08H145.697M134.637 132.08H123.576M144.596 130.512L145.697 132.08M144.596 130.512L143.451 128.88M144.596 130.512H155.877M145.697 132.08H156.758M123.576 132.08H112.516M123.576 132.08L125.059 133.588M156.758 132.08L155.877 130.512M125.059 133.588H114.21M143.451 128.88L142.257 127.181M143.451 128.88H154.96M155.877 130.512L155.651 130.11L154.96 128.88M154.96 128.88L154.607 128.251L154.248 127.613L154.006 127.181M130.509 127.181L129.77 126.305L129.016 125.41M130.509 127.181H142.257M130.509 127.181H118.76M142.257 127.181L141.014 125.41M142.257 127.181H154.006M154.006 127.181L153.011 125.41M129.016 125.41H141.014M129.016 125.41H117.019M139.716 123.562L141.014 125.41M139.716 123.562L138.361 121.633M139.716 123.562H151.973M141.014 125.41H153.011M117.019 125.41H105.022M117.019 125.41L118.76 127.181M153.011 125.41L151.973 123.562M118.76 127.181H107.012M138.361 121.633L138.013 121.137L136.945 119.616M138.361 121.633H150.889M151.973 123.562L150.889 121.633M150.889 121.633L150.75 121.386L150.329 120.636L149.756 119.616M124.134 119.616L122.356 117.506M124.134 119.616H136.945M124.134 119.616H111.323M136.945 119.616L135.463 117.506M136.945 119.616H149.756M149.756 119.616L148.571 117.506M122.356 117.506H135.463M122.356 117.506H109.249M133.911 115.297L134.89 116.69L135.463 117.506M133.911 115.297L132.284 112.98M133.911 115.297H147.329M135.463 117.506H148.571M109.249 117.506H96.1412M109.249 117.506L111.323 119.616M148.571 117.506L147.329 115.297M111.323 119.616H98.5119M132.284 112.98L130.576 110.547M132.284 112.98H146.027M147.329 115.297L146.027 112.98M146.027 112.98L144.661 110.547M116.491 110.547L114.337 107.991M116.491 110.547H130.576M116.491 110.547H102.407M130.576 110.547L128.781 107.991M130.576 110.547H144.661M144.661 110.547L143.225 107.991M114.337 107.991H128.781M114.337 107.991H99.8934M126.892 105.301L128.781 107.991M126.892 105.301L124.902 102.467M126.892 105.301H141.714M128.781 107.991H143.225M99.8934 107.991H85.4498M99.8934 107.991L102.407 110.547M143.225 107.991L141.714 105.301M102.407 110.547H88.3219M124.902 102.467L122.801 99.4754M124.902 102.467H140.121M141.714 105.301L140.121 102.467M140.121 102.467L138.441 99.4754M107.161 99.4754L104.498 96.3148M107.161 99.4754H122.801M107.161 99.4754H91.5215M122.801 99.4754L120.582 96.3148M122.801 99.4754H138.441M138.441 99.4754L136.665 96.3148M104.498 96.3148H120.582M104.498 96.3148H88.4142M118.232 92.9692L120.582 96.3148M118.232 92.9692L115.742 89.4226M118.232 92.9692H134.786M120.582 96.3148H136.665M88.4142 96.3148H72.3305M88.4142 96.3148L91.5215 99.4754M136.665 96.3148L134.786 92.9692M91.5215 99.4754H75.8819M115.742 89.4226L113.096 85.6556M115.742 89.4226H132.793M134.786 92.9692L132.793 89.4226M132.793 89.4226L130.677 85.6556M95.5155 85.6556L92.138 81.6475M95.5155 85.6556H113.096M95.5155 85.6556H77.9347M113.096 85.6556L110.282 81.6475M113.096 85.6556H130.677M130.677 85.6556L128.425 81.6475M92.138 81.6475H110.282M92.138 81.6475H73.9943M107.281 77.3743L110.282 81.6475M107.281 77.3743L104.075 72.8087M107.281 77.3743H126.025M110.282 81.6475H128.425M73.9943 81.6475H55.8506M73.9943 81.6475L77.9347 85.6556M128.425 81.6475L126.025 77.3743M77.9347 85.6556H60.354M104.075 72.8087L100.641 67.9197M104.075 72.8087H123.46M126.025 77.3743L123.46 72.8087M123.46 72.8087L120.713 67.9197M80.5695 67.9197L76.147 62.6714M80.5695 67.9197H100.641M80.5695 67.9197H60.4977M100.641 67.9197L96.9558 62.6714M100.641 67.9197H120.713M120.713 67.9197L117.765 62.6714M76.147 62.6714H96.9558M76.147 62.6714H55.3382M92.9893 57.0232L96.9558 62.6714M92.9893 57.0232L88.7084 50.927M92.9893 57.0232H114.591M96.9558 62.6714H117.765M55.3382 62.6714H34.5293M55.3382 62.6714L60.4977 67.9197M117.765 62.6714L114.591 57.0232M60.4977 67.9197H40.4259M88.7084 50.927L84.0741 44.3278M88.7084 50.927H111.167M114.591 57.0232L111.167 50.927M111.167 50.927L107.459 44.3278M60.689 44.3278L54.6491 37.1605M60.689 44.3278H84.0741M60.689 44.3278H37.3037M84.0741 44.3278L79.0409 37.1605M84.0741 44.3278H107.459M107.459 44.3278L103.433 37.1605M54.6491 37.1605H79.0409M54.6491 37.1605H30.2572M73.5549 29.3483L79.0409 37.1605M73.5549 29.3483L67.552 20.8003M73.5549 29.3483H99.0438M79.0409 37.1605H103.433M30.2572 37.1605H5.86541M30.2572 37.1605L37.3037 44.3278M103.433 37.1605L99.0438 29.3483M37.3037 44.3278H13.9187M67.552 20.8003L60.9558 11.407M67.552 20.8003H94.2417M99.0438 29.3483L94.2417 20.8003M94.2417 20.8003L88.9645 11.407M32.9469 11.407L24.2081 1.03684M32.9469 11.407H60.9558M32.9469 11.407H4.93796M60.9558 11.407L53.6735 1.03684M60.9558 11.407H88.9645M88.9645 11.407L83.1387 1.03684M53.6735 1.03684H24.2081M53.6735 1.03684H83.1387M24.2081 1.03684L0.10819 1.03703M4.93796 11.407L0.10819 6.49428M4.93796 11.407H0.10819M100.229 139.082L98.4048 137.783M100.229 139.082H110.306M100.229 139.082H90.1523M111.891 140.336L113.421 141.547M111.891 140.336L110.306 139.082M111.891 140.336H121.792M113.421 141.547H123.152M113.421 141.547L114.9 142.716M105.333 142.716H114.9M105.333 142.716L105.935 143.145L106.922 143.847M105.333 142.716H95.7666M110.306 139.082L108.664 137.783M110.306 139.082H120.383M121.792 140.336L123.152 141.547M121.792 140.336L120.383 139.082M123.152 141.547L124.142 142.428L124.467 142.716M114.9 142.716L115.081 142.86L116.33 143.847M114.9 142.716H124.467M120.383 139.082L118.924 137.783M134.033 142.716L135.145 143.847M134.033 142.716H124.467M124.467 142.716L124.948 143.145L125.737 143.847M98.4048 137.783H108.664M98.4048 137.783H88.1453M106.962 136.436L108.664 137.783M106.962 136.436L105.195 135.039M106.962 136.436H117.41M108.664 137.783H118.924M88.1453 137.783H77.8858M88.1453 137.783L90.1523 139.082M118.924 137.783L117.41 136.436M90.1523 139.082H80.0753M105.195 135.039L104.743 134.681L103.361 133.588M105.195 135.039H115.84M117.41 136.436L115.84 135.039M115.84 135.039L114.21 133.588M92.5119 133.588L92.2518 133.402L90.3944 132.08M92.5119 133.588H103.361M92.5119 133.588H81.6632M103.361 133.588L101.455 132.08M103.361 133.588H114.21M114.21 133.588L114.002 133.402L112.516 132.08M90.3944 132.08H101.455M90.3944 132.08H79.3339M99.4732 130.512L101.455 132.08M99.4732 130.512L97.411 128.88M99.4732 130.512H110.754M101.455 132.08H112.516M79.3339 132.08H68.2733M79.3339 132.08L81.6632 133.588M112.516 132.08L110.754 130.512M81.6632 133.588H70.8144M97.411 128.88L95.2631 127.181M97.411 128.88H108.921M110.754 130.512L108.921 128.88M108.921 128.88L107.012 127.181M83.5147 127.181L81.0272 125.41M83.5147 127.181H95.2631M83.5147 127.181H71.7661M95.2631 127.181L93.0244 125.41M95.2631 127.181H107.012M107.012 127.181L105.022 125.41M81.0272 125.41H93.0244M81.0272 125.41H69.0298M90.6888 123.562L93.0244 125.41M90.6888 123.562L88.2499 121.633M90.6888 123.562H102.946M93.0244 125.41H105.022M69.0298 125.41H57.0326M69.0298 125.41L71.7661 127.181M105.022 125.41L102.946 123.562M71.7661 127.181H60.0175M88.2499 121.633L85.7009 119.616M88.2499 121.633H100.778M102.946 123.562L100.778 121.633M100.778 121.633L98.5119 119.616M72.8898 119.616L69.9265 117.506M72.8898 119.616H85.7009M72.8898 119.616H60.0788M85.7009 119.616L83.0338 117.506M85.7009 119.616H98.5119M98.5119 119.616L96.1412 117.506M69.9265 117.506H83.0338M69.9265 117.506H56.8191M80.2404 115.297L83.0338 117.506M80.2404 115.297L77.3115 112.98M80.2404 115.297H93.6581M83.0338 117.506H96.1412M56.8191 117.506H43.7118M56.8191 117.506L60.0788 119.616M96.1412 117.506L93.6581 115.297M60.0788 119.616H47.2678M77.3115 112.98L74.2371 110.547M77.3115 112.98H91.0546M93.6581 115.297L91.0546 112.98M91.0546 112.98L88.3219 110.547M60.1522 110.547L56.5621 107.991M60.1522 110.547H74.2371M60.1522 110.547H46.0676M74.2371 110.547L71.0058 107.991M74.2371 110.547H88.3219M88.3219 110.547L85.4498 107.991M56.5621 107.991H71.0058M56.5621 107.991H42.1182M67.6055 105.301L71.0058 107.991M67.6055 105.301L64.0228 102.467M67.6055 105.301H82.4272M71.0058 107.991H85.4498M42.1182 107.991H27.6745M42.1182 107.991L46.0676 110.547M85.4498 107.991L82.4272 105.301M46.0676 110.547H31.9828M64.0228 102.467L60.242 99.4754M64.0228 102.467H79.2424M82.4272 105.301L79.2424 102.467M79.2424 102.467L75.8819 99.4754M44.6022 99.4754L40.1631 96.3148M44.6022 99.4754H60.242M44.6022 99.4754H28.9625M60.242 99.4754L56.2468 96.3148M60.242 99.4754H75.8819M75.8819 99.4754L72.3305 96.3148M40.1631 96.3148H56.2468M40.1631 96.3148H24.0794M52.018 92.9692L56.2468 96.3148M52.018 92.9692L47.5348 89.4226M52.018 92.9692H68.5715M56.2468 96.3148H72.3305M24.0794 96.3148H7.9957M24.0794 96.3148L28.9625 99.4754M72.3305 96.3148L68.5715 92.9692M28.9625 99.4754H13.3227M47.5348 89.4226L42.7732 85.6556M47.5348 89.4226H64.5865M68.5715 92.9692L64.5865 89.4226M64.5865 89.4226L60.354 85.6556M25.1925 85.6556L19.5633 81.6475M25.1925 85.6556H42.7732M25.1925 85.6556H7.61171M42.7732 85.6556L37.707 81.6475M42.7732 85.6556H60.354M60.354 85.6556L55.8506 81.6475M19.5633 81.6475H37.707M19.5633 81.6475H1.41964M32.3053 77.3743L37.707 81.6475M32.3053 77.3743L26.5343 72.8087M32.3053 77.3743H51.0491M37.707 81.6475H55.8506M1.41964 81.6475L7.61171 85.6556M1.41964 81.6475H0.10819M1.41964 81.6475L0.10819 80.7987M55.8506 81.6475L51.0491 77.3743M7.61171 85.6556H0.10819M26.5343 72.8087L20.3543 67.9197M26.5343 72.8087H45.9193M51.0491 77.3743L45.9193 72.8087M45.9193 72.8087L40.4259 67.9197M0.282505 67.9197H20.3543M0.282505 67.9197H0.10819M0.282505 67.9197L0.10819 67.7956M20.3543 67.9197L13.7203 62.6714M20.3543 67.9197H40.4259M40.4259 67.9197L34.5293 62.6714M6.58067 57.0232L13.7203 62.6714M6.58067 57.0232H28.1828M6.58067 57.0232H0.10819M6.58067 57.0232L0.10819 51.9026M13.7203 62.6714H34.5293M13.7203 62.6714H0.10819M34.5293 62.6714L28.1828 57.0232M28.1828 57.0232L21.3335 50.927M21.3335 50.927L13.9187 44.3278M21.3335 50.927H0.10819M13.9187 44.3278L5.86541 37.1605M13.9187 44.3278H0.10819M5.86541 37.1605H0.10819M5.86541 37.1605L0.10819 32.0364M59.921 139.082L57.3668 137.783M59.921 139.082H69.9982M59.921 139.082H49.844M72.2872 140.336L74.4976 141.547M72.2872 140.336L69.9982 139.082M72.2872 140.336H82.1882M74.4976 141.547H84.2285M74.4976 141.547L76.6333 142.716M67.0667 142.716H76.6333M67.0667 142.716L69.2903 143.847M67.0667 142.716H57.5001M69.9982 139.082L67.6263 137.783M69.9982 139.082H80.0753M82.1882 140.336L84.2285 141.547M82.1882 140.336L80.0753 139.082M84.2285 141.547L86.2 142.716M76.6333 142.716L76.8951 142.86L78.6981 143.847M76.6333 142.716H86.2M80.0753 139.082L77.8858 137.783M95.7666 142.716L97.5137 143.847M95.7666 142.716H86.2M86.2 142.716L86.4417 142.86L88.1059 143.847M57.3668 137.783H67.6263M57.3668 137.783H47.1072M65.1668 136.436L67.6263 137.783M65.1668 136.436L62.615 135.039M65.1668 136.436H75.6157M67.6263 137.783H77.8858M47.1072 137.783H36.8477M47.1072 137.783L49.844 139.082M77.8858 137.783L75.6157 136.436M49.844 139.082H39.767M62.615 135.039L59.9656 133.588M62.615 135.039H73.26M75.6157 136.436L75.3258 136.264L73.26 135.039M73.26 135.039L70.8144 133.588M49.1168 133.588L46.1522 132.08M49.1168 133.588H59.9656M49.1168 133.588H38.268M59.9656 133.588L57.2127 132.08M59.9656 133.588H70.8144M70.8144 133.588L68.2733 132.08M46.1522 132.08H57.2127M46.1522 132.08H35.0916M54.3502 130.512L57.2127 132.08M54.3502 130.512L51.3714 128.88M54.3502 130.512H65.6309M57.2127 132.08H68.2733M35.0916 132.08H24.0311M35.0916 132.08L38.268 133.588M68.2733 132.08L65.6309 130.512M38.268 133.588H27.4192M51.3714 128.88L48.2691 127.181M51.3714 128.88H62.8812M65.6309 130.512L62.8812 128.88M62.8812 128.88L60.0175 127.181M36.5205 127.181L33.0379 125.41M36.5205 127.181H48.2691M36.5205 127.181H24.7718M48.2691 127.181L45.0353 125.41M48.2691 127.181H60.0175M60.0175 127.181L57.0326 125.41M33.0379 125.41H45.0353M33.0379 125.41H21.0407M41.6616 123.562L45.0353 125.41M41.6616 123.562L38.1389 121.633M41.6616 123.562H53.9185M45.0353 125.41H57.0326M21.0407 125.41H9.04348M21.0407 125.41L24.7718 127.181M57.0326 125.41L53.9185 123.562M24.7718 127.181H13.0234M38.1389 121.633L34.4567 119.616M38.1389 121.633H50.6666M53.9185 123.562L50.6666 121.633M50.6666 121.633L47.2678 119.616M21.6457 119.616L17.4971 117.506M21.6457 119.616H34.4567M21.6457 119.616H8.83485M34.4567 119.616L30.6044 117.506M34.4567 119.616H47.2678M47.2678 119.616L43.7118 117.506M17.4971 117.506H30.6044M26.5694 115.297L30.6044 117.506M26.5694 115.297L22.339 112.98M26.5694 115.297H39.9873M30.6044 117.506H43.7118M43.7118 117.506L39.9873 115.297M8.83485 119.616H0.10819M22.339 112.98L17.898 110.547M22.339 112.98H36.0821M39.9873 115.297L36.0821 112.98M36.0821 112.98L31.9828 110.547M3.81318 110.547H17.898M3.81318 110.547H0.10819M3.81318 110.547L0.10819 108.663M17.898 110.547L13.2306 107.991M17.898 110.547H31.9828M31.9828 110.547L27.6745 107.991M8.31922 105.301L13.2306 107.991M8.31922 105.301L3.14396 102.467M8.31922 105.301H23.1409M8.31922 105.301H0.10819M13.2306 107.991H27.6745M13.2306 107.991H0.10819M27.6745 107.991L23.1409 105.301M0.0673838 108.642L0.10819 108.663M3.14396 102.467H18.3636M3.14396 102.467H0.10819M3.14396 102.467L0.10819 100.804M23.1409 105.301L18.3636 102.467M18.3636 102.467L13.3227 99.4754M13.3227 99.4754L7.9957 96.3148M13.3227 99.4754H0.10819M2.35734 92.9692L7.9957 96.3148M2.35734 92.9692H0.10819M2.35734 92.9692L0.10819 91.6348M7.9957 96.3148H0.10819M19.6129 139.082L16.3287 137.783M19.6129 139.082H29.6899M19.6129 139.082H9.53567M32.6832 140.336L35.5738 141.547M32.6832 140.336L29.6899 139.082M32.6832 140.336H42.5843M35.5738 141.547H45.3047M35.5738 141.547L38.3666 142.716M28.7999 142.716H38.3666M28.7999 142.716L31.6589 143.847M28.7999 142.716H19.2333M29.6899 139.082L26.5882 137.783M29.6899 139.082H39.767M42.5843 140.336L45.3047 141.547M42.5843 140.336L39.767 139.082M45.3047 141.547L47.9332 142.716M38.3666 142.716H47.9332M38.3666 142.716L41.0669 143.847M39.767 139.082L36.8477 137.783M57.5001 142.716L59.8825 143.847M57.5001 142.716H47.9332M47.9332 142.716L50.4747 143.847M16.3287 137.783H26.5882M16.3287 137.783H6.06923M23.3721 136.436L26.5882 137.783M23.3721 136.436L20.0352 135.039M23.3721 136.436H33.8208M26.5882 137.783H36.8477M6.06923 137.783L9.53567 139.082M6.06923 137.783H0.10819M36.8477 137.783L33.8208 136.436M9.53567 139.082H0.10819M20.0352 135.039L16.5704 133.588M20.0352 135.039H30.6802M33.8208 136.436L30.6802 135.039M30.6802 135.039L27.4192 133.588M5.72165 133.588L1.90994 132.08M5.72165 133.588H16.5704M5.72165 133.588H0.10819M16.5704 133.588L12.9705 132.08M16.5704 133.588H27.4192M27.4192 133.588L24.0311 132.08M9.22721 130.512L12.9705 132.08M9.22721 130.512L5.3318 128.88M9.22721 130.512H20.5079M9.22721 130.512H0.10819M12.9705 132.08H1.90994M12.9705 132.08H24.0311M1.90994 132.08L0.10819 131.367M1.90994 132.08H0.10819M24.0311 132.08L20.5079 130.512M5.3318 128.88L1.27483 127.181M5.3318 128.88H16.8416M5.3318 128.88H0.10819M20.5079 130.512L16.8416 128.88M16.8416 128.88L13.0234 127.181M1.27483 127.181H13.0234M1.27483 127.181L0.10819 126.693M1.27483 127.181H0.10819M13.0234 127.181L9.04348 125.41M4.8913 123.562L9.04348 125.41M4.8913 123.562L0.555593 121.633M4.8913 123.562H0.10819M9.04348 125.41H0.10819M0.0454105 125.41H0.10819M0.555593 121.633H0.10819M0.555593 121.633L0.10819 121.434M0 121.386L0.10819 121.434M2.98031 140.336L6.38083 141.547M2.98031 140.336H0.10819M2.98031 140.336L0.10819 139.314M6.38083 141.547L9.66666 142.716M6.38083 141.547H0.10819M19.2333 142.716L22.2511 143.847M19.2333 142.716H9.66666M9.66666 142.716L12.8433 143.847M9.66666 142.716H0.10819M332.71 143.847H342.118M332.71 143.847H323.302M339.813 144.941L340.382 144.671L342.118 143.847M339.813 144.941H349.067M342.118 143.847H351.525M349.067 144.941L349.674 144.671L349.979 144.535L351.525 143.847M351.525 143.847H360.933M360.933 143.847H370.341M323.302 143.847H313.894M370.341 143.847H379.749M379.749 143.847L376.83 144.941M379.749 143.847H389.157M376.83 144.941H386.084M295.078 143.847H304.486M295.078 143.847H285.67M302.796 144.941L303.213 144.671L303.423 144.535L304.486 143.847M302.796 144.941H312.05M304.486 143.847H313.894M312.05 144.941L313.894 143.847M285.67 143.847H276.263M257.447 143.847H266.855M257.447 143.847H248.039M265.779 144.941L265.912 144.806L266.045 144.671L266.179 144.535L266.855 143.847M265.779 144.941H275.033M266.855 143.847H276.263M275.033 144.941L276.263 143.847M248.039 143.847H238.631M219.816 143.847H229.223M219.816 143.847H210.408M228.763 144.941L229.223 143.847M228.763 144.941H238.017M229.223 143.847H238.631M238.017 144.941L238.093 144.806L238.169 144.671L238.245 144.535L238.631 143.847M210.408 143.847H201M182.184 143.847H191.592M182.184 143.847H172.777M191.746 144.941L191.592 143.847M191.746 144.941H201M191.592 143.847H201M201 144.941V143.847M172.777 143.847H163.369M144.553 143.847H153.961M144.553 143.847H135.145M154.729 144.941L154.539 144.671L154.155 144.124L153.961 143.847M154.729 144.941H163.983M153.961 143.847H163.369M163.983 144.941L163.907 144.806L163.831 144.671L163.755 144.535L163.369 143.847M135.145 143.847H125.737M106.922 143.847H116.33M106.922 143.847H97.5137M117.712 144.941L117.371 144.671L117.199 144.535L116.33 143.847M117.712 144.941H126.967M116.33 143.847H125.737M126.967 144.941L126.815 144.806L125.737 143.847M97.5137 143.847H88.1059M69.2903 143.847H78.6981M69.2903 143.847H59.8825M80.6955 144.941L80.2023 144.671L79.9541 144.535L78.6981 143.847M80.6955 144.941H89.9497M78.6981 143.847H88.1059M89.9497 144.941L89.7225 144.806L88.1059 143.847M59.8825 143.847H50.4747M31.6589 143.847H41.0669M31.6589 143.847H22.2511M43.6787 144.941L41.0669 143.847M43.6787 144.941H52.9329M41.0669 143.847H50.4747M52.9329 144.941L52.326 144.671L52.0205 144.535L50.4747 143.847M22.2511 143.847H12.8433M6.66207 144.941L3.43546 143.847M6.66207 144.941H15.9163M6.66207 144.941H0.10819M3.43546 143.847H12.8433M3.43546 143.847L0.10819 142.719M3.43546 143.847H0.10819M15.9163 144.941L15.1575 144.671L12.8433 143.847M386.084 144.941L386.843 144.671L389.157 143.847M389.157 143.847H398.565M398.565 143.847L401.892 142.719M398.565 143.847H401.892M401.892 91.6348V92.9692M401.892 91.6348V89.4226M401.892 92.9692V96.3148M401.892 89.4226V88.7615V85.6556M401.892 85.6556V81.6475M401.892 117.506V119.616M401.892 117.506V115.474M401.892 144.941V143.847M401.892 143.847V142.719M401.892 142.719L401.9 142.716H401.892M401.892 142.719V142.716M401.892 142.716V141.547M401.892 141.547V140.336M401.892 140.336V139.314M401.892 139.314V139.082M401.892 139.082V137.783M401.892 137.783V136.436M401.892 136.436V135.549M401.892 135.549V135.039M401.892 135.039V133.588M401.892 133.588V132.08M401.892 132.08V131.367M401.892 131.367V130.512M401.892 130.512V128.88M401.892 128.88V127.181M401.892 127.181V126.693M401.892 126.693V125.41M401.892 125.41V123.562M401.892 123.562V121.633M401.892 121.633V121.434M401.892 121.434V119.616M401.892 115.297V112.98M401.892 115.297V115.474M401.892 112.98V110.547M401.892 110.547V108.663M401.892 108.663V107.991M401.892 107.991V105.301M401.892 105.301V102.467M401.892 102.467V100.804M401.892 100.804V99.4754M401.892 99.4754V96.3148M401.892 81.6475V80.7987M401.892 80.7987V77.3743M401.892 77.3743V72.8087M401.892 72.8087V67.9197M401.892 67.9197V67.7956M401.892 67.7956V62.6714M401.892 62.6714V57.0232M401.892 57.0232V51.9026M401.892 51.9026V50.927M401.892 50.927V44.3278M401.892 44.3278V37.1605M401.892 37.1605V32.0364M401.892 32.0364V29.3483M401.892 29.3483V20.8003M401.892 20.8003V11.407M401.892 11.407V6.49428M401.892 6.49428V1.03703M401.892 1.03703V1H0.10819V1.03703M0.10819 115.297V112.98M0.10819 115.297V115.474M0.10819 115.474V117.506M0.10819 117.506V119.616M0.10819 119.616V121.434M0.10819 121.434V121.633M0.10819 121.633V123.562M0.10819 123.562V125.41M0.10819 125.41V126.693M0.10819 126.693V127.181M0.10819 127.181V128.88M0.10819 128.88V130.512M0.10819 130.512V131.367M0.10819 131.367V132.08M0.10819 132.08V133.588M0.10819 133.588V135.039M0.10819 135.039V135.549M0.10819 135.549V136.436M0.10819 136.436V137.783M0.10819 137.783V139.082M0.10819 139.082V139.314M0.10819 139.314V140.336M0.10819 140.336V141.547M0.10819 141.547V142.716M0.10819 142.716H0.100028L0.10819 142.719M0.10819 142.716V142.719M0.10819 142.719V143.847M0.10819 143.847V144.941M0.10819 1.03703V6.49428M0.10819 6.49428V11.407M0.10819 11.407V20.8001M0.10819 20.8001V29.3483M0.10819 29.3483V32.0364M0.10819 32.0364V37.1605M0.10819 37.1605V44.3278M0.10819 44.3278V50.927M0.10819 50.927V51.9026M0.10819 51.9026V57.0232M0.10819 57.0232V62.6714M0.10819 62.6714V67.7956M0.10819 67.7956V67.9197M0.10819 67.9197V72.8087M0.10819 72.8087V77.3743M0.10819 77.3743V80.7987M0.10819 80.7987V81.6475M0.10819 81.6475V85.6556M0.10819 85.6556V89.4226M0.10819 89.4226V91.6348M0.10819 91.6348V92.9692M0.10819 92.9692V96.3148M0.10819 96.3148V99.4754M0.10819 99.4754V100.804M0.10819 100.804V102.467M0.10819 102.467V105.301M0.10819 105.301V107.991M0.10819 107.991V108.663M0.10819 108.663V110.547M0.10819 110.547V112.98" stroke="url(#paint0_linear_20_4970)" stroke-width="0.370542" stroke-miterlimit="10" stroke-linecap="round" stroke-linejoin="round"/>
<defs>
<linearGradient id="paint0_linear_20_4970" x1="201" y1="146" x2="201" y2="44.3372" gradientUnits="userSpaceOnUse">
<stop stop-color="#CED2DF" stop-opacity="0"/>
<stop offset="1" stop-color="#5D606A"/>
</linearGradient>
</defs>
</svg>
