<svg width="393" height="116" viewBox="0 0 393 116" fill="none" xmlns="http://www.w3.org/2000/svg">
<path opacity="0.5" d="M386.487 1.83254L383.434 1M386.487 1.83254H377.44M386.487 1.83254L389.641 2.69257M386.487 1.83254H392.894M383.434 1L384.545 1.00032L385.644 1.00213L386.721 1.0072L387.764 1.01718L388.761 1.03338L389.703 1.05776L390.577 1.09163L391.389 1.13483L392.086 1.19455L392.72 1.26377L392.894 1.28801V1.83254M383.434 1H374.533M374.533 1H365.631M374.533 1L377.44 1.83254M365.631 1H356.729M365.631 1L368.393 1.83254M356.729 1H347.828M356.729 1L359.346 1.83254M347.828 1H338.926M347.828 1L350.299 1.83254M338.926 1H330.024M338.926 1L341.252 1.83254M330.024 1H321.123M330.024 1L332.205 1.83254M321.123 1H312.221M321.123 1L323.158 1.83254M312.221 1H303.319M312.221 1L314.111 1.83254M303.319 1H294.418M303.319 1L305.064 1.83254M294.418 1H285.516M294.418 1L296.017 1.83254M285.516 1H276.615M285.516 1L286.97 1.83254M276.615 1H267.713M276.615 1L276.938 1.20568L277.428 1.51707L277.923 1.83254M267.713 1H258.811M267.713 1L268 1.20568L268.876 1.83254M258.811 1H249.91M258.811 1L259.829 1.83254M249.91 1H241.008M249.91 1L250.233 1.30909L250.561 1.62179L250.671 1.727L250.782 1.83254M241.008 1H232.106M241.008 1L241.278 1.30909L241.369 1.41283L241.46 1.51707L241.735 1.83254M232.106 1H223.205M232.106 1L232.688 1.83254M223.205 1L223.259 1.10259L223.313 1.20568L223.586 1.727L223.641 1.83254M223.205 1H214.303M214.303 1H205.402M214.303 1L214.594 1.83254M205.402 1H196.5M205.402 1L205.456 1.30909L205.547 1.83254M196.5 1H187.598M196.5 1V1.83254M187.598 1H178.697M187.598 1L187.544 1.30909L187.453 1.83254M178.697 1H169.795M178.697 1L178.406 1.83254M169.795 1L169.741 1.10259L169.687 1.20568L169.414 1.727L169.359 1.83254M169.795 1H160.894M160.894 1H151.992M160.894 1L160.386 1.727L160.312 1.83254M151.992 1H143.09M151.992 1L151.722 1.30909L151.631 1.41283L151.449 1.62179L151.357 1.727L151.265 1.83254M143.09 1H134.189M143.09 1L142.767 1.30909L142.439 1.62179L142.329 1.727L142.218 1.83254M134.189 1H125.287M134.189 1L133.171 1.83254M125.287 1H116.385M125.287 1L125 1.20568L124.124 1.83254M116.385 1H107.484M116.385 1L115.077 1.83254M107.484 1H98.5821M107.484 1L106.03 1.83254M98.5821 1H89.6804M98.5821 1L96.9829 1.83254M89.6804 1H80.7788M89.6804 1L87.9359 1.83254M80.7788 1H71.8772M80.7788 1L78.8889 1.83254M71.8772 1H62.9757M71.8772 1L69.8419 1.83254M62.9757 1H54.0739M62.9757 1L60.7949 1.83254M54.0739 1H45.1723M54.0739 1L51.7478 1.83254M45.1723 1H36.2707M45.1723 1L42.7008 1.83254M36.2707 1H27.369M36.2707 1L33.6538 1.83254M27.369 1H18.4674M27.369 1L24.607 1.83254M18.4674 1H9.56583M18.4674 1L15.5599 1.83254M9.56583 1L8.45498 1.00032L7.35558 1.00213L6.27909 1.0072L5.23636 1.01718L4.23884 1.03338L3.29717 1.05776L2.42261 1.09163L1.61084 1.13483L0.914256 1.19455L0.280067 1.26377L0.105768 1.28802V1.83254M9.56583 1L6.51292 1.83254M24.607 1.83254H33.6538M24.607 1.83254H15.5599M24.607 1.83254L21.7529 2.69257M33.6538 1.83254L30.9501 2.69257M33.6538 1.83254H42.7008M60.7949 1.83254H69.8419M60.7949 1.83254H51.7478M60.7949 1.83254L60.2386 2.04493L58.5418 2.69257M69.8419 1.83254L67.739 2.69257M69.8419 1.83254H78.8889M96.9829 1.83254H106.03M96.9829 1.83254H87.9359M96.9829 1.83254L96.575 2.04493L96.3696 2.15162L95.3306 2.69257M106.03 1.83254L105.845 1.93841L105.659 2.04493L104.528 2.69257M106.03 1.83254H115.077M133.171 1.83254L133.041 1.93841L132.12 2.69257M133.171 1.83254H142.218M133.171 1.83254H124.124M142.218 1.83254L141.995 2.04493L141.883 2.15162L141.771 2.25896L141.317 2.69257M142.218 1.83254H151.265M169.359 1.83254H178.406M169.359 1.83254H160.312M169.359 1.83254L168.908 2.69257M178.406 1.83254L178.369 1.93841L178.332 2.04493L178.294 2.15162L178.182 2.47478L178.106 2.69257M178.406 1.83254H187.453M205.547 1.83254H214.594M205.547 1.83254H196.5M205.547 1.83254L205.697 2.69257M214.594 1.83254L214.631 1.93841L214.668 2.04493L214.706 2.15162L214.894 2.69257M214.594 1.83254H223.641M241.735 1.83254H250.782M241.735 1.83254H232.688M241.735 1.83254L241.92 2.04493L242.296 2.47478L242.391 2.58343L242.486 2.69257M250.782 1.83254L251.005 2.04493L251.117 2.15162L251.229 2.25896L251.683 2.69257M250.782 1.83254H259.829M277.923 1.83254H286.97M277.923 1.83254H268.876M277.923 1.83254L278.257 2.04493L278.425 2.15162L279.275 2.69257M286.97 1.83254L287.155 1.93841L287.341 2.04493L288.472 2.69257M286.97 1.83254H296.017M314.111 1.83254H323.158M314.111 1.83254H305.064M314.111 1.83254L314.593 2.04493L314.836 2.15162L316.064 2.69257M323.158 1.83254L325.261 2.69257M323.158 1.83254H332.205M350.299 1.83254H359.346M350.299 1.83254H341.252M350.299 1.83254L352.853 2.69257M359.346 1.83254L362.05 2.69257M359.346 1.83254H368.393M0.0740585 9.61797H0.105768M9.18 9.61797L12.6341 8.51921M9.18 9.61797L5.59355 10.7588M9.18 9.61797H19.5866M9.18 9.61797H0.105768M12.6341 8.51921H2.41933M12.6341 8.51921L15.9632 7.46021M12.6341 8.51921H22.8488M2.41933 8.51921L5.93336 7.46021M2.41933 8.51921H0.105768M2.41933 8.51921L0.105768 9.21628M12.5928 5.45314H22.2721M12.5928 5.45314L15.751 4.50131M12.5928 5.45314H2.91359M12.5928 5.45314L9.32218 6.43884M22.2721 5.45314L25.2643 4.50131M22.2721 5.45314L19.1738 6.43884M22.2721 5.45314H31.9515M15.751 4.50131H25.2643M15.751 4.50131L18.8027 3.58172M15.751 4.50131H6.23797M25.2643 4.50131H34.7773M25.2643 4.50131L28.1552 3.58172M0.00613863 26.9609H0.105768M8.40322 26.9609L12.8573 25.1393M8.40322 26.9609L3.72781 28.8733M8.40322 26.9609H21.8388M8.40322 26.9609H0.105768M12.8573 25.1393L17.1053 23.4019M12.8573 25.1393H25.9746M12.8573 25.1393H0.105768M4.29142 23.4019H17.1053M4.29142 23.4019L8.63705 21.743M4.29142 23.4019H0.105768M4.29142 23.4019L0.105768 24.9996M12.7904 20.1574H25.0376M12.7904 20.1574L16.7641 18.6406M12.7904 20.1574H0.543154M12.7904 20.1574L8.63705 21.743M25.0376 20.1574L28.7466 18.6406M25.0376 20.1574L21.1611 21.743M25.0376 20.1574H37.285M16.7641 18.6406H28.7466M16.7641 18.6406H4.78179M16.7641 18.6406L20.5696 17.1879M28.7466 18.6406L32.2983 17.1879M28.7466 18.6406H40.7289M27.7168 14.4596H38.9689M27.7168 14.4596L31.0769 13.1769M27.7168 14.4596H16.4646M27.7168 14.4596L24.2173 15.7954M38.9689 14.4596L42.1051 13.1769M38.9689 14.4596L35.7028 15.7954M38.9689 14.4596H50.2213M31.0769 13.1769H42.1051M31.0769 13.1769H20.0488M31.0769 13.1769L34.306 11.9443M42.1051 13.1769L45.1189 11.9443M42.1051 13.1769H53.1334M40.3999 9.61797H50.8066M40.3999 9.61797L43.2783 8.51921M40.3999 9.61797H29.9933M40.3999 9.61797L37.4113 10.7588M50.8066 9.61797L53.4931 8.51921M50.8066 9.61797L48.0172 10.7588M50.8066 9.61797H61.2132M43.2783 8.51921H53.4931M43.2783 8.51921H33.0636M43.2783 8.51921L46.0526 7.46021M53.4931 8.51921L56.0824 7.46021M53.4931 8.51921H63.7078M51.31 5.45314H60.9894M51.31 5.45314L53.8034 4.50131M51.31 5.45314H41.6309M51.31 5.45314L48.7281 6.43884M60.9894 5.45314L63.3165 4.50131M60.9894 5.45314L58.5795 6.43884M60.9894 5.45314H70.6688M53.8034 4.50131H63.3165M53.8034 4.50131L56.2127 3.58172M53.8034 4.50131H44.2904M63.3165 4.50131H72.8297M63.3165 4.50131L65.5652 3.58172M6.98918 58.5435L13.2578 54.954M6.98918 58.5435L0.276181 62.3873M6.98918 58.5435H25.9402M6.98918 58.5435H0.105768M13.2578 54.954L19.1253 51.5944M13.2578 54.954H31.582M13.2578 54.954H0.105768M13.1306 45.4815H29.8006M13.1306 45.4815L18.4874 42.6931M13.1306 45.4815L7.4413 48.4432M13.1306 45.4815H0.105768M29.8006 45.4815L34.6703 42.6931M29.8006 45.4815L24.6285 48.4432M29.8006 45.4815H46.4706M18.4874 42.6931H34.6703M18.4874 42.6931H2.30457M18.4874 42.6931L23.5403 40.0628M34.6703 42.6931L39.2639 40.0628M34.6703 42.6931H50.8534M32.8314 35.2263H47.7105M32.8314 35.2263L37.1126 32.9978M32.8314 35.2263H17.9525M32.8314 35.2263L28.3141 37.578M47.7105 35.2263L51.6024 32.9978M47.7105 35.2263L43.6036 37.578M47.7105 35.2263H62.5894M37.1126 32.9978H51.6024M37.1126 32.9978H22.6228M37.1126 32.9978L41.1753 30.8829M51.6024 32.9978L55.2958 30.8829M51.6024 32.9978H66.092M48.7097 26.9609H62.1453M48.7097 26.9609L52.2094 25.1393M48.7097 26.9609H35.2742M48.7097 26.9609L45.0363 28.8733M62.1453 26.9609L65.3267 25.1393M62.1453 26.9609L58.8055 28.8733M62.1453 26.9609H75.5807M52.2094 25.1393H65.3267M52.2094 25.1393H39.0921M52.2094 25.1393L55.547 23.4019M65.3267 25.1393L68.3609 23.4019M65.3267 25.1393H78.4439M61.7797 20.1574H74.0269M61.7797 20.1574L64.6937 18.6406M61.7797 20.1574H49.5323M61.7797 20.1574L58.7337 21.743M74.0269 20.1574L76.6762 18.6406M74.0269 20.1574L71.258 21.743M74.0269 20.1574H86.2741M64.6937 18.6406H76.6762M64.6937 18.6406H52.7114M64.6937 18.6406L67.4843 17.1879M76.6762 18.6406L79.2132 17.1879M76.6762 18.6406H88.6585M72.7256 14.4596H83.9778M72.7256 14.4596L75.1897 13.1769M72.7256 14.4596H61.4734M72.7256 14.4596L70.1594 15.7954M83.9778 14.4596L84.2629 14.2964L86.2179 13.1769M83.9778 14.4596L81.645 15.7954M83.9778 14.4596H95.2301M75.1897 13.1769H86.2179M75.1897 13.1769H64.1616M75.1897 13.1769L77.5577 11.9443M86.2179 13.1769L88.3707 11.9443M86.2179 13.1769H97.2462M82.0265 9.61797H92.4333M82.0265 9.61797L84.1375 8.51921M82.0265 9.61797H71.6199M82.0265 9.61797L79.8349 10.7588M92.4333 9.61797L94.3523 8.51921M92.4333 9.61797L91.695 10.0408L90.4408 10.7588M92.4333 9.61797H102.84M84.1375 8.51921H94.3523M84.1375 8.51921H73.9228M84.1375 8.51921L86.1719 7.46021M94.3523 8.51921L96.2017 7.46021M94.3523 8.51921H104.567M90.0273 5.45314H99.7067M90.0273 5.45314L91.8558 4.50131M90.0273 5.45314H80.3482M90.0273 5.45314L88.134 6.43884M99.7067 5.45314L100.959 4.73629L101.164 4.61847L101.369 4.50131M99.7067 5.45314L97.9854 6.43884M99.7067 5.45314H109.386M91.8558 4.50131H101.369M91.8558 4.50131L93.6226 3.58172M91.8558 4.50131H82.3428M101.369 4.50131H110.882M101.369 4.50131L102.975 3.58172M13.8554 99.4329H39.9476M13.8554 99.4329L22.0712 92.7124M13.8554 99.4329L4.82741 106.818M13.8554 99.4329L0.105768 99.433M39.9476 99.4329L46.9898 92.7124M39.9476 99.4329L32.2093 106.818M39.9476 99.4329H66.0396M22.0712 92.7124H46.9898M22.0712 92.7124L29.5798 86.5704M22.0712 92.7124H0.105768M46.9898 92.7124L53.4256 86.5704M46.9898 92.7124H71.9081M42.8113 75.747H64.7669M42.8113 75.747L48.6704 70.9542M42.8113 75.747H20.8558M42.8113 75.747L36.4686 80.9354M64.7669 75.747L69.7889 70.9542M64.7669 75.747L59.3303 80.9354M64.7669 75.747H86.7224M48.6704 70.9542H69.7889M48.6704 70.9542H27.5519M48.6704 70.9542L54.0992 66.5135M69.7889 70.9542L74.4422 66.5135M69.7889 70.9542H90.9074M63.8424 58.5435H82.7935M63.8424 58.5435L68.2306 54.954M63.8424 58.5435H44.8912M63.8424 58.5435L59.1433 62.3873M82.7935 58.5435L86.5548 54.954M82.7935 58.5435L78.7657 62.3873M82.7935 58.5435H101.744M68.2306 54.954H86.5548M68.2306 54.954H49.9062M68.2306 54.954L72.3377 51.5944M86.5548 54.954L90.0752 51.5944M86.5548 54.954H104.879M79.8103 45.4815H96.4803M79.8103 45.4815L83.2194 42.6931M79.8103 45.4815H63.1405M79.8103 45.4815L76.1899 48.4432M96.4803 45.4815L99.4023 42.6931M96.4803 45.4815L93.3771 48.4432M96.4803 45.4815H113.15M83.2194 42.6931H99.4023M83.2194 42.6931H67.0363M83.2194 42.6931L86.4347 40.0628M99.4023 42.6931L102.158 40.0628M99.4023 42.6931H115.585M92.3472 35.2263H107.226M92.3472 35.2263L95.0716 32.9978M92.3472 35.2263H77.4683M92.3472 35.2263L89.4725 37.578M107.226 35.2263L109.561 32.9978M107.226 35.2263L104.762 37.578M107.226 35.2263H122.105M95.0716 32.9978H109.561M95.0716 32.9978H80.5818M95.0716 32.9978L97.657 30.8829M109.561 32.9978L111.777 30.8829M109.561 32.9978H124.051M102.452 26.9609H115.887M102.452 26.9609L104.679 25.1393M102.452 26.9609H89.0161M102.452 26.9609L100.114 28.8733M115.887 26.9609L117.796 25.1393M115.887 26.9609L113.883 28.8733M115.887 26.9609H129.323M104.679 25.1393H117.796M104.679 25.1393H91.5612M104.679 25.1393L106.803 23.4019M117.796 25.1393L119.617 23.4019M117.796 25.1393H130.913M110.769 20.1574H123.016M110.769 20.1574L112.623 18.6406M110.769 20.1574H98.5216M110.769 20.1574L108.831 21.743M123.016 20.1574L124.606 18.6406M123.016 20.1574L121.355 21.743M123.016 20.1574H135.263M112.623 18.6406H124.606M112.623 18.6406H100.641M112.623 18.6406L114.399 17.1879M124.606 18.6406L126.128 17.1879M124.606 18.6406H136.588M117.734 14.4596H128.987M117.734 14.4596L119.303 13.1769M117.734 14.4596H106.482M117.734 14.4596L116.101 15.7954M128.987 14.4596L128.815 14.6235L127.587 15.7954M128.987 14.4596L130.331 13.1769M128.987 14.4596H140.239M119.303 13.1769H130.331M119.303 13.1769H108.274M119.303 13.1769L120.809 11.9443M130.331 13.1769L131.622 11.9443M130.331 13.1769H141.359M123.653 9.61797H134.06M123.653 9.61797L124.997 8.51921M123.653 9.61797H113.247M123.653 9.61797L122.259 10.7588M134.06 9.61797L135.211 8.51921M134.06 9.61797L133.617 10.0408L133.318 10.326L132.865 10.7588M134.06 9.61797H144.467M124.997 8.51921H135.211M124.997 8.51921H114.782M124.997 8.51921L126.291 7.46021M135.211 8.51921L135.632 8.1175L135.91 7.85275L136.321 7.46021M135.211 8.51921H145.426M128.745 5.45314H138.424M128.745 5.45314L129.621 4.73629L129.908 4.50131M128.745 5.45314H119.065M128.745 5.45314L127.693 6.31367L127.54 6.43884M138.424 5.45314L139.175 4.73629L139.299 4.61847L139.421 4.50131M138.424 5.45314L137.912 5.94157L137.391 6.43884M138.424 5.45314H148.103M129.908 4.50131H139.421M129.908 4.50131L131.033 3.58172M129.908 4.50131H120.395M139.421 4.50131H148.935M139.421 4.50131L140.385 3.58172M118.224 99.4329H144.316M118.224 99.4329L121.745 92.7124M118.224 99.4329H92.1318M118.224 99.4329L114.355 106.818M144.316 99.4329L146.663 92.7124M144.316 99.4329L141.737 106.818M144.316 99.4329H170.408M121.745 92.7124H146.663M121.745 92.7124H96.8264M121.745 92.7124L124.963 86.5704M146.663 92.7124L148.809 86.5704M146.663 92.7124H171.582M130.633 75.747H152.589M130.633 75.747L133.144 70.9542M130.633 75.747H108.678M130.633 75.747L127.915 80.9354M152.589 75.747L154.263 70.9542M152.589 75.747L150.777 80.9354M152.589 75.747H174.545M133.144 70.9542H154.263M133.144 70.9542H112.026M133.144 70.9542L135.471 66.5135M154.263 70.9542L155.814 66.5135M154.263 70.9542H175.381M139.647 58.5435H158.598M139.647 58.5435L141.527 54.954M139.647 58.5435H120.696M139.647 58.5435L137.633 62.3873M158.598 58.5435L159.852 54.954M158.598 58.5435L157.255 62.3873M158.598 58.5435H177.549M141.527 54.954H159.852M141.527 54.954H123.203M141.527 54.954L143.288 51.5944M159.852 54.954L161.025 51.5944M159.852 54.954H178.176M146.49 45.4815H163.16M146.49 45.4815L147.951 42.6931M146.49 45.4815H129.82M146.49 45.4815L144.939 48.4432M163.16 45.4815L164.134 42.6931M163.16 45.4815L162.126 48.4432M163.16 45.4815H179.83M147.951 42.6931H164.134M147.951 42.6931H131.768M147.951 42.6931L149.329 40.0628M164.134 42.6931L165.053 40.0628M164.134 42.6931H180.317M151.863 35.2263H166.742M151.863 35.2263L153.031 32.9978M151.863 35.2263H136.984M151.863 35.2263L150.631 37.578M166.742 35.2263L167.52 32.9978M166.742 35.2263L165.921 37.578M166.742 35.2263H181.621M153.031 32.9978H167.52M153.031 32.9978H138.541M153.031 32.9978L154.139 30.8829M167.52 32.9978L168.259 30.8829M167.52 32.9978H182.01M156.194 26.9609H169.629M156.194 26.9609L157.148 25.1393M156.194 26.9609H142.758M156.194 26.9609L155.192 28.8733M169.629 26.9609L170.265 25.1393M169.629 26.9609L168.961 28.8733M169.629 26.9609H183.065M157.148 25.1393H170.265M157.148 25.1393H144.031M157.148 25.1393L157.494 24.4782L158.058 23.4019M170.265 25.1393L170.872 23.4019M170.265 25.1393H183.383M159.758 20.1574H172.005M159.758 20.1574L160.553 18.6406M159.758 20.1574H147.511M159.758 20.1574L159.139 21.34L158.927 21.743M172.005 20.1574L172.207 19.5808L172.535 18.6406M172.005 20.1574L171.452 21.743M172.005 20.1574H184.253M160.553 18.6406L160.65 18.4555L161.314 17.1879M160.553 18.6406H172.535M160.553 18.6406H148.57M172.535 18.6406L172.728 18.0885L172.792 17.9064L172.855 17.7254L173.043 17.1879M172.535 18.6406H184.518M162.743 14.4596H173.995M162.743 14.4596L163.083 13.8118L163.167 13.6519L163.25 13.4927L163.333 13.3345L163.415 13.1769M162.743 14.4596H151.491M162.743 14.4596L162.043 15.7954M173.995 14.4596L174.333 13.4927L174.389 13.3345L174.444 13.1769M173.995 14.4596L173.529 15.7954M173.995 14.4596H185.248M163.415 13.1769H174.444M163.415 13.1769H152.387M163.415 13.1769L163.822 12.4008L163.902 12.2478L164.061 11.9443M174.444 13.1769L174.715 12.4008L174.768 12.2478L174.821 12.0956L174.874 11.9443M174.444 13.1769H185.472M165.28 9.61797H175.687M165.28 9.61797L165.856 8.51921M165.28 9.61797H154.873M165.28 9.61797L165.133 9.89909L164.909 10.326L164.682 10.7588M175.687 9.61797L175.638 9.7582L175.339 10.6138L175.288 10.7588M175.687 9.61797L176.071 8.51921M175.687 9.61797H186.093M165.856 8.51921H176.071M165.856 8.51921H155.641M165.856 8.51921L166.411 7.46021M176.071 8.51921L176.211 8.1175L176.257 7.9848L176.303 7.85275L176.44 7.46021M176.071 8.51921H186.285M167.462 5.45314H177.141M167.462 5.45314L167.838 4.73629L167.961 4.50131M167.462 5.45314H157.783M167.462 5.45314L167.27 5.81869L167.206 5.94157L167.141 6.06511L166.946 6.43884M177.141 5.45314L177.184 5.33238L177.267 5.09234L177.351 4.85443L177.474 4.50131M177.141 5.45314L176.971 5.94157L176.928 6.06511L176.841 6.31367L176.797 6.43884M177.141 5.45314H186.821M167.961 4.50131H177.474M167.961 4.50131L168.383 3.69496L168.443 3.58172M167.961 4.50131H158.448M177.474 4.50131L177.515 4.38465L177.555 4.26847L177.596 4.15279L177.636 4.03759L177.755 3.69496L177.795 3.58172M177.474 4.50131H186.987M222.592 99.4329H248.684M222.592 99.4329L221.418 92.7124M222.592 99.4329H196.5M222.592 99.4329L223.882 106.818M248.684 99.4329L246.337 92.7124M248.684 99.4329L251.264 106.818M248.684 99.4329H274.776M221.418 92.7124H246.337M221.418 92.7124H196.5M221.418 92.7124L220.346 86.5704M246.337 92.7124L244.191 86.5704M246.337 92.7124H271.255M218.455 75.747H240.411M218.455 75.747L217.619 70.9542M218.455 75.747H196.5M218.455 75.747L219.362 80.9354M240.411 75.747L238.737 70.9542M240.411 75.747L242.223 80.9354M240.411 75.747H262.367M217.619 70.9542H238.737M217.619 70.9542H196.5M217.619 70.9542L216.843 66.5135M238.737 70.9542L237.186 66.5135M238.737 70.9542H259.856M215.451 58.5435H234.402M215.451 58.5435L214.824 54.954M215.451 58.5435H196.5M215.451 58.5435L216.122 62.3873M234.402 58.5435L233.148 54.954M234.402 58.5435L235.745 62.3873M234.402 58.5435H253.353M214.824 54.954H233.148M214.824 54.954H196.5M214.824 54.954L214.237 51.5944M233.148 54.954L231.975 51.5944M233.148 54.954H251.473M213.17 45.4815H229.84M213.17 45.4815L212.683 42.6931M213.17 45.4815H196.5M213.17 45.4815L213.687 48.4432M229.84 45.4815L228.866 42.6931M229.84 45.4815L230.874 48.4432M229.84 45.4815H246.51M212.683 42.6931H228.866M212.683 42.6931H196.5M212.683 42.6931L212.224 40.0628M228.866 42.6931L227.947 40.0628M228.866 42.6931H245.049M211.379 35.2263H226.258M211.379 35.2263L210.99 32.9978M211.379 35.2263H196.5M211.379 35.2263L211.79 37.578M226.258 35.2263L225.48 32.9978M226.258 35.2263L227.079 37.578M226.258 35.2263H241.137M210.99 32.9978H225.48M210.99 32.9978H196.5M210.99 32.9978L210.62 30.8829M225.48 32.9978L224.741 30.8829M225.48 32.9978H239.969M209.935 26.9609H223.371M209.935 26.9609L209.617 25.1393M209.935 26.9609H196.5M209.935 26.9609L210.269 28.8733M223.371 26.9609L222.735 25.1393M223.371 26.9609L224.039 28.8733M223.371 26.9609H236.806M209.617 25.1393H222.735M209.617 25.1393H196.5M209.617 25.1393L209.314 23.4019M222.735 25.1393L222.128 23.4019M222.735 25.1393H235.852M208.747 20.1574H220.995M208.747 20.1574L208.482 18.6406M208.747 20.1574H196.5M208.747 20.1574L209.024 21.743M220.995 20.1574L220.53 18.8266L220.465 18.6406M220.995 20.1574L221.548 21.743M220.995 20.1574H233.242M208.482 18.6406L208.45 18.4555L208.229 17.1879M208.482 18.6406H220.465M208.482 18.6406H196.5M220.465 18.6406L220.272 18.0885L220.208 17.9064L220.145 17.7254L219.957 17.1879M220.465 18.6406H232.447M207.752 14.4596H219.005M207.752 14.4596L207.528 13.1769M207.752 14.4596H196.5M207.752 14.4596L207.839 14.9541L207.868 15.1206L207.897 15.288L207.956 15.6254L207.986 15.7954M219.005 14.4596L218.667 13.4927L218.556 13.1769M219.005 14.4596L219.471 15.7954M219.005 14.4596H230.257M207.528 13.1769H218.556M207.528 13.1769H196.5M207.528 13.1769L207.313 11.9443M218.556 13.1769L218.285 12.4008L218.232 12.2478L218.179 12.0956L218.126 11.9443M218.556 13.1769H229.585M206.907 9.61797H217.313M206.907 9.61797L206.715 8.51921M206.907 9.61797H196.5M206.907 9.61797L207.106 10.7588M217.313 9.61797L217.362 9.7582L217.661 10.6138L217.712 10.7588M217.313 9.61797L216.93 8.51921M217.313 9.61797H227.72M206.715 8.51921H216.93M206.715 8.51921H196.5M206.715 8.51921L206.53 7.46021M216.93 8.51921L216.789 8.1175L216.743 7.9848L216.697 7.85275L216.56 7.46021M216.93 8.51921H227.144M206.179 5.45314H215.859M206.179 5.45314L206.013 4.50131M206.179 5.45314H196.5M206.179 5.45314L206.351 6.43884M215.859 5.45314L215.816 5.33238L215.733 5.09234L215.691 4.97305L215.608 4.73629L215.567 4.61847L215.526 4.50131M215.859 5.45314L216.029 5.94157L216.072 6.06511L216.159 6.31367L216.203 6.43884M215.859 5.45314H225.538M206.013 4.50131L205.993 4.38465L205.972 4.26847L205.952 4.15279L205.852 3.58172M206.013 4.50131H215.526M206.013 4.50131H196.5M215.526 4.50131H225.039M215.526 4.50131L215.445 4.26847L215.404 4.15279L215.364 4.03759L215.245 3.69496L215.205 3.58172M326.96 99.4329H353.052M326.96 99.4329L321.092 92.7124M326.96 99.4329H300.868M326.96 99.4329L333.409 106.818M353.052 99.4329L346.01 92.7124M353.052 99.4329L360.791 106.818M353.052 99.4329H379.145M321.092 92.7124H346.01M321.092 92.7124H296.174M321.092 92.7124L315.729 86.5704M346.01 92.7124L339.574 86.5704M346.01 92.7124H370.929M306.278 75.747H328.233M306.278 75.747L302.093 70.9542M306.278 75.747H284.322M306.278 75.747L310.808 80.9354M328.233 75.747L323.211 70.9542M328.233 75.747L333.67 80.9354M328.233 75.747H350.189M302.093 70.9542H323.211M302.093 70.9542H280.974M302.093 70.9542L298.215 66.5135M323.211 70.9542L318.558 66.5135M323.211 70.9542H344.33M291.256 58.5435H310.207M291.256 58.5435L288.121 54.954M291.256 58.5435H272.304M291.256 58.5435L294.612 62.3873M310.207 58.5435L306.445 54.954M310.207 58.5435L314.234 62.3873M310.207 58.5435H329.158M288.121 54.954H306.445M288.121 54.954H269.797M288.121 54.954L285.187 51.5944M306.445 54.954L302.925 51.5944M306.445 54.954H324.769M279.85 45.4815H296.52M279.85 45.4815L277.415 42.6931M279.85 45.4815H263.18M279.85 45.4815L282.436 48.4432M296.52 45.4815L293.598 42.6931M296.52 45.4815L299.623 48.4432M296.52 45.4815H313.19M277.415 42.6931H293.598M277.415 42.6931H261.232M277.415 42.6931L275.118 40.0628M293.598 42.6931L290.842 40.0628M293.598 42.6931H309.781M270.895 35.2263H285.774M270.895 35.2263L268.949 32.9978M270.895 35.2263H256.016M270.895 35.2263L272.948 37.578M285.774 35.2263L283.439 32.9978M285.774 35.2263L288.238 37.578M285.774 35.2263H300.653M268.949 32.9978H283.439M268.949 32.9978H254.459M268.949 32.9978L267.102 30.8829M283.439 32.9978L281.223 30.8829M283.439 32.9978H297.928M263.677 26.9609H277.113M263.677 26.9609L262.087 25.1393M263.677 26.9609H250.242M263.677 26.9609L265.347 28.8733M277.113 26.9609L275.204 25.1393M277.113 26.9609L279.117 28.8733M277.113 26.9609H290.548M262.087 25.1393H275.204M262.087 25.1393H248.969M262.087 25.1393L260.57 23.4019M275.204 25.1393L273.383 23.4019M275.204 25.1393H288.321M257.737 20.1574L257.906 20.3518L258.077 20.5472L259.121 21.743M257.737 20.1574H269.984M257.737 20.1574L256.412 18.6406M257.737 20.1574H245.489M269.984 20.1574L268.394 18.6406M269.984 20.1574L271.645 21.743M269.984 20.1574H282.231M256.412 18.6406H268.394M256.412 18.6406H244.43M256.412 18.6406L255.144 17.1879M268.394 18.6406L266.872 17.1879M268.394 18.6406H280.377M252.761 14.4596H264.013M252.761 14.4596L251.641 13.1769M252.761 14.4596H241.509M252.761 14.4596L253.928 15.7954M264.013 14.4596L263.167 13.6519L262.669 13.1769M264.013 14.4596L265.413 15.7954M264.013 14.4596H275.266M251.641 13.1769H262.669M251.641 13.1769H240.613M251.641 13.1769L250.697 12.0956L250.565 11.9443M262.669 13.1769L261.378 11.9443M262.669 13.1769H273.697M248.533 9.61797H258.94M248.533 9.61797L248.29 9.33932L247.574 8.51921M248.533 9.61797H238.127M248.533 9.61797L248.779 9.89909L249.277 10.4695L249.529 10.7588M258.94 9.61797L257.789 8.51921M258.94 9.61797L259.383 10.0408L259.682 10.326L260.135 10.7588M258.94 9.61797H269.347M247.574 8.51921H257.789M247.574 8.51921H237.359M247.574 8.51921L246.877 7.72119L246.649 7.46021M257.789 8.51921L257.368 8.1175L257.09 7.85275L256.679 7.46021M257.789 8.51921H268.003M244.897 5.45314H254.576M244.897 5.45314L244.374 4.85443L244.065 4.50131M244.897 5.45314H235.217M244.897 5.45314L245.757 6.43884M254.576 5.45314L253.825 4.73629L253.701 4.61847L253.578 4.50131M254.576 5.45314L255.088 5.94157L255.609 6.43884M254.576 5.45314H264.255M244.065 4.50131H253.578M244.065 4.50131L243.661 4.03759L243.461 3.80868L243.361 3.69496L243.262 3.58172M244.065 4.50131H234.552M253.578 4.50131H263.092M253.578 4.50131L252.615 3.58172M386.567 70.9542H365.448M386.567 70.9542L379.587 66.5135M386.567 70.9542H392.894M386.567 70.9542L392.894 74.98M367.06 58.5435H386.011M367.06 58.5435L361.418 54.954M367.06 58.5435H348.109M367.06 58.5435L373.101 62.3873M386.011 58.5435L379.742 54.954M386.011 58.5435L392.724 62.3873M386.011 58.5435H392.894M361.418 54.954H379.742M361.418 54.954H343.094M361.418 54.954L356.137 51.5944M379.742 54.954L373.875 51.5944M379.742 54.954H392.894M346.529 45.4815H363.199M346.529 45.4815L342.147 42.6931M346.529 45.4815H329.859M346.529 45.4815L351.184 48.4432M363.199 45.4815L358.33 42.6931M363.199 45.4815L368.372 48.4432M363.199 45.4815H379.869M342.147 42.6931H358.33M342.147 42.6931H325.964M342.147 42.6931L338.012 40.0628M358.33 42.6931L353.736 40.0628M358.33 42.6931H374.513M330.411 35.2263H345.289M330.411 35.2263L326.908 32.9978M330.411 35.2263H315.532M330.411 35.2263L334.107 37.578M345.289 35.2263L341.398 32.9978M345.289 35.2263L349.396 37.578M345.289 35.2263H360.169M326.908 32.9978H341.398M326.908 32.9978H312.418M326.908 32.9978L323.584 30.8829M341.398 32.9978L337.704 30.8829M341.398 32.9978H355.887M317.419 26.9609H330.855M317.419 26.9609L314.556 25.1393M317.419 26.9609H303.984M317.419 26.9609L320.425 28.8733M330.855 26.9609L327.673 25.1393M330.855 26.9609L334.194 28.8733M330.855 26.9609H344.29M314.556 25.1393H327.673M314.556 25.1393H301.439M314.556 25.1393L311.825 23.4019M327.673 25.1393L324.639 23.4019M327.673 25.1393H340.791M306.726 20.1574H318.973M306.726 20.1574L304.341 18.6406M306.726 20.1574H294.478M306.726 20.1574L309.218 21.743M318.973 20.1574L316.324 18.6406M318.973 20.1574L321.742 21.743M318.973 20.1574H331.22M304.341 18.6406H316.324M304.341 18.6406H292.359M304.341 18.6406L302.058 17.1879M316.324 18.6406L313.787 17.1879M316.324 18.6406H328.306M297.77 14.4596H309.022M297.77 14.4596L295.754 13.1769M297.77 14.4596H286.518M297.77 14.4596L299.87 15.7954M309.022 14.4596L306.782 13.1769M309.022 14.4596L311.355 15.7954M309.022 14.4596H320.274M295.754 13.1769H306.782M295.754 13.1769H284.726M295.754 13.1769L293.816 11.9443M306.782 13.1769L304.629 11.9443M306.782 13.1769H317.81M290.16 9.61797H300.567M290.16 9.61797L288.433 8.51921M290.16 9.61797H279.753M290.16 9.61797L290.602 9.89909L290.824 10.0408L291.953 10.7588M300.567 9.61797L298.648 8.51921M300.567 9.61797L302.559 10.7588M300.567 9.61797H310.973M288.433 8.51921H298.648M288.433 8.51921H278.218M288.433 8.51921L286.769 7.46021M298.648 8.51921L296.798 7.46021M298.648 8.51921H308.862M283.614 5.45314H293.293M283.614 5.45314L282.118 4.50131M283.614 5.45314H273.935M283.614 5.45314L285.163 6.43884M293.293 5.45314L292.041 4.73629L291.836 4.61847L291.631 4.50131M293.293 5.45314L295.015 6.43884M293.293 5.45314H302.972M282.118 4.50131H291.631M282.118 4.50131L280.851 3.69496L280.672 3.58172M282.118 4.50131H272.605M291.631 4.50131H301.144M291.631 4.50131L290.025 3.58172M389.926 35.2263L384.867 32.9978M389.926 35.2263H375.048M389.926 35.2263L392.894 36.5335M389.926 35.2263H392.894M384.867 32.9978H370.377M384.867 32.9978L380.066 30.8829M384.867 32.9978H392.894M371.161 26.9609H384.597M371.161 26.9609L367.025 25.1393M371.161 26.9609H357.726M371.161 26.9609L375.503 28.8733M384.597 26.9609L380.143 25.1393M384.597 26.9609L389.272 28.8733M384.597 26.9609H392.894M367.025 25.1393H380.143M367.025 25.1393H353.908M367.025 25.1393L363.081 23.4019M380.143 25.1393L375.895 23.4019M380.143 25.1393H392.894M355.715 20.1574H367.962M355.715 20.1574L352.271 18.6406M355.715 20.1574H343.468M355.715 20.1574L359.315 21.743M367.962 20.1574L364.253 18.6406M367.962 20.1574L371.839 21.743M367.962 20.1574H380.21M352.271 18.6406H364.253M352.271 18.6406H340.289M352.271 18.6406L348.973 17.1879M364.253 18.6406L360.702 17.1879M364.253 18.6406H376.236M342.779 14.4596H354.031M342.779 14.4596L339.867 13.1769M342.779 14.4596H331.527M342.779 14.4596L345.812 15.7954M354.031 14.4596L350.895 13.1769M354.031 14.4596L357.297 15.7954M354.031 14.4596H365.283M339.867 13.1769H350.895M339.867 13.1769H328.838M339.867 13.1769L337.068 11.9443M350.895 13.1769L347.881 11.9443M350.895 13.1769H361.923M331.787 9.61797H342.193M331.787 9.61797L329.292 8.51921M331.787 9.61797H321.38M331.787 9.61797L334.377 10.7588M342.193 9.61797L339.507 8.51921M342.193 9.61797L344.983 10.7588M342.193 9.61797H352.6M329.292 8.51921H339.507M329.292 8.51921H319.077M329.292 8.51921L326.888 7.46021M339.507 8.51921L336.918 7.46021M339.507 8.51921H349.722M322.331 5.45314H332.011M322.331 5.45314L320.17 4.50131M322.331 5.45314H312.652M322.331 5.45314L324.569 6.43884M332.011 5.45314L329.683 4.50131M332.011 5.45314L334.42 6.43884M332.011 5.45314H341.69M320.17 4.50131H329.683M320.17 4.50131L318.082 3.58172M320.17 4.50131H310.657M329.683 4.50131H339.197M329.683 4.50131L327.435 3.58172M387.788 14.4596L383.979 13.1769M387.788 14.4596H376.535M387.788 14.4596L391.754 15.7954M387.788 14.4596H392.894M383.979 13.1769H372.951M383.979 13.1769L380.32 11.9443M383.979 13.1769H392.894M373.413 9.61797H383.82M373.413 9.61797L370.151 8.51921M373.413 9.61797H363.007M373.413 9.61797L376.801 10.7588M383.82 9.61797L380.366 8.51921M383.82 9.61797L387.406 10.7588M383.82 9.61797H392.894M370.151 8.51921H380.366M370.151 8.51921H359.936M370.151 8.51921L367.007 7.46021M380.366 8.51921L377.037 7.46021M380.366 8.51921H390.581M361.048 5.45314H370.728M361.048 5.45314L358.223 4.50131M361.048 5.45314H351.369M361.048 5.45314L363.975 6.43884M370.728 5.45314L367.736 4.50131M370.728 5.45314L373.826 6.43884M370.728 5.45314H380.407M358.223 4.50131H367.736M358.223 4.50131L355.492 3.58172M358.223 4.50131H348.71M367.736 4.50131H377.249M367.736 4.50131L364.845 3.58172M373.826 6.43884L377.037 7.46021M373.826 6.43884H383.678M373.826 6.43884H363.975M380.407 5.45314L377.249 4.50131M380.407 5.45314L383.678 6.43884M380.407 5.45314H390.086M377.249 4.50131H386.762M377.249 4.50131L374.197 3.58172M364.845 3.58172H355.492M364.845 3.58172H374.197M364.845 3.58172L362.05 2.69257M383.678 6.43884L387.067 7.46021M383.678 6.43884H392.894M390.086 5.45314L386.762 4.50131M390.086 5.45314L392.894 6.25697M390.086 5.45314H392.894M386.762 4.50131L383.55 3.58172M386.762 4.50131H392.894M374.197 3.58172H383.55M374.197 3.58172L371.247 2.69257M383.55 3.58172L380.444 2.69257M383.55 3.58172H392.894M377.037 7.46021H387.067M377.037 7.46021H367.007M390.581 8.51921L387.067 7.46021M390.581 8.51921L392.894 9.21629M390.581 8.51921H392.894M387.067 7.46021H392.894M367.007 7.46021H356.977M367.007 7.46021L363.975 6.43884M363.975 6.43884H354.123M387.406 10.7588L391.133 11.9443M387.406 10.7588H376.801M387.406 10.7588H392.894M392.926 9.61797H392.894M391.133 11.9443H380.32M391.133 11.9443L392.894 12.5045M391.133 11.9443H392.894M380.32 11.9443H369.507M380.32 11.9443L376.801 10.7588M376.801 10.7588H366.195M334.42 6.43884L336.918 7.46021M334.42 6.43884H344.272M334.42 6.43884H324.569M341.69 5.45314L339.197 4.50131M341.69 5.45314L344.272 6.43884M341.69 5.45314H351.369M339.197 4.50131H348.71M339.197 4.50131L336.787 3.58172M327.435 3.58172H336.787M327.435 3.58172L325.261 2.69257M327.435 3.58172H318.082M344.272 6.43884L346.947 7.46021M344.272 6.43884H354.123M351.369 5.45314L348.71 4.50131M351.369 5.45314L354.123 6.43884M348.71 4.50131L346.14 3.58172M336.787 3.58172H346.14M336.787 3.58172L334.458 2.69257M354.123 6.43884L356.977 7.46021M355.492 3.58172H346.14M355.492 3.58172L352.853 2.69257M346.14 3.58172L343.655 2.69257M336.918 7.46021H346.947M336.918 7.46021H326.888M349.722 8.51921L346.947 7.46021M349.722 8.51921L352.6 9.61797M349.722 8.51921H359.936M346.947 7.46021H356.977M326.888 7.46021H316.858M326.888 7.46021L324.569 6.43884M356.977 7.46021L359.936 8.51921M324.569 6.43884H314.717M352.6 9.61797L355.589 10.7588M352.6 9.61797H363.007M359.936 8.51921L363.007 9.61797M363.007 9.61797L366.195 10.7588M344.983 10.7588L347.881 11.9443M344.983 10.7588H355.589M344.983 10.7588H334.377M355.589 10.7588L358.694 11.9443M355.589 10.7588H366.195M366.195 10.7588L369.507 11.9443M347.881 11.9443H358.694M347.881 11.9443H337.068M361.923 13.1769L358.694 11.9443M361.923 13.1769L365.283 14.4596M361.923 13.1769H372.951M358.694 11.9443H369.507M337.068 11.9443H326.255M337.068 11.9443L334.377 10.7588M369.507 11.9443L372.951 13.1769M334.377 10.7588H323.771M365.283 14.4596L368.783 15.7954M365.283 14.4596H376.535M372.951 13.1769L376.535 14.4596M376.535 14.4596L380.268 15.7954M357.297 15.7954L360.702 17.1879M357.297 15.7954H368.783M357.297 15.7954H345.812M368.783 15.7954L372.43 17.1879M368.783 15.7954H380.268M380.268 15.7954L384.159 17.1879M380.268 15.7954H391.754M391.754 15.7954H392.894M391.754 15.7954L392.894 16.1795M360.702 17.1879H372.43M360.702 17.1879H348.973M376.236 18.6406L372.43 17.1879M376.236 18.6406L380.21 20.1574M376.236 18.6406H388.218M372.43 17.1879H384.159M348.973 17.1879H337.244M348.973 17.1879L345.812 15.7954M384.159 17.1879L388.218 18.6406M384.159 17.1879H392.894M345.812 15.7954H334.326M380.21 20.1574L384.363 21.743M380.21 20.1574H392.457M388.218 18.6406L392.457 20.1574M388.218 18.6406H392.894M392.956 17.1879H392.894M392.457 20.1574L392.894 20.314M392.457 20.1574H392.894M371.839 21.743L375.895 23.4019M371.839 21.743H384.363M371.839 21.743H359.315M384.363 21.743L388.709 23.4019M384.363 21.743H392.894M393 20.3518L392.894 20.314M375.895 23.4019H388.709M375.895 23.4019H363.081M388.709 23.4019H392.894M388.709 23.4019L392.894 24.9996M363.081 23.4019H350.267M363.081 23.4019L359.315 21.743M359.315 21.743H346.79M389.272 28.8733H375.503M389.272 28.8733L392.894 30.3546M389.272 28.8733H392.894M392.994 26.9609H392.894M375.503 28.8733H361.733M375.503 28.8733L380.066 30.8829M392.934 30.3709L392.894 30.3546M295.015 6.43884L296.798 7.46021M295.015 6.43884H304.866M295.015 6.43884H285.163M302.972 5.45314L301.144 4.50131M302.972 5.45314L304.866 6.43884M302.972 5.45314H312.652M301.144 4.50131H310.657M301.144 4.50131L299.377 3.58172M290.025 3.58172H299.377M290.025 3.58172L289.436 3.24482L288.472 2.69257M290.025 3.58172H280.672M304.866 6.43884L306.828 7.46021M304.866 6.43884H314.717M312.652 5.45314L310.657 4.50131M312.652 5.45314L314.717 6.43884M310.657 4.50131L308.73 3.58172M299.377 3.58172H308.73M299.377 3.58172L297.669 2.69257M314.717 6.43884L316.858 7.46021M318.082 3.58172L316.064 2.69257M318.082 3.58172H308.73M308.73 3.58172L308.494 3.46882L308.024 3.24482L306.867 2.69257M296.798 7.46021H306.828M296.798 7.46021H286.769M308.862 8.51921L306.828 7.46021M308.862 8.51921L310.973 9.61797M308.862 8.51921H319.077M306.828 7.46021H316.858M286.769 7.46021H276.739M286.769 7.46021L285.163 6.43884M316.858 7.46021L319.077 8.51921M285.163 6.43884H275.312M310.973 9.61797L313.165 10.7588M310.973 9.61797H321.38M319.077 8.51921L319.361 8.6542L321.38 9.61797M321.38 9.61797L323.771 10.7588M302.559 10.7588L302.814 10.9046L304.629 11.9443M302.559 10.7588H313.165M302.559 10.7588H291.953M313.165 10.7588L315.442 11.9443M313.165 10.7588H323.771M323.771 10.7588L326.255 11.9443M304.629 11.9443H315.442M304.629 11.9443H293.816M317.81 13.1769L315.442 11.9443M317.81 13.1769L320.274 14.4596M317.81 13.1769H328.838M315.442 11.9443H326.255M293.816 11.9443H283.003M293.816 11.9443L291.953 10.7588M326.255 11.9443L328.838 13.1769M291.953 10.7588H281.347M320.274 14.4596L322.841 15.7954M320.274 14.4596H331.527M328.838 13.1769L331.527 14.4596M331.527 14.4596L334.326 15.7954M311.355 15.7954L313.787 17.1879M311.355 15.7954H322.841M311.355 15.7954H299.87M322.841 15.7954L325.516 17.1879M322.841 15.7954H334.326M334.326 15.7954L337.244 17.1879M313.787 17.1879H325.516M313.787 17.1879H302.058M328.306 18.6406L325.516 17.1879M328.306 18.6406L331.22 20.1574M328.306 18.6406H340.289M325.516 17.1879H337.244M302.058 17.1879H290.33M302.058 17.1879L299.87 15.7954M337.244 17.1879L340.289 18.6406M299.87 15.7954H288.384M331.22 20.1574L334.266 21.743M331.22 20.1574H343.468M340.289 18.6406L343.468 20.1574M343.468 20.1574L346.79 21.743M321.742 21.743L324.639 23.4019M321.742 21.743H334.266M321.742 21.743H309.218M334.266 21.743L337.453 23.4019M334.266 21.743H346.79M346.79 21.743L350.267 23.4019M324.639 23.4019H337.453M324.639 23.4019H311.825M340.791 25.1393L337.453 23.4019M340.791 25.1393L344.29 26.9609M340.791 25.1393H353.908M337.453 23.4019H350.267M311.825 23.4019H299.011M311.825 23.4019L309.218 21.743M350.267 23.4019L353.908 25.1393M309.218 21.743H296.694M344.29 26.9609L347.964 28.8733M344.29 26.9609H357.726M353.908 25.1393L357.726 26.9609M357.726 26.9609L361.733 28.8733M334.194 28.8733L337.704 30.8829M334.194 28.8733H347.964M334.194 28.8733H320.425M347.964 28.8733L351.825 30.8829M347.964 28.8733H361.733M361.733 28.8733L365.945 30.8829M337.704 30.8829H351.825M337.704 30.8829H323.584M355.887 32.9978L351.825 30.8829M355.887 32.9978L360.169 35.2263M355.887 32.9978H370.377M351.825 30.8829H365.945M323.584 30.8829H309.463M323.584 30.8829L320.425 28.8733M365.945 30.8829L370.377 32.9978M365.945 30.8829H380.066M320.425 28.8733H306.655M360.169 35.2263L364.686 37.578M360.169 35.2263H375.048M370.377 32.9978L375.048 35.2263M380.066 30.8829H392.894M375.048 35.2263L379.976 37.578M349.396 37.578L353.736 40.0628M349.396 37.578H364.686M349.396 37.578H334.107M364.686 37.578L369.46 40.0628M364.686 37.578H379.976M379.976 37.578L385.183 40.0628M379.976 37.578H392.894M353.736 40.0628H369.46M353.736 40.0628H338.012M374.513 42.6931L369.46 40.0628M374.513 42.6931L379.869 45.4815M374.513 42.6931H390.695M369.46 40.0628H385.183M338.012 40.0628H322.289M338.012 40.0628L334.107 37.578M385.183 40.0628L390.695 42.6931M385.183 40.0628H392.894M334.107 37.578H318.817M379.869 45.4815L385.559 48.4432M379.869 45.4815H392.894M390.695 42.6931H392.894M390.695 42.6931L392.894 43.7423M368.372 48.4432L373.875 51.5944M368.372 48.4432H385.559M368.372 48.4432H351.184M385.559 48.4432L391.612 51.5944M385.559 48.4432H392.894M373.875 51.5944H391.612M373.875 51.5944H356.137M391.612 51.5944L392.894 52.2617M391.612 51.5944H392.894M356.137 51.5944H338.4M356.137 51.5944L351.184 48.4432M351.184 48.4432H333.997M392.724 62.3873H373.101M392.724 62.3873H392.894M392.724 62.3873L392.894 62.4849M373.101 62.3873H353.479M373.101 62.3873L379.587 66.5135M255.609 6.43884L256.006 6.81747L256.139 6.94494L256.679 7.46021M255.609 6.43884H265.46M255.609 6.43884H245.757M264.255 5.45314L263.379 4.73629L263.092 4.50131M264.255 5.45314L265.307 6.31367L265.46 6.43884M264.255 5.45314H273.935M263.092 4.50131H272.605M263.092 4.50131L261.967 3.58172M252.615 3.58172H261.967M252.615 3.58172L252.262 3.24482L251.683 2.69257M252.615 3.58172H243.262M265.46 6.43884L265.768 6.69066L266.709 7.46021M265.46 6.43884H275.312M273.935 5.45314L272.605 4.50131M273.935 5.45314L275.312 6.43884M272.605 4.50131L271.637 3.80868L271.32 3.58172M261.967 3.58172H271.32M261.967 3.58172L260.88 2.69257M275.312 6.43884L276.739 7.46021M280.672 3.58172L280.495 3.46882L279.275 2.69257M280.672 3.58172H271.32M271.32 3.58172L270.849 3.24482L270.078 2.69257M256.679 7.46021H266.709M256.679 7.46021H246.649M268.003 8.51921L266.709 7.46021M268.003 8.51921L269.347 9.61797M268.003 8.51921H278.218M266.709 7.46021H276.739M246.649 7.46021H236.619M246.649 7.46021L245.757 6.43884M276.739 7.46021L278.218 8.51921M245.757 6.43884H235.906M269.347 9.61797L270.212 10.326L270.388 10.4695L270.741 10.7588M269.347 9.61797H279.753M278.218 8.51921L279.753 9.61797M279.753 9.61797L281.347 10.7588M260.135 10.7588L261.378 11.9443M260.135 10.7588H270.741M260.135 10.7588H249.529M270.741 10.7588L272.191 11.9443M270.741 10.7588H281.347M281.347 10.7588L283.003 11.9443M261.378 11.9443H272.191M261.378 11.9443H250.565M273.697 13.1769L272.749 12.4008L272.562 12.2478L272.191 11.9443M273.697 13.1769L275.266 14.4596M273.697 13.1769H284.726M272.191 11.9443H283.003M250.565 11.9443H239.752M250.565 11.9443L249.529 10.7588M283.003 11.9443L284.726 13.1769M249.529 10.7588H238.924M275.266 14.4596L276.899 15.7954M275.266 14.4596H286.518M284.726 13.1769L286.518 14.4596M286.518 14.4596L288.384 15.7954M265.413 15.7954L266.135 16.4843L266.318 16.6589L266.872 17.1879M265.413 15.7954H276.899M265.413 15.7954H253.928M276.899 15.7954L278.601 17.1879M276.899 15.7954H288.384M288.384 15.7954L290.33 17.1879M266.872 17.1879H278.601M266.872 17.1879H255.144M280.377 18.6406L278.601 17.1879M280.377 18.6406L282.231 20.1574M280.377 18.6406H292.359M278.601 17.1879H290.33M255.144 17.1879H243.415M255.144 17.1879L254.835 16.8343L253.928 15.7954M290.33 17.1879L292.359 18.6406M253.928 15.7954H242.442M282.231 20.1574L284.169 21.743M282.231 20.1574H294.478M292.359 18.6406L294.478 20.1574M294.478 20.1574L296.694 21.743M271.645 21.743L273.383 23.4019M271.645 21.743H284.169M271.645 21.743H259.121M284.169 21.743L286.197 23.4019M284.169 21.743H296.694M296.694 21.743L299.011 23.4019M273.383 23.4019H286.197M273.383 23.4019H260.57M288.321 25.1393L286.197 23.4019M288.321 25.1393L290.548 26.9609M288.321 25.1393H301.439M286.197 23.4019H299.011M260.57 23.4019H247.756M260.57 23.4019L259.121 21.743M299.011 23.4019L301.439 25.1393M259.121 21.743H246.597M290.548 26.9609L292.886 28.8733M290.548 26.9609H303.984M301.439 25.1393L303.984 26.9609M303.984 26.9609L306.655 28.8733M279.117 28.8733L281.223 30.8829M279.117 28.8733H292.886M279.117 28.8733H265.347M292.886 28.8733L295.343 30.8829M292.886 28.8733H306.655M306.655 28.8733L309.463 30.8829M281.223 30.8829H295.343M281.223 30.8829H267.102M297.928 32.9978L295.343 30.8829M297.928 32.9978L300.653 35.2263M297.928 32.9978H312.418M295.343 30.8829H309.463M267.102 30.8829H252.982M267.102 30.8829L265.347 28.8733M309.463 30.8829L312.418 32.9978M265.347 28.8733H251.578M300.653 35.2263L303.527 37.578M300.653 35.2263H315.532M312.418 32.9978L315.532 35.2263M315.532 35.2263L318.817 37.578M288.238 37.578L290.842 40.0628M288.238 37.578H303.527M288.238 37.578H272.948M303.527 37.578L306.565 40.0628M303.527 37.578H318.817M318.817 37.578L322.289 40.0628M290.842 40.0628H306.565M290.842 40.0628H275.118M309.781 42.6931L306.565 40.0628M309.781 42.6931L313.19 45.4815M309.781 42.6931H325.964M306.565 40.0628H322.289M275.118 40.0628H259.394M275.118 40.0628L272.948 37.578M322.289 40.0628L325.964 42.6931M272.948 37.578H257.659M313.19 45.4815L316.81 48.4432M313.19 45.4815H329.859M325.964 42.6931L329.859 45.4815M329.859 45.4815L333.997 48.4432M299.623 48.4432L302.925 51.5944M299.623 48.4432H316.81M299.623 48.4432H282.436M316.81 48.4432L320.662 51.5944M316.81 48.4432H333.997M333.997 48.4432L338.4 51.5944M302.925 51.5944H320.662M302.925 51.5944H285.187M324.769 54.954L320.662 51.5944M324.769 54.954L329.158 58.5435M324.769 54.954H343.094M320.662 51.5944H338.4M285.187 51.5944H267.45M285.187 51.5944L282.436 48.4432M338.4 51.5944L343.094 54.954M282.436 48.4432H265.249M329.158 58.5435L333.857 62.3873M329.158 58.5435H348.109M343.094 54.954L348.109 58.5435M348.109 58.5435L353.479 62.3873M314.234 62.3873L318.558 66.5135M314.234 62.3873H333.857M314.234 62.3873H294.612M333.857 62.3873L338.901 66.5135M333.857 62.3873H353.479M353.479 62.3873L359.244 66.5135M318.558 66.5135H338.901M318.558 66.5135H298.215M344.33 70.9542L338.901 66.5135M344.33 70.9542L350.189 75.747M344.33 70.9542H365.448M338.901 66.5135H359.244M298.215 66.5135H277.872M298.215 66.5135L294.612 62.3873M359.244 66.5135L365.448 70.9542M359.244 66.5135H379.587M294.612 62.3873H274.99M350.189 75.747L356.531 80.9354M350.189 75.747H372.144M365.448 70.9542L372.144 75.747M379.587 66.5135H392.894M372.144 75.747L379.393 80.9354M372.144 75.747H392.894M333.67 80.9354L339.574 86.5704M333.67 80.9354H356.531M333.67 80.9354H310.808M356.531 80.9354L363.42 86.5704M356.531 80.9354H379.393M379.393 80.9354L387.266 86.5704M379.393 80.9354H392.894M339.574 86.5704H363.42M339.574 86.5704H315.729M370.929 92.7124L363.42 86.5704M370.929 92.7124L379.145 99.4329M370.929 92.7124H392.894M363.42 86.5704H387.266M315.729 86.5704H291.883M315.729 86.5704L310.808 80.9354M387.266 86.5704H392.894M387.266 86.5704L392.894 90.5989M310.808 80.9354H287.946M379.145 99.4329L388.173 106.818M379.145 99.4329H392.894M360.791 106.818L369.334 114.971M360.791 106.818H388.173M360.791 106.818H333.409M388.173 106.818L392.894 110.68M388.173 106.818H392.894M369.334 114.971H340.528M369.334 114.971L392.894 114.971M340.528 114.971H311.723M340.528 114.971L333.409 106.818M333.409 106.818H306.027M216.203 6.43884L216.247 6.56451L216.291 6.69066L216.335 6.81747L216.38 6.94494L216.514 7.33045L216.56 7.46021M216.203 6.43884H226.054M216.203 6.43884H206.351M225.538 5.45314L225.162 4.73629L225.039 4.50131M225.538 5.45314L225.859 6.06511L226.054 6.43884M225.538 5.45314H235.217M225.039 4.50131H234.552M225.039 4.50131L224.676 3.80868L224.557 3.58172M215.205 3.58172L215.166 3.46882L215.01 3.02244L214.894 2.69257M215.205 3.58172H224.557M215.205 3.58172H205.852M226.054 6.43884L226.12 6.56451L226.186 6.69066L226.253 6.81747L226.32 6.94494L226.589 7.46021M226.054 6.43884H235.906M235.217 5.45314L234.716 4.73629L234.552 4.50131M235.217 5.45314L235.906 6.43884M234.552 4.50131L234.228 4.03759L233.989 3.69496L233.91 3.58172M224.557 3.58172L224.498 3.46882L224.381 3.24482L224.264 3.02244L224.207 2.912L224.092 2.69257M224.557 3.58172H233.91M235.906 6.43884L236.439 7.20135L236.619 7.46021M243.262 3.58172L242.678 2.912L242.486 2.69257M243.262 3.58172H233.91M233.91 3.58172L233.365 2.80204L233.289 2.69257M216.56 7.46021H226.589M216.56 7.46021H206.53M227.144 8.51921L226.589 7.46021M227.144 8.51921L227.72 9.61797M227.144 8.51921H237.359M226.589 7.46021H236.619M206.53 7.46021H196.5M206.53 7.46021L206.351 6.43884M236.619 7.46021L237.359 8.51921M206.351 6.43884H196.5M227.72 9.61797L227.867 9.89909L228.091 10.326L228.318 10.7588M227.72 9.61797H238.127M237.359 8.51921L237.454 8.6542L238.127 9.61797M238.127 9.61797L238.225 9.7582L238.323 9.89909L238.422 10.0408L238.924 10.7588M217.712 10.7588L218.126 11.9443M217.712 10.7588H228.318M217.712 10.7588H207.106M228.318 10.7588L228.939 11.9443M228.318 10.7588H238.924M238.924 10.7588L239.542 11.6435L239.647 11.7936L239.752 11.9443M218.126 11.9443H228.939M218.126 11.9443H207.313M229.585 13.1769L229.667 13.3345L229.75 13.4927L229.833 13.6519L230.257 14.4596M229.585 13.1769L229.259 12.5544L229.178 12.4008L229.098 12.2478L228.939 11.9443M229.585 13.1769H240.613M228.939 11.9443H239.752M207.313 11.9443H196.5M207.313 11.9443L207.106 10.7588M239.752 11.9443L240.613 13.1769M207.106 10.7588H196.5M230.257 14.4596L230.868 15.6254L230.957 15.7954M230.257 14.4596H241.509M240.613 13.1769L240.834 13.4927L241.509 14.4596M241.509 14.4596L241.854 14.9541L242.442 15.7954M219.471 15.7954L219.712 16.4843L219.773 16.6589L219.957 17.1879M219.471 15.7954H230.957M219.471 15.7954H207.986M230.957 15.7954L231.686 17.1879M230.957 15.7954H242.442M242.442 15.7954L243.415 17.1879M219.957 17.1879H231.686M219.957 17.1879H208.229M232.447 18.6406L231.686 17.1879M232.447 18.6406L233.242 20.1574M232.447 18.6406H244.43M231.686 17.1879H243.415M208.229 17.1879H196.5M208.229 17.1879L208.167 16.8343L208.045 16.1381L207.986 15.7954M243.415 17.1879L244.43 18.6406M207.986 15.7954H196.5M233.242 20.1574L233.861 21.34L234.073 21.743M233.242 20.1574H245.489M244.43 18.6406L245.489 20.1574M245.489 20.1574L246.037 20.9414L246.597 21.743M221.548 21.743L222.128 23.4019M221.548 21.743H234.073M221.548 21.743H209.024M234.073 21.743L234.942 23.4019M234.073 21.743H246.597M246.597 21.743L247.756 23.4019M222.128 23.4019H234.942M222.128 23.4019H209.314M235.852 25.1393L235.62 24.6973L234.942 23.4019M235.852 25.1393L236.806 26.9609M235.852 25.1393H248.969M234.942 23.4019H247.756M209.314 23.4019H196.5M209.314 23.4019L209.024 21.743M247.756 23.4019L248.969 25.1393M209.024 21.743H196.5M236.806 26.9609L237.808 28.8733M236.806 26.9609H250.242M248.969 25.1393L250.242 26.9609M250.242 26.9609L251.578 28.8733M224.039 28.8733L224.741 30.8829M224.039 28.8733H237.808M224.039 28.8733H210.269M237.808 28.8733L238.861 30.8829M237.808 28.8733H251.578M251.578 28.8733L252.982 30.8829M224.741 30.8829H238.861M224.741 30.8829H210.62M239.969 32.9978L238.861 30.8829M239.969 32.9978L241.137 35.2263M239.969 32.9978H254.459M238.861 30.8829H252.982M210.62 30.8829H196.5M210.62 30.8829L210.312 29.119L210.269 28.8733M252.982 30.8829L254.459 32.9978M210.269 28.8733H196.5M241.137 35.2263L242.369 37.578M241.137 35.2263H256.016M254.459 32.9978L255.619 34.6582L256.016 35.2263M256.016 35.2263L257.659 37.578M227.079 37.578L227.947 40.0628M227.079 37.578H242.369M227.079 37.578H211.79M242.369 37.578L243.671 40.0628M242.369 37.578H257.659M257.659 37.578L259.394 40.0628M227.947 40.0628H243.671M227.947 40.0628H212.224M245.049 42.6931L243.671 40.0628M245.049 42.6931L246.51 45.4815M245.049 42.6931H261.232M243.671 40.0628H259.394M212.224 40.0628H196.5M212.224 40.0628L211.79 37.578M259.394 40.0628L261.232 42.6931M211.79 37.578H196.5M246.51 45.4815L248.061 48.4432M246.51 45.4815H263.18M261.232 42.6931L263.18 45.4815M263.18 45.4815L265.249 48.4432M230.874 48.4432L231.975 51.5944M230.874 48.4432H248.061M230.874 48.4432H213.687M248.061 48.4432L249.712 51.5944M248.061 48.4432H265.249M265.249 48.4432L267.45 51.5944M231.975 51.5944H249.712M231.975 51.5944H214.237M251.473 54.954L249.712 51.5944M251.473 54.954L253.353 58.5435M251.473 54.954H269.797M249.712 51.5944H267.45M214.237 51.5944H196.5M214.237 51.5944L213.687 48.4432M267.45 51.5944L269.797 54.954M213.687 48.4432H196.5M253.353 58.5435L255.367 62.3873M253.353 58.5435H272.304M269.797 54.954L272.304 58.5435M272.304 58.5435L274.99 62.3873M235.745 62.3873L237.186 66.5135M235.745 62.3873H255.367M235.745 62.3873H216.122M255.367 62.3873L257.529 66.5135M255.367 62.3873H274.99M274.99 62.3873L277.872 66.5135M237.186 66.5135H257.529M237.186 66.5135H216.843M259.856 70.9542L257.529 66.5135M259.856 70.9542L262.367 75.747M259.856 70.9542H280.974M257.529 66.5135H277.872M216.843 66.5135H196.5M216.843 66.5135L216.122 62.3873M277.872 66.5135L280.974 70.9542M216.122 62.3873H196.5M262.367 75.747L265.085 80.9354M262.367 75.747H284.322M280.974 70.9542L284.322 75.747M284.322 75.747L287.946 80.9354M242.223 80.9354L244.191 86.5704M242.223 80.9354H265.085M242.223 80.9354H219.362M265.085 80.9354L268.037 86.5704M265.085 80.9354H287.946M287.946 80.9354L291.883 86.5704M244.191 86.5704H268.037M244.191 86.5704H220.346M271.255 92.7124L268.037 86.5704M271.255 92.7124L274.776 99.4329M271.255 92.7124H296.174M268.037 86.5704H291.883M220.346 86.5704H196.5M220.346 86.5704L219.362 80.9354M291.883 86.5704L296.174 92.7124M219.362 80.9354H196.5M274.776 99.4329L278.645 106.818M274.776 99.4329H300.868M296.174 92.7124L300.868 99.4329M300.868 99.4329L306.027 106.818M251.264 106.818L254.111 114.971M251.264 106.818H278.645M251.264 106.818H223.882M278.645 106.818L282.917 114.971M278.645 106.818H306.027M306.027 106.818L311.723 114.971M282.917 114.971H254.111M282.917 114.971H311.723M254.111 114.971H225.306M225.306 114.971H196.5M225.306 114.971L223.882 106.818M223.882 106.818H196.5M176.797 6.43884L176.753 6.56451L176.709 6.69066L176.665 6.81747L176.62 6.94494L176.531 7.20135L176.486 7.33045L176.44 7.46021M176.797 6.43884H186.649M176.797 6.43884H166.946M186.821 5.45314L186.987 4.50131M186.821 5.45314L186.649 6.43884M186.821 5.45314H196.5M186.987 4.50131L187.007 4.38465L187.028 4.26847L187.048 4.15279L187.148 3.58172M186.987 4.50131H196.5M177.795 3.58172L177.834 3.46882L177.99 3.02244L178.106 2.69257M177.795 3.58172H187.148M177.795 3.58172H168.443M186.649 6.43884L186.626 6.56451L186.605 6.69066L186.582 6.81747L186.47 7.46021M186.649 6.43884H196.5M196.5 5.45314V4.50131M196.5 5.45314V6.43884M196.5 4.50131V3.58172M187.148 3.58172H196.5M187.148 3.58172L187.206 3.24482L187.226 3.13338L187.303 2.69257M196.5 6.43884V7.46021M205.852 3.58172L205.794 3.24482L205.774 3.13338L205.755 3.02244L205.735 2.912L205.716 2.80204L205.697 2.69257M205.852 3.58172H196.5M196.5 3.58172V2.69257M176.44 7.46021H186.47M176.44 7.46021H166.411M186.285 8.51921L186.262 8.6542L186.238 8.79002L186.093 9.61797M186.285 8.51921L186.47 7.46021M186.285 8.51921H196.5M186.47 7.46021H196.5M166.411 7.46021H156.381M166.411 7.46021L166.546 7.20135L166.614 7.0729L166.68 6.94494L166.747 6.81747L166.814 6.69066L166.88 6.56451L166.946 6.43884M196.5 7.46021V8.51921M166.946 6.43884H157.094M186.093 9.61797L185.894 10.7588M186.093 9.61797H196.5M196.5 8.51921V9.61797M196.5 9.61797V10.7588M175.288 10.7588L174.874 11.9443M175.288 10.7588H185.894M175.288 10.7588H164.682M185.894 10.7588L185.687 11.9443M185.894 10.7588H196.5M196.5 10.7588V11.9443M174.874 11.9443H185.687M174.874 11.9443H164.061M185.472 13.1769L185.687 11.9443M185.472 13.1769L185.248 14.4596M185.472 13.1769H196.5M185.687 11.9443H196.5M164.061 11.9443H153.248M164.061 11.9443L164.682 10.7588M196.5 11.9443V13.1769M164.682 10.7588H154.076M185.248 14.4596L185.162 14.9541L185.074 15.4562L185.014 15.7954M185.248 14.4596H196.5M196.5 13.1769V14.4596M196.5 14.4596V15.7954M173.529 15.7954L173.288 16.4843L173.227 16.6589L173.043 17.1879M173.529 15.7954H185.014M173.529 15.7954H162.043M185.014 15.7954L184.955 16.1381L184.833 16.8343L184.771 17.1879M185.014 15.7954H196.5M196.5 15.7954V17.1879M173.043 17.1879H184.771M173.043 17.1879H161.314M184.518 18.6406L184.55 18.4555L184.771 17.1879M184.518 18.6406L184.253 20.1574M184.518 18.6406H196.5M184.771 17.1879H196.5M161.314 17.1879H149.585M161.314 17.1879L162.043 15.7954M196.5 17.1879V18.6406M162.043 15.7954H150.558M184.253 20.1574L183.976 21.743M184.253 20.1574H196.5M196.5 18.6406V20.1574M196.5 20.1574V21.743M171.452 21.743L170.872 23.4019M171.452 21.743H183.976M171.452 21.743H158.927M183.976 21.743L183.686 23.4019M183.976 21.743H196.5M196.5 21.743V23.4019M170.872 23.4019H183.686M170.872 23.4019H158.058M183.383 25.1393L183.686 23.4019M183.383 25.1393L183.065 26.9609M183.383 25.1393H196.5M183.686 23.4019H196.5M158.058 23.4019H145.244M158.058 23.4019L158.927 21.743M196.5 23.4019V25.1393M158.927 21.743H146.403M183.065 26.9609L182.731 28.8733M183.065 26.9609H196.5M196.5 25.1393V26.9609M196.5 26.9609V28.8733M168.961 28.8733L168.259 30.8829M168.961 28.8733H182.731M168.961 28.8733H155.192M182.731 28.8733L182.38 30.8829M182.731 28.8733H196.5M196.5 28.8733V30.8829M168.259 30.8829H182.38M168.259 30.8829H154.139M182.01 32.9978L182.38 30.8829M182.01 32.9978L181.621 35.2263M182.01 32.9978H196.5M182.38 30.8829H196.5M154.139 30.8829H140.018M154.139 30.8829L155.192 28.8733M196.5 30.8829V32.9978M155.192 28.8733H141.422M181.621 35.2263L181.21 37.578M181.621 35.2263H196.5M196.5 32.9978V35.2263M196.5 35.2263V37.578M165.921 37.578L165.053 40.0628M165.921 37.578H181.21M165.921 37.578H150.631M181.21 37.578L180.776 40.0628M181.21 37.578H196.5M196.5 37.578V40.0628M165.053 40.0628H180.776M165.053 40.0628H149.329M180.317 42.6931L180.776 40.0628M180.317 42.6931L179.83 45.4815M180.317 42.6931H196.5M180.776 40.0628H196.5M149.329 40.0628H133.606M149.329 40.0628L150.631 37.578M196.5 40.0628V42.6931M150.631 37.578H135.341M179.83 45.4815L179.313 48.4432M179.83 45.4815H196.5M196.5 42.6931V45.4815M196.5 45.4815V48.4432M162.126 48.4432L161.025 51.5944M162.126 48.4432H179.313M162.126 48.4432H144.939M179.313 48.4432L178.763 51.5944M179.313 48.4432H196.5M196.5 48.4432V51.5944M161.025 51.5944H178.763M161.025 51.5944H143.288M178.176 54.954L178.763 51.5944M178.176 54.954L177.549 58.5435M178.176 54.954H196.5M178.763 51.5944H196.5M143.288 51.5944H125.55M143.288 51.5944L144.939 48.4432M196.5 51.5944V54.954M144.939 48.4432H127.751M177.549 58.5435L176.878 62.3873M177.549 58.5435H196.5M196.5 54.954V58.5435M196.5 58.5435V62.3873M157.255 62.3873L155.814 66.5135M157.255 62.3873H176.878M157.255 62.3873H137.633M176.878 62.3873L176.157 66.5135M176.878 62.3873H196.5M196.5 62.3873V66.5135M155.814 66.5135H176.157M155.814 66.5135H135.471M175.381 70.9542L176.157 66.5135M175.381 70.9542L174.545 75.747M175.381 70.9542H196.5M176.157 66.5135H196.5M135.471 66.5135H115.128M135.471 66.5135L137.633 62.3873M196.5 66.5135V70.9542M137.633 62.3873H118.01M174.545 75.747L173.638 80.9354M174.545 75.747H196.5M196.5 70.9542V75.747M196.5 75.747V80.9354M150.777 80.9354L148.809 86.5704M150.777 80.9354H173.638M150.777 80.9354H127.915M173.638 80.9354L172.654 86.5704M173.638 80.9354H196.5M196.5 80.9354V86.5704M148.809 86.5704H172.654M148.809 86.5704H124.963M171.582 92.7124L172.654 86.5704M171.582 92.7124L170.408 99.4329M171.582 92.7124H196.5M172.654 86.5704H196.5M124.963 86.5704H101.117M124.963 86.5704L127.915 80.9354M196.5 86.5704V92.7124M127.915 80.9354H105.054M170.408 99.4329L169.118 106.818M170.408 99.4329H196.5M196.5 92.7124V99.4329M196.5 99.4329V106.818M141.737 106.818L138.889 114.971M141.737 106.818H169.118M141.737 106.818H114.355M169.118 106.818L167.694 114.971M169.118 106.818H196.5M196.5 106.818V114.971M167.694 114.971H138.889M167.694 114.971H196.5M138.889 114.971H110.083M110.083 114.971H81.2773M110.083 114.971L114.355 106.818M114.355 106.818H86.9728M137.391 6.43884L136.861 6.94494L136.321 7.46021M137.391 6.43884H147.243M137.391 6.43884H127.54M148.103 5.45314L148.935 4.50131M148.103 5.45314L147.243 6.43884M148.103 5.45314H157.783M148.935 4.50131H158.448M148.935 4.50131L149.539 3.80868L149.738 3.58172M140.385 3.58172H149.738M140.385 3.58172L140.738 3.24482L141.317 2.69257M140.385 3.58172H131.033M147.243 6.43884L146.351 7.46021M147.243 6.43884H157.094M157.783 5.45314L158.448 4.50131M157.783 5.45314L157.094 6.43884M158.448 4.50131L158.772 4.03759L159.011 3.69496L159.09 3.58172M149.738 3.58172H159.09M149.738 3.58172L150.322 2.912L150.514 2.69257M157.094 6.43884L156.561 7.20135L156.381 7.46021M168.443 3.58172L168.502 3.46882L168.619 3.24482L168.793 2.912L168.908 2.69257M168.443 3.58172H159.09M159.09 3.58172L159.169 3.46882L159.325 3.24482L159.711 2.69257M136.321 7.46021H146.351M136.321 7.46021H126.291M145.426 8.51921L145.544 8.38471L145.66 8.25069L146.123 7.72119L146.351 7.46021M145.426 8.51921L144.71 9.33932L144.467 9.61797M145.426 8.51921H155.641M146.351 7.46021H156.381M126.291 7.46021H116.261M126.291 7.46021L127.232 6.69066L127.54 6.43884M156.381 7.46021L155.641 8.51921M127.54 6.43884H117.688M144.467 9.61797L144.344 9.7582L144.221 9.89909L143.849 10.326L143.723 10.4695L143.47 10.7588M144.467 9.61797H154.873M155.641 8.51921L155.546 8.6542L154.873 9.61797M154.873 9.61797L154.775 9.7582L154.677 9.89909L154.578 10.0408L154.076 10.7588M132.865 10.7588L131.622 11.9443M132.865 10.7588H143.47M132.865 10.7588H122.259M143.47 10.7588L142.435 11.9443M143.47 10.7588H154.076M154.076 10.7588L153.248 11.9443M131.622 11.9443H142.435M131.622 11.9443H120.809M141.359 13.1769L142.435 11.9443M141.359 13.1769L140.239 14.4596M141.359 13.1769H152.387M142.435 11.9443H153.248M120.809 11.9443H109.997M120.809 11.9443L122.259 10.7588M153.248 11.9443L152.387 13.1769M122.259 10.7588H111.653M140.239 14.4596L139.072 15.7954M140.239 14.4596H151.491M152.387 13.1769L152.166 13.4927L151.491 14.4596M151.491 14.4596L151.146 14.9541L150.795 15.4562L150.558 15.7954M127.587 15.7954L126.865 16.4843L126.128 17.1879M127.587 15.7954H139.072M127.587 15.7954H116.101M139.072 15.7954L137.856 17.1879M139.072 15.7954H150.558M150.558 15.7954L149.585 17.1879M126.128 17.1879H137.856M126.128 17.1879H114.399M136.588 18.6406L137.856 17.1879M136.588 18.6406L135.263 20.1574M136.588 18.6406H148.57M137.856 17.1879H149.585M114.399 17.1879H102.67M114.399 17.1879L116.101 15.7954M149.585 17.1879L148.57 18.6406M116.101 15.7954H104.616M135.263 20.1574L134.923 20.5472L133.879 21.743M135.263 20.1574H147.511M148.57 18.6406L147.511 20.1574M147.511 20.1574L147.375 20.3518L146.963 20.9414L146.403 21.743M121.355 21.743L119.617 23.4019M121.355 21.743H133.879M121.355 21.743H108.831M133.879 21.743L132.43 23.4019M133.879 21.743H146.403M146.403 21.743L145.244 23.4019M119.617 23.4019H132.43M119.617 23.4019H106.803M130.913 25.1393L131.87 24.0439L132.43 23.4019M130.913 25.1393L129.323 26.9609M130.913 25.1393H144.031M132.43 23.4019H145.244M106.803 23.4019H93.9888M106.803 23.4019L108.831 21.743M145.244 23.4019L144.031 25.1393M108.831 21.743H96.3064M129.323 26.9609L127.653 28.8733M129.323 26.9609H142.758M144.031 25.1393L142.758 26.9609M142.758 26.9609L141.422 28.8733M113.883 28.8733L111.777 30.8829M113.883 28.8733H127.653M113.883 28.8733H100.114M127.653 28.8733L125.898 30.8829M127.653 28.8733H141.422M141.422 28.8733L140.018 30.8829M111.777 30.8829H125.898M111.777 30.8829H97.657M124.051 32.9978L125.898 30.8829M124.051 32.9978L122.105 35.2263M124.051 32.9978H138.541M125.898 30.8829H140.018M97.657 30.8829H83.5367M97.657 30.8829L100.114 28.8733M140.018 30.8829L138.541 32.9978M100.114 28.8733H86.3445M122.105 35.2263L120.052 37.578M122.105 35.2263H136.984M138.541 32.9978L136.984 35.2263M136.984 35.2263L135.341 37.578M104.762 37.578L102.158 40.0628M104.762 37.578H120.052M104.762 37.578H89.4725M120.052 37.578L117.882 40.0628M120.052 37.578H135.341M135.341 37.578L133.606 40.0628M102.158 40.0628H117.882M102.158 40.0628H86.4347M115.585 42.6931L117.882 40.0628M115.585 42.6931L113.15 45.4815M115.585 42.6931H131.768M117.882 40.0628H133.606M86.4347 40.0628H70.7111M86.4347 40.0628L89.4725 37.578M133.606 40.0628L131.768 42.6931M89.4725 37.578H74.183M113.15 45.4815L110.564 48.4432M113.15 45.4815H129.82M131.768 42.6931L129.82 45.4815M129.82 45.4815L127.751 48.4432M93.3771 48.4432L90.0752 51.5944M93.3771 48.4432H110.564M93.3771 48.4432H76.1899M110.564 48.4432L107.813 51.5944M110.564 48.4432H127.751M127.751 48.4432L125.55 51.5944M90.0752 51.5944H107.813M90.0752 51.5944H72.3377M104.879 54.954L107.813 51.5944M104.879 54.954L101.744 58.5435M104.879 54.954H123.203M107.813 51.5944H125.55M72.3377 51.5944H54.6003M72.3377 51.5944L76.1899 48.4432M125.55 51.5944L123.203 54.954M76.1899 48.4432H59.0028M101.744 58.5435L98.3882 62.3873M101.744 58.5435H120.696M123.203 54.954L120.696 58.5435M120.696 58.5435L118.01 62.3873M78.7657 62.3873L74.4422 66.5135M78.7657 62.3873H98.3882M78.7657 62.3873H59.1433M98.3882 62.3873L94.7852 66.5135M98.3882 62.3873H118.01M118.01 62.3873L115.128 66.5135M74.4422 66.5135H94.7852M74.4422 66.5135H54.0992M90.9074 70.9542L94.7852 66.5135M90.9074 70.9542L86.7224 75.747M90.9074 70.9542H112.026M94.7852 66.5135H115.128M54.0992 66.5135H33.7563M54.0992 66.5135L59.1433 62.3873M115.128 66.5135L112.026 70.9542M59.1433 62.3873H39.5209M86.7224 75.747L82.1918 80.9354M86.7224 75.747H108.678M112.026 70.9542L108.678 75.747M108.678 75.747L105.054 80.9354M59.3303 80.9354L53.4256 86.5704M59.3303 80.9354H82.1918M59.3303 80.9354H36.4686M82.1918 80.9354L77.2713 86.5704M82.1918 80.9354H105.054M105.054 80.9354L101.117 86.5704M53.4256 86.5704H77.2713M53.4256 86.5704H29.5798M71.9081 92.7124L77.2713 86.5704M71.9081 92.7124L66.0396 99.4329M71.9081 92.7124H96.8264M77.2713 86.5704H101.117M29.5798 86.5704H5.7341M29.5798 86.5704L36.4686 80.9354M101.117 86.5704L96.8264 92.7124M36.4686 80.9354H13.6071M66.0396 99.4329L59.5911 106.818M66.0396 99.4329H92.1318M96.8264 92.7124L92.1318 99.4329M92.1318 99.4329L86.9728 106.818M32.2093 106.818L23.6661 114.971M32.2093 106.818H59.5911M32.2093 106.818H4.82741M59.5911 106.818L52.4718 114.971M59.5911 106.818H86.9728M86.9728 106.818L81.2773 114.971M52.4718 114.971H23.6661M52.4718 114.971H81.2773M23.6661 114.971L0.105768 114.971M4.82741 106.818L0.105768 110.68M4.82741 106.818H0.105768M97.9854 6.43884L96.2017 7.46021M97.9854 6.43884H107.837M97.9854 6.43884H88.134M109.386 5.45314L110.882 4.50131M109.386 5.45314L107.837 6.43884M109.386 5.45314H119.065M110.882 4.50131H120.395M110.882 4.50131L112.328 3.58172M102.975 3.58172H112.328M102.975 3.58172L103.564 3.24482L104.528 2.69257M102.975 3.58172H93.6226M107.837 6.43884L106.231 7.46021M107.837 6.43884H117.688M119.065 5.45314L120.395 4.50131M119.065 5.45314L117.688 6.43884M120.395 4.50131L121.363 3.80868L121.68 3.58172M112.328 3.58172L112.505 3.46882L113.725 2.69257M112.328 3.58172H121.68M117.688 6.43884L116.261 7.46021M131.033 3.58172L132.12 2.69257M131.033 3.58172H121.68M121.68 3.58172L122.151 3.24482L122.922 2.69257M96.2017 7.46021H106.231M96.2017 7.46021H86.1719M104.567 8.51921L106.231 7.46021M104.567 8.51921L102.84 9.61797M104.567 8.51921H114.782M106.231 7.46021H116.261M86.1719 7.46021H76.142M86.1719 7.46021L88.134 6.43884M116.261 7.46021L114.782 8.51921M88.134 6.43884H78.2825M102.84 9.61797L102.398 9.89909L101.047 10.7588M102.84 9.61797H113.247M114.782 8.51921L113.247 9.61797M113.247 9.61797L111.653 10.7588M90.4408 10.7588L90.1865 10.9046L88.3707 11.9443M90.4408 10.7588H101.047M90.4408 10.7588H79.8349M101.047 10.7588L99.1836 11.9443M101.047 10.7588H111.653M111.653 10.7588L111.449 10.9046L109.997 11.9443M88.3707 11.9443H99.1836M88.3707 11.9443H77.5577M97.2462 13.1769L99.1836 11.9443M97.2462 13.1769L95.2301 14.4596M97.2462 13.1769H108.274M99.1836 11.9443H109.997M77.5577 11.9443H66.7448M77.5577 11.9443L79.8349 10.7588M109.997 11.9443L108.274 13.1769M79.8349 10.7588H69.229M95.2301 14.4596L93.1304 15.7954M95.2301 14.4596H106.482M108.274 13.1769L106.482 14.4596M106.482 14.4596L104.616 15.7954M81.645 15.7954L79.2132 17.1879M81.645 15.7954H93.1304M81.645 15.7954H70.1594M93.1304 15.7954L90.9418 17.1879M93.1304 15.7954H104.616M104.616 15.7954L102.67 17.1879M79.2132 17.1879H90.9418M79.2132 17.1879H67.4843M88.6585 18.6406L90.9418 17.1879M88.6585 18.6406L86.2741 20.1574M88.6585 18.6406H100.641M90.9418 17.1879H102.67M67.4843 17.1879H55.7557M67.4843 17.1879L70.1594 15.7954M102.67 17.1879L100.641 18.6406M70.1594 15.7954H58.6738M86.2741 20.1574L83.7822 21.743M86.2741 20.1574H98.5216M100.641 18.6406L98.5216 20.1574M98.5216 20.1574L96.3064 21.743M71.258 21.743L68.3609 23.4019M71.258 21.743H83.7822M71.258 21.743H58.7337M83.7822 21.743L81.1749 23.4019M83.7822 21.743H96.3064M96.3064 21.743L93.9888 23.4019M68.3609 23.4019H81.1749M68.3609 23.4019H55.547M78.4439 25.1393L81.1749 23.4019M78.4439 25.1393L75.5807 26.9609M78.4439 25.1393H91.5612M81.1749 23.4019H93.9888M55.547 23.4019H42.7331M55.547 23.4019L58.7337 21.743M93.9888 23.4019L91.5612 25.1393M58.7337 21.743H46.2095M75.5807 26.9609L72.575 28.8733M75.5807 26.9609H89.0161M91.5612 25.1393L89.0161 26.9609M89.0161 26.9609L86.3445 28.8733M58.8055 28.8733L55.2958 30.8829M58.8055 28.8733H72.575M58.8055 28.8733H45.0363M72.575 28.8733L69.4162 30.8829M72.575 28.8733H86.3445M86.3445 28.8733L83.5367 30.8829M55.2958 30.8829H69.4162M55.2958 30.8829H41.1753M66.092 32.9978L69.4162 30.8829M66.092 32.9978L62.5894 35.2263M66.092 32.9978H80.5818M69.4162 30.8829H83.5367M41.1753 30.8829H27.0549M41.1753 30.8829L45.0363 28.8733M83.5367 30.8829L80.5818 32.9978M45.0363 28.8733H31.2668M62.5894 35.2263L58.8933 37.578M62.5894 35.2263H77.4683M80.5818 32.9978L77.4683 35.2263M77.4683 35.2263L74.183 37.578M43.6036 37.578L39.2639 40.0628M43.6036 37.578H58.8933M43.6036 37.578H28.3141M58.8933 37.578L54.9875 40.0628M58.8933 37.578H74.183M74.183 37.578L70.7111 40.0628M39.2639 40.0628H54.9875M39.2639 40.0628H23.5403M50.8534 42.6931L54.9875 40.0628M50.8534 42.6931L46.4706 45.4815M50.8534 42.6931H67.0363M54.9875 40.0628H70.7111M23.5403 40.0628H7.8167M23.5403 40.0628L28.3141 37.578M70.7111 40.0628L67.0363 42.6931M28.3141 37.578H13.0244M46.4706 45.4815L41.8156 48.4432M46.4706 45.4815H63.1405M67.0363 42.6931L63.1405 45.4815M63.1405 45.4815L59.0028 48.4432M24.6285 48.4432L19.1253 51.5944M24.6285 48.4432H41.8156M24.6285 48.4432H7.4413M41.8156 48.4432L36.8628 51.5944M41.8156 48.4432H59.0028M59.0028 48.4432L54.6003 51.5944M19.1253 51.5944H36.8628M19.1253 51.5944H1.38785M31.582 54.954L36.8628 51.5944M31.582 54.954L25.9402 58.5435M31.582 54.954H49.9062M36.8628 51.5944H54.6003M1.38785 51.5944L7.4413 48.4432M1.38785 51.5944H0.105768M1.38785 51.5944L0.105768 52.2617M54.6003 51.5944L49.9062 54.954M7.4413 48.4432H0.105768M25.9402 58.5435L19.8986 62.3873M25.9402 58.5435H44.8912M49.9062 54.954L44.8912 58.5435M44.8912 58.5435L39.5209 62.3873M0.276181 62.3873H19.8986M0.276181 62.3873H0.105768M0.276181 62.3873L0.105768 62.4849M19.8986 62.3873L13.4131 66.5135M19.8986 62.3873H39.5209M39.5209 62.3873L33.7563 66.5135M6.43334 70.9542L13.4131 66.5135M6.43334 70.9542H27.5519M6.43334 70.9542H0.105768M6.43334 70.9542L0.105768 74.98M13.4131 66.5135H33.7563M13.4131 66.5135H0.105768M33.7563 66.5135L27.5519 70.9542M27.5519 70.9542L20.8558 75.747M20.8558 75.747L13.6071 80.9354M20.8558 75.747H0.105768M13.6071 80.9354L5.7341 86.5704M13.6071 80.9354H0.105768M5.7341 86.5704H0.105768M5.7341 86.5704L0.105768 90.5989M58.5795 6.43884L56.0824 7.46021M58.5795 6.43884H68.4311M58.5795 6.43884H48.7281M70.6688 5.45314L72.8297 4.50131M70.6688 5.45314L68.4311 6.43884M70.6688 5.45314H80.3482M72.8297 4.50131H82.3428M72.8297 4.50131L74.9176 3.58172M65.5652 3.58172H74.9176M65.5652 3.58172L67.739 2.69257M65.5652 3.58172H56.2127M68.4311 6.43884L66.1122 7.46021M68.4311 6.43884H78.2825M80.3482 5.45314L82.3428 4.50131M80.3482 5.45314L78.2825 6.43884M82.3428 4.50131L84.2701 3.58172M74.9176 3.58172L75.1736 3.46882L76.9362 2.69257M74.9176 3.58172H84.2701M78.2825 6.43884L76.142 7.46021M93.6226 3.58172L95.3306 2.69257M93.6226 3.58172H84.2701M84.2701 3.58172L84.5064 3.46882L86.1334 2.69257M56.0824 7.46021H66.1122M56.0824 7.46021H46.0526M63.7078 8.51921L66.1122 7.46021M63.7078 8.51921L61.2132 9.61797M63.7078 8.51921H73.9228M66.1122 7.46021H76.142M46.0526 7.46021H36.0228M46.0526 7.46021L48.7281 6.43884M76.142 7.46021L73.9228 8.51921M48.7281 6.43884H38.8766M61.2132 9.61797L58.6231 10.7588M61.2132 9.61797H71.6199M73.9228 8.51921L73.6394 8.6542L71.6199 9.61797M71.6199 9.61797L69.229 10.7588M48.0172 10.7588L45.1189 11.9443M48.0172 10.7588H58.6231M48.0172 10.7588H37.4113M58.6231 10.7588L55.9319 11.9443M58.6231 10.7588H69.229M69.229 10.7588L66.7448 11.9443M45.1189 11.9443H55.9319M45.1189 11.9443H34.306M53.1334 13.1769L55.9319 11.9443M53.1334 13.1769L50.2213 14.4596M53.1334 13.1769H64.1616M55.9319 11.9443H66.7448M34.306 11.9443H23.493M34.306 11.9443L37.4113 10.7588M66.7448 11.9443L64.1616 13.1769M37.4113 10.7588H26.8054M50.2213 14.4596L47.1884 15.7954M50.2213 14.4596H61.4734M64.1616 13.1769L61.4734 14.4596M61.4734 14.4596L58.6738 15.7954M35.7028 15.7954L32.2983 17.1879M35.7028 15.7954H47.1884M35.7028 15.7954H24.2173M47.1884 15.7954L44.0271 17.1879M47.1884 15.7954H58.6738M58.6738 15.7954L55.7557 17.1879M32.2983 17.1879H44.0271M32.2983 17.1879H20.5696M40.7289 18.6406L44.0271 17.1879M40.7289 18.6406L37.285 20.1574M40.7289 18.6406H52.7114M44.0271 17.1879H55.7557M20.5696 17.1879H8.84101M20.5696 17.1879L24.2173 15.7954M55.7557 17.1879L52.7114 18.6406M24.2173 15.7954H12.7319M37.285 20.1574L33.6853 21.743M37.285 20.1574H49.5323M52.7114 18.6406L49.5323 20.1574M49.5323 20.1574L46.2095 21.743M21.1611 21.743L17.1053 23.4019M21.1611 21.743H33.6853M21.1611 21.743H8.63705M33.6853 21.743L29.9192 23.4019M33.6853 21.743H46.2095M46.2095 21.743L42.7331 23.4019M17.1053 23.4019H29.9192M25.9746 25.1393L29.9192 23.4019M25.9746 25.1393L21.8388 26.9609M25.9746 25.1393H39.0921M29.9192 23.4019H42.7331M42.7331 23.4019L39.0921 25.1393M8.63705 21.743H0.105768M21.8388 26.9609L17.4973 28.8733M21.8388 26.9609H35.2742M39.0921 25.1393L35.2742 26.9609M35.2742 26.9609L31.2668 28.8733M3.72781 28.8733H17.4973M3.72781 28.8733H0.105768M3.72781 28.8733L0.105768 30.3546M17.4973 28.8733L12.9344 30.8829M17.4973 28.8733H31.2668M31.2668 28.8733L27.0549 30.8829M8.13297 32.9978L12.9344 30.8829M8.13297 32.9978L3.07357 35.2263M8.13297 32.9978H22.6228M8.13297 32.9978H0.105768M12.9344 30.8829H27.0549M12.9344 30.8829H0.105768M27.0549 30.8829L22.6228 32.9978M0.0658752 30.3709L0.105768 30.3546M3.07357 35.2263H17.9525M3.07357 35.2263H0.105768M3.07357 35.2263L0.105768 36.5335M22.6228 32.9978L17.9525 35.2263M17.9525 35.2263L13.0244 37.578M13.0244 37.578L7.8167 40.0628M13.0244 37.578H0.105768M2.30457 42.6931L7.8167 40.0628M2.30457 42.6931H0.105768M2.30457 42.6931L0.105768 43.7423M7.8167 40.0628H0.105768M19.1738 6.43884L15.9632 7.46021M19.1738 6.43884H29.0252M19.1738 6.43884H9.32218M31.9515 5.45314L34.7773 4.50131M31.9515 5.45314L29.0252 6.43884M31.9515 5.45314H41.6309M34.7773 4.50131H44.2904M34.7773 4.50131L37.5076 3.58172M28.1552 3.58172H37.5076M28.1552 3.58172L30.9501 2.69257M28.1552 3.58172H18.8027M29.0252 6.43884L25.993 7.46021M29.0252 6.43884H38.8766M41.6309 5.45314L44.2904 4.50131M41.6309 5.45314L38.8766 6.43884M44.2904 4.50131L46.8601 3.58172M37.5076 3.58172H46.8601M37.5076 3.58172L40.1475 2.69257M38.8766 6.43884L36.0228 7.46021M56.2127 3.58172L58.5418 2.69257M56.2127 3.58172H46.8601M46.8601 3.58172L49.3447 2.69257M15.9632 7.46021H25.993M15.9632 7.46021H5.93336M22.8488 8.51921L25.993 7.46021M22.8488 8.51921L19.5866 9.61797M22.8488 8.51921H33.0636M25.993 7.46021H36.0228M5.93336 7.46021L9.32218 6.43884M5.93336 7.46021H0.105768M36.0228 7.46021L33.0636 8.51921M9.32218 6.43884H0.105768M19.5866 9.61797L16.1995 10.7588M19.5866 9.61797H29.9933M33.0636 8.51921L29.9933 9.61797M29.9933 9.61797L26.8054 10.7588M5.59355 10.7588L1.86718 11.9443M5.59355 10.7588H16.1995M5.59355 10.7588H0.105768M16.1995 10.7588L12.6801 11.9443M16.1995 10.7588H26.8054M26.8054 10.7588L23.493 11.9443M9.02063 13.1769L12.6801 11.9443M9.02063 13.1769L5.21243 14.4596M9.02063 13.1769H20.0488M9.02063 13.1769H0.105768M12.6801 11.9443H1.86718M12.6801 11.9443H23.493M1.86718 11.9443L0.105768 12.5045M1.86718 11.9443H0.105768M23.493 11.9443L20.0488 13.1769M5.21243 14.4596L1.24629 15.7954M5.21243 14.4596H16.4646M5.21243 14.4596H0.105768M20.0488 13.1769L16.4646 14.4596M16.4646 14.4596L12.7319 15.7954M1.24629 15.7954H12.7319M1.24629 15.7954L0.105768 16.1795M1.24629 15.7954H0.105768M12.7319 15.7954L8.84101 17.1879M4.78179 18.6406L8.84101 17.1879M4.78179 18.6406L0.543154 20.1574M4.78179 18.6406H0.105768M8.84101 17.1879H0.105768M0.0443939 17.1879H0.105768M0.543154 20.1574H0.105768M0.543154 20.1574L0.105768 20.314M0 20.3518L0.105768 20.314M2.91359 5.45314L6.23797 4.50131M2.91359 5.45314H0.105768M2.91359 5.45314L0.105768 6.25697M6.23797 4.50131L9.45025 3.58172M6.23797 4.50131H0.105768M18.8027 3.58172L21.7529 2.69257M18.8027 3.58172H9.45025M9.45025 3.58172L12.5557 2.69257M9.45025 3.58172H0.105768M325.261 2.69257H334.458M325.261 2.69257H316.064M332.205 1.83254L332.761 2.04493L334.458 2.69257M332.205 1.83254H341.252M334.458 2.69257H343.655M341.252 1.83254L341.845 2.04493L342.144 2.15162L343.655 2.69257M343.655 2.69257H352.853M352.853 2.69257H362.05M316.064 2.69257H306.867M362.05 2.69257H371.247M371.247 2.69257L368.393 1.83254M371.247 2.69257H380.444M368.393 1.83254H377.44M288.472 2.69257H297.669M288.472 2.69257H279.275M296.017 1.83254L296.425 2.04493L296.63 2.15162L297.669 2.69257M296.017 1.83254H305.064M297.669 2.69257H306.867M305.064 1.83254L306.867 2.69257M279.275 2.69257H270.078M251.683 2.69257H260.88M251.683 2.69257H242.486M259.829 1.83254L259.959 1.93841L260.089 2.04493L260.219 2.15162L260.88 2.69257M259.829 1.83254H268.876M260.88 2.69257H270.078M268.876 1.83254L270.078 2.69257M242.486 2.69257H233.289M214.894 2.69257H224.092M214.894 2.69257H205.697M223.641 1.83254L224.092 2.69257M223.641 1.83254H232.688M224.092 2.69257H233.289M232.688 1.83254L232.762 1.93841L232.836 2.04493L232.911 2.15162L233.289 2.69257M205.697 2.69257H196.5M178.106 2.69257H187.303M178.106 2.69257H168.908M187.453 1.83254L187.303 2.69257M187.453 1.83254H196.5M187.303 2.69257H196.5M196.5 1.83254V2.69257M168.908 2.69257H159.711M141.317 2.69257H150.514M141.317 2.69257H132.12M151.265 1.83254L151.08 2.04493L150.704 2.47478L150.514 2.69257M151.265 1.83254H160.312M150.514 2.69257H159.711M160.312 1.83254L160.238 1.93841L160.164 2.04493L160.089 2.15162L159.711 2.69257M132.12 2.69257H122.922M104.528 2.69257H113.725M104.528 2.69257H95.3306M115.077 1.83254L114.743 2.04493L114.575 2.15162L113.725 2.69257M115.077 1.83254H124.124M113.725 2.69257H122.922M124.124 1.83254L123.976 1.93841L122.922 2.69257M95.3306 2.69257H86.1334M67.739 2.69257H76.9362M67.739 2.69257H58.5418M78.8889 1.83254L78.4067 2.04493L78.1641 2.15162L76.9362 2.69257M78.8889 1.83254H87.9359M76.9362 2.69257H86.1334M87.9359 1.83254L87.7138 1.93841L86.1334 2.69257M58.5418 2.69257H49.3447M30.9501 2.69257H40.1475M30.9501 2.69257H21.7529M42.7008 1.83254L40.1475 2.69257M42.7008 1.83254H51.7478M40.1475 2.69257H49.3447M51.7478 1.83254L51.1546 2.04493L50.8559 2.15162L49.3447 2.69257M21.7529 2.69257H12.5557M6.51292 1.83254L3.35855 2.69257M6.51292 1.83254H15.5599M6.51292 1.83254H0.105768M3.35855 2.69257H12.5557M3.35855 2.69257L0.105768 3.57955M3.35855 2.69257H0.105768M15.5599 1.83254L14.8182 2.04493L12.5557 2.69257M377.44 1.83254L378.182 2.04493L380.444 2.69257M380.444 2.69257H389.641M389.641 2.69257L392.894 3.57955M389.641 2.69257H392.894M392.894 43.7423V42.6931M392.894 43.7423V45.4815M392.894 42.6931V40.0628M392.894 45.4815V46.0013V48.4432M392.894 48.4432V51.5944M392.894 23.4019V21.743M392.894 23.4019V24.9996M392.894 1.83254V2.69257M392.894 2.69257V3.57955M392.894 3.57955L392.902 3.58172H392.894M392.894 3.57955V3.58172M392.894 3.58172V4.50131M392.894 4.50131V5.45314M392.894 5.45314V6.25697M392.894 6.25697V6.43884M392.894 6.43884V7.46021M392.894 7.46021V8.51921M392.894 8.51921V9.21629M392.894 9.21629V9.61797M392.894 9.61797V10.7588M392.894 10.7588V11.9443M392.894 11.9443V12.5045M392.894 12.5045V13.1769M392.894 13.1769V14.4596M392.894 14.4596V15.7954M392.894 15.7954V16.1795M392.894 16.1795V17.1879M392.894 17.1879V18.6406M392.894 18.6406V20.1574M392.894 20.1574V20.314M392.894 20.314V21.743M392.894 25.1393V26.9609M392.894 25.1393V24.9996M392.894 26.9609V28.8733M392.894 28.8733V30.3546M392.894 30.3546V30.8829M392.894 30.8829V32.9978M392.894 32.9978V35.2263M392.894 35.2263V36.5335M392.894 36.5335V37.578M392.894 37.578V40.0628M392.894 51.5944V52.2617M392.894 52.2617V54.954M392.894 54.954V58.5435M392.894 58.5435V62.3873M392.894 62.3873V62.4849M392.894 62.4849V66.5135M392.894 66.5135V70.9542M392.894 70.9542V74.98M392.894 74.98V75.747M392.894 75.747V80.9354M392.894 80.9354V86.5704M392.894 86.5704V90.5989M392.894 90.5989V92.7124M392.894 92.7124V99.4329M392.894 99.4329V106.818M392.894 106.818V110.68M392.894 110.68V114.971M392.894 114.971V115H0.105768V114.971M0.105768 25.1393V26.9609M0.105768 25.1393V24.9996M0.105768 24.9996V23.4019M0.105768 23.4019V21.743M0.105768 21.743V20.314M0.105768 20.314V20.1574M0.105768 20.1574V18.6406M0.105768 18.6406V17.1879M0.105768 17.1879V16.1795M0.105768 16.1795V15.7954M0.105768 15.7954V14.4596M0.105768 14.4596V13.1769M0.105768 13.1769V12.5045M0.105768 12.5045V11.9443M0.105768 11.9443V10.7588M0.105768 10.7588V9.61797M0.105768 9.61797V9.21628M0.105768 9.21628V8.51921M0.105768 8.51921V7.46021M0.105768 7.46021V6.43884M0.105768 6.43884V6.25697M0.105768 6.25697V5.45314M0.105768 5.45314V4.50131M0.105768 4.50131V3.58172M0.105768 3.58172H0.0977889L0.105768 3.57955M0.105768 3.58172V3.57955M0.105768 3.57955V2.69257M0.105768 2.69257V1.83254M0.105768 114.971V110.68M0.105768 110.68V106.818M0.105768 106.818V99.433M0.105768 99.433V92.7124M0.105768 92.7124V90.5989M0.105768 90.5989V86.5704M0.105768 86.5704V80.9354M0.105768 80.9354V75.747M0.105768 75.747V74.98M0.105768 74.98V70.9542M0.105768 70.9542V66.5135M0.105768 66.5135V62.4849M0.105768 62.4849V62.3873M0.105768 62.3873V58.5435M0.105768 58.5435V54.954M0.105768 54.954V52.2617M0.105768 52.2617V51.5944M0.105768 51.5944V48.4432M0.105768 48.4432V45.4815M0.105768 45.4815V43.7423M0.105768 43.7423V42.6931M0.105768 42.6931V40.0628M0.105768 40.0628V37.578M0.105768 37.578V36.5335M0.105768 36.5335V35.2263M0.105768 35.2263V32.9978M0.105768 32.9978V30.8829M0.105768 30.8829V30.3546M0.105768 30.3546V28.8733M0.105768 28.8733V26.9609" stroke="url(#paint0_linear_20_4969)" stroke-width="0.370542" stroke-miterlimit="10" stroke-linecap="round" stroke-linejoin="round"/>
<defs>
<linearGradient id="paint0_linear_20_4969" x1="196.5" y1="1" x2="196.5" y2="80.928" gradientUnits="userSpaceOnUse">
<stop stop-color="#CED2DF" stop-opacity="0"/>
<stop offset="1" stop-color="#5D606A"/>
</linearGradient>
</defs>
</svg>
