<?xml version="1.0" encoding="UTF-8" standalone="no" ?>
<!DOCTYPE svg PUBLIC "-//W3C//DTD SVG 1.1//EN" "http://www.w3.org/Graphics/SVG/1.1/DTD/svg11.dtd">
<svg xmlns="http://www.w3.org/2000/svg" xmlns:xlink="http://www.w3.org/1999/xlink" version="1.1" width="1260" height="100" viewBox="0 0 1260 100" xml:space="preserve">
<desc>Created with Fabric.js 3.6.6</desc>
<defs>
</defs>
<g transform="matrix(3.12 0 0 0.85 629.66 62.73)"  >
<linearGradient id="SVGID_6" gradientUnits="userSpaceOnUse" gradientTransform="matrix(1 0 0 1 0 0)"  x1="201" y1="146" x2="201" y2="44.3372">
<stop offset="0%" style="stop-color:rgb(206,210,223);stop-opacity: 0"/>
<stop offset="100%" style="stop-color:rgb(93,96,106);stop-opacity: 1"/>
</linearGradient>
<path style="stroke: url(#SVGID_6); stroke-width: 0.37; stroke-dasharray: none; stroke-linecap: round; stroke-dashoffset: 0; stroke-linejoin: round; stroke-miterlimit: 10; fill: none; fill-rule: nonzero; opacity: 0.5;"  transform=" translate(-201, -73.5)" d="M 395.338 144.941 L 392.215 146 M 395.338 144.941 H 386.084 M 395.338 144.941 L 398.565 143.847 M 395.338 144.941 H 401.892 M 392.215 146 L 393.351 146 L 394.476 145.997 L 395.577 145.991 L 396.644 145.978 L 397.664 145.958 L 398.627 145.927 L 399.522 145.883 L 400.352 145.829 L 401.065 145.753 L 401.714 145.665 L 401.892 145.634 V 144.941 M 392.215 146 H 383.11 M 383.11 146 H 374.004 M 383.11 146 L 386.084 144.941 M 374.004 146 H 364.899 M 374.004 146 L 376.83 144.941 M 364.899 146 H 355.793 M 364.899 146 L 367.576 144.941 M 355.793 146 H 346.688 M 355.793 146 L 358.321 144.941 M 346.688 146 H 337.582 M 346.688 146 L 349.067 144.941 M 337.582 146 H 328.477 M 337.582 146 L 339.813 144.941 M 328.477 146 H 319.371 M 328.477 146 L 330.559 144.941 M 319.371 146 H 310.266 M 319.371 146 L 321.304 144.941 M 310.266 146 H 301.16 M 310.266 146 L 312.05 144.941 M 301.16 146 H 292.055 M 301.16 146 L 302.796 144.941 M 292.055 146 H 282.949 M 292.055 146 L 293.542 144.941 M 282.949 146 H 273.844 M 282.949 146 L 283.28 145.738 L 283.781 145.342 L 284.288 144.941 M 273.844 146 H 264.738 M 273.844 146 L 274.138 145.738 L 275.033 144.941 M 264.738 146 H 255.633 M 264.738 146 L 265.779 144.941 M 255.633 146 H 246.527 M 255.633 146 L 255.964 145.607 L 256.299 145.209 L 256.412 145.075 L 256.525 144.941 M 246.527 146 H 237.422 M 246.527 146 L 246.803 145.607 L 246.896 145.475 L 246.989 145.342 L 247.271 144.941 M 237.422 146 H 228.316 M 237.422 146 L 238.017 144.941 M 228.316 146 L 228.372 145.87 L 228.427 145.738 L 228.706 145.075 L 228.763 144.941 M 228.316 146 H 219.211 M 219.211 146 H 210.105 M 219.211 146 L 219.508 144.941 M 210.105 146 H 201 M 210.105 146 L 210.161 145.607 L 210.254 144.941 M 201 146 H 191.895 M 201 146 V 144.941 M 191.895 146 H 182.789 M 191.895 146 L 191.839 145.607 L 191.746 144.941 M 182.789 146 H 173.684 M 182.789 146 L 182.492 144.941 M 173.684 146 L 173.629 145.87 L 173.573 145.738 L 173.294 145.075 L 173.237 144.941 M 173.684 146 H 164.578 M 164.578 146 H 155.472 M 164.578 146 L 164.059 145.075 L 163.983 144.941 M 155.472 146 H 146.367 M 155.472 146 L 155.197 145.607 L 155.104 145.475 L 154.917 145.209 L 154.823 145.075 L 154.729 144.941 M 146.367 146 H 137.262 M 146.367 146 L 146.036 145.607 L 145.701 145.209 L 145.588 145.075 L 145.475 144.941 M 137.262 146 H 128.156 M 137.262 146 L 136.221 144.941 M 128.156 146 H 119.051 M 128.156 146 L 127.862 145.738 L 126.967 144.941 M 119.051 146 H 109.945 M 119.051 146 L 117.712 144.941 M 109.945 146 H 100.84 M 109.945 146 L 108.458 144.941 M 100.84 146 H 91.7341 M 100.84 146 L 99.2039 144.941 M 91.7341 146 H 82.6287 M 91.7341 146 L 89.9497 144.941 M 82.6287 146 H 73.5233 M 82.6287 146 L 80.6955 144.941 M 73.5233 146 H 64.4178 M 73.5233 146 L 71.4413 144.941 M 64.4178 146 H 55.3122 M 64.4178 146 L 62.1871 144.941 M 55.3122 146 H 46.2068 M 55.3122 146 L 52.9329 144.941 M 46.2068 146 H 37.1014 M 46.2068 146 L 43.6787 144.941 M 37.1014 146 H 27.9957 M 37.1014 146 L 34.4245 144.941 M 27.9957 146 H 18.8903 M 27.9957 146 L 25.1705 144.941 M 18.8903 146 H 9.7849 M 18.8903 146 L 15.9163 144.941 M 9.7849 146 L 8.6486 146 L 7.52403 145.997 L 6.42289 145.991 L 5.35628 145.978 L 4.33592 145.958 L 3.37268 145.927 L 2.47808 145.883 L 1.64773 145.829 L 0.935194 145.753 L 0.286481 145.665 L 0.10819 145.634 V 144.941 M 9.7849 146 L 6.66207 144.941 M 25.1705 144.941 H 34.4245 M 25.1705 144.941 H 15.9163 M 25.1705 144.941 L 22.2511 143.847 M 34.4245 144.941 L 31.6589 143.847 M 34.4245 144.941 H 43.6787 M 62.1871 144.941 H 71.4413 M 62.1871 144.941 H 52.9329 M 62.1871 144.941 L 61.6181 144.671 L 59.8825 143.847 M 71.4413 144.941 L 69.2903 143.847 M 71.4413 144.941 H 80.6955 M 99.2039 144.941 H 108.458 M 99.2039 144.941 H 89.9497 M 99.2039 144.941 L 98.7867 144.671 L 98.5766 144.535 L 97.5137 143.847 M 108.458 144.941 L 108.269 144.806 L 108.079 144.671 L 106.922 143.847 M 108.458 144.941 H 117.712 M 136.221 144.941 L 136.088 144.806 L 135.145 143.847 M 136.221 144.941 H 145.475 M 136.221 144.941 H 126.967 M 145.475 144.941 L 145.247 144.671 L 145.133 144.535 L 145.018 144.399 L 144.553 143.847 M 145.475 144.941 H 154.729 M 173.237 144.941 H 182.492 M 173.237 144.941 H 163.983 M 173.237 144.941 L 172.777 143.847 M 182.492 144.941 L 182.454 144.806 L 182.416 144.671 L 182.378 144.535 L 182.262 144.124 L 182.184 143.847 M 182.492 144.941 H 191.746 M 210.254 144.941 H 219.508 M 210.254 144.941 H 201 M 210.254 144.941 L 210.408 143.847 M 219.508 144.941 L 219.546 144.806 L 219.584 144.671 L 219.622 144.535 L 219.816 143.847 M 219.508 144.941 H 228.763 M 247.271 144.941 H 256.525 M 247.271 144.941 H 238.017 M 247.271 144.941 L 247.461 144.671 L 247.845 144.124 L 247.942 143.986 L 248.039 143.847 M 256.525 144.941 L 256.753 144.671 L 256.867 144.535 L 256.982 144.399 L 257.447 143.847 M 256.525 144.941 H 265.779 M 284.288 144.941 H 293.542 M 284.288 144.941 H 275.033 M 284.288 144.941 L 284.629 144.671 L 284.801 144.535 L 285.67 143.847 M 293.542 144.941 L 293.731 144.806 L 293.921 144.671 L 295.078 143.847 M 293.542 144.941 H 302.796 M 321.304 144.941 H 330.559 M 321.304 144.941 H 312.05 M 321.304 144.941 L 321.798 144.671 L 322.046 144.535 L 323.302 143.847 M 330.559 144.941 L 332.71 143.847 M 330.559 144.941 H 339.813 M 358.321 144.941 H 367.576 M 358.321 144.941 H 349.067 M 358.321 144.941 L 360.933 143.847 M 367.576 144.941 L 370.341 143.847 M 367.576 144.941 H 376.83 M 0.0757545 135.039 H 0.10819 M 9.39023 135.039 L 12.9234 136.436 M 9.39023 135.039 L 5.72165 133.588 M 9.39023 135.039 H 20.0352 M 9.39023 135.039 H 0.10819 M 12.9234 136.436 H 2.47474 M 12.9234 136.436 L 16.3287 137.783 M 12.9234 136.436 H 23.3721 M 2.47474 136.436 L 6.06923 137.783 M 2.47474 136.436 H 0.10819 M 2.47474 136.436 L 0.10819 135.549 M 12.8811 140.336 H 22.7822 M 12.8811 140.336 L 16.1117 141.547 M 12.8811 140.336 H 2.98031 M 12.8811 140.336 L 9.53567 139.082 M 22.7822 140.336 L 25.8428 141.547 M 22.7822 140.336 L 19.6129 139.082 M 22.7822 140.336 H 32.6832 M 16.1117 141.547 H 25.8428 M 16.1117 141.547 L 19.2333 142.716 M 16.1117 141.547 H 6.38083 M 25.8428 141.547 H 35.5738 M 25.8428 141.547 L 28.7999 142.716 M 0.00627921 112.98 H 0.10819 M 8.59566 112.98 L 13.1517 115.297 M 8.59566 112.98 L 3.81318 110.547 M 8.59566 112.98 H 22.339 M 8.59566 112.98 H 0.10819 M 13.1517 115.297 L 17.4971 117.506 M 13.1517 115.297 H 26.5694 M 13.1517 115.297 H 0.10819 M 4.38969 117.506 H 17.4971 M 4.38969 117.506 L 8.83485 119.616 M 4.38969 117.506 H 0.10819 M 4.38969 117.506 L 0.10819 115.474 M 13.0833 121.633 H 25.611 M 13.0833 121.633 L 17.148 123.562 M 13.0833 121.633 H 0.555593 M 13.0833 121.633 L 8.83485 119.616 M 25.611 121.633 L 29.4049 123.562 M 25.611 121.633 L 21.6457 119.616 M 25.611 121.633 H 38.1389 M 17.148 123.562 H 29.4049 M 17.148 123.562 H 4.8913 M 17.148 123.562 L 21.0407 125.41 M 29.4049 123.562 L 33.0379 125.41 M 29.4049 123.562 H 41.6616 M 28.3515 128.88 H 39.8613 M 28.3515 128.88 L 31.7886 130.512 M 28.3515 128.88 H 16.8416 M 28.3515 128.88 L 24.7718 127.181 M 39.8613 128.88 L 43.0693 130.512 M 39.8613 128.88 L 36.5205 127.181 M 39.8613 128.88 H 51.3714 M 31.7886 130.512 H 43.0693 M 31.7886 130.512 H 20.5079 M 31.7886 130.512 L 35.0916 132.08 M 43.0693 130.512 L 46.1522 132.08 M 43.0693 130.512 H 54.3502 M 41.3251 135.039 H 51.9701 M 41.3251 135.039 L 44.2694 136.436 M 41.3251 135.039 H 30.6802 M 41.3251 135.039 L 38.268 133.588 M 51.9701 135.039 L 54.7181 136.436 M 51.9701 135.039 L 49.1168 133.588 M 51.9701 135.039 H 62.615 M 44.2694 136.436 H 54.7181 M 44.2694 136.436 H 33.8208 M 44.2694 136.436 L 47.1072 137.783 M 54.7181 136.436 L 57.3668 137.783 M 54.7181 136.436 H 65.1668 M 52.4851 140.336 H 62.3861 M 52.4851 140.336 L 55.0356 141.547 M 52.4851 140.336 H 42.5843 M 52.4851 140.336 L 49.844 139.082 M 62.3861 140.336 L 64.7665 141.547 M 62.3861 140.336 L 59.921 139.082 M 62.3861 140.336 H 72.2872 M 55.0356 141.547 H 64.7665 M 55.0356 141.547 L 57.5001 142.716 M 55.0356 141.547 H 45.3047 M 64.7665 141.547 H 74.4976 M 64.7665 141.547 L 67.0667 142.716 M 7.14924 72.8087 L 13.5615 77.3743 M 7.14924 72.8087 L 0.282505 67.9197 M 7.14924 72.8087 H 26.5343 M 7.14924 72.8087 H 0.10819 M 13.5615 77.3743 L 19.5633 81.6475 M 13.5615 77.3743 H 32.3053 M 13.5615 77.3743 H 0.10819 M 13.4313 89.4226 H 30.483 M 13.4313 89.4226 L 18.9108 92.9692 M 13.4313 89.4226 L 7.61171 85.6556 M 13.4313 89.4226 H 0.10819 M 30.483 89.4226 L 35.4643 92.9692 M 30.483 89.4226 L 25.1925 85.6556 M 30.483 89.4226 H 47.5348 M 18.9108 92.9692 H 35.4643 M 18.9108 92.9692 H 2.35734 M 18.9108 92.9692 L 24.0794 96.3148 M 35.4643 92.9692 L 40.1631 96.3148 M 35.4643 92.9692 H 52.018 M 33.5833 102.467 H 48.8031 M 33.5833 102.467 L 37.9625 105.301 M 33.5833 102.467 H 18.3636 M 33.5833 102.467 L 28.9625 99.4754 M 48.8031 102.467 L 52.7841 105.301 M 48.8031 102.467 L 44.6022 99.4754 M 48.8031 102.467 H 64.0228 M 37.9625 105.301 H 52.7841 M 37.9625 105.301 H 23.1409 M 37.9625 105.301 L 42.1182 107.991 M 52.7841 105.301 L 56.5621 107.991 M 52.7841 105.301 H 67.6055 M 49.8251 112.98 H 63.5684 M 49.8251 112.98 L 53.405 115.297 M 49.8251 112.98 H 36.0821 M 49.8251 112.98 L 46.0676 110.547 M 63.5684 112.98 L 66.8227 115.297 M 63.5684 112.98 L 60.1522 110.547 M 63.5684 112.98 H 77.3115 M 53.405 115.297 H 66.8227 M 53.405 115.297 H 39.9873 M 53.405 115.297 L 56.8191 117.506 M 66.8227 115.297 L 69.9265 117.506 M 66.8227 115.297 H 80.2404 M 63.1945 121.633 H 75.7222 M 63.1945 121.633 L 66.1752 123.562 M 63.1945 121.633 H 50.6666 M 63.1945 121.633 L 60.0788 119.616 M 75.7222 121.633 L 78.4321 123.562 M 75.7222 121.633 L 72.8898 119.616 M 75.7222 121.633 H 88.2499 M 66.1752 123.562 H 78.4321 M 66.1752 123.562 H 53.9185 M 66.1752 123.562 L 69.0298 125.41 M 78.4321 123.562 L 81.0272 125.41 M 78.4321 123.562 H 90.6888 M 74.3911 128.88 H 85.9009 M 74.3911 128.88 L 76.9116 130.512 M 74.3911 128.88 H 62.8812 M 74.3911 128.88 L 71.7661 127.181 M 85.9009 128.88 L 86.1926 129.088 L 88.1923 130.512 M 85.9009 128.88 L 83.5147 127.181 M 85.9009 128.88 H 97.411 M 76.9116 130.512 H 88.1923 M 76.9116 130.512 H 65.6309 M 76.9116 130.512 L 79.3339 132.08 M 88.1923 130.512 L 90.3944 132.08 M 88.1923 130.512 H 99.4732 M 83.905 135.039 H 94.5501 M 83.905 135.039 L 86.0644 136.436 M 83.905 135.039 H 73.26 M 83.905 135.039 L 81.6632 133.588 M 94.5501 135.039 L 96.513 136.436 M 94.5501 135.039 L 93.7949 134.501 L 92.5119 133.588 M 94.5501 135.039 H 105.195 M 86.0644 136.436 H 96.513 M 86.0644 136.436 H 75.6157 M 86.0644 136.436 L 88.1453 137.783 M 96.513 136.436 L 98.4048 137.783 M 96.513 136.436 H 106.962 M 92.089 140.336 H 101.99 M 92.089 140.336 L 93.9594 141.547 M 92.089 140.336 H 82.1882 M 92.089 140.336 L 90.1523 139.082 M 101.99 140.336 L 103.271 141.248 L 103.481 141.398 L 103.691 141.547 M 101.99 140.336 L 100.229 139.082 M 101.99 140.336 H 111.891 M 93.9594 141.547 H 103.691 M 93.9594 141.547 L 95.7666 142.716 M 93.9594 141.547 H 84.2285 M 103.691 141.547 H 113.421 M 103.691 141.547 L 105.333 142.716 M 14.1727 20.8003 H 40.8624 M 14.1727 20.8003 L 22.5767 29.3483 M 14.1727 20.8003 L 4.93796 11.407 M 14.1727 20.8003 L 0.10819 20.8001 M 40.8624 20.8003 L 48.0659 29.3483 M 40.8624 20.8003 L 32.9469 11.407 M 40.8624 20.8003 H 67.552 M 22.5767 29.3483 H 48.0659 M 22.5767 29.3483 L 30.2572 37.1605 M 22.5767 29.3483 H 0.10819 M 48.0659 29.3483 L 54.6491 37.1605 M 48.0659 29.3483 H 73.5549 M 43.7917 50.927 H 66.2501 M 43.7917 50.927 L 49.785 57.0232 M 43.7917 50.927 H 21.3335 M 43.7917 50.927 L 37.3037 44.3278 M 66.2501 50.927 L 71.3871 57.0232 M 66.2501 50.927 L 60.689 44.3278 M 66.2501 50.927 H 88.7084 M 49.785 57.0232 H 71.3871 M 49.785 57.0232 H 28.1828 M 49.785 57.0232 L 55.3382 62.6714 M 71.3871 57.0232 L 76.147 62.6714 M 71.3871 57.0232 H 92.9893 M 65.3045 72.8087 H 84.6895 M 65.3045 72.8087 L 69.7932 77.3743 M 65.3045 72.8087 H 45.9193 M 65.3045 72.8087 L 60.4977 67.9197 M 84.6895 72.8087 L 88.537 77.3743 M 84.6895 72.8087 L 80.5695 67.9197 M 84.6895 72.8087 H 104.075 M 69.7932 77.3743 H 88.537 M 69.7932 77.3743 H 51.0491 M 69.7932 77.3743 L 73.9943 81.6475 M 88.537 77.3743 L 92.138 81.6475 M 88.537 77.3743 H 107.281 M 81.638 89.4226 H 98.6898 M 81.638 89.4226 L 85.1252 92.9692 M 81.638 89.4226 H 64.5865 M 81.638 89.4226 L 77.9347 85.6556 M 98.6898 89.4226 L 101.679 92.9692 M 98.6898 89.4226 L 95.5155 85.6556 M 98.6898 89.4226 H 115.742 M 85.1252 92.9692 H 101.679 M 85.1252 92.9692 H 68.5715 M 85.1252 92.9692 L 88.4142 96.3148 M 101.679 92.9692 L 104.498 96.3148 M 101.679 92.9692 H 118.232 M 94.4621 102.467 H 109.682 M 94.4621 102.467 L 97.2488 105.301 M 94.4621 102.467 H 79.2424 M 94.4621 102.467 L 91.5215 99.4754 M 109.682 102.467 L 112.07 105.301 M 109.682 102.467 L 107.161 99.4754 M 109.682 102.467 H 124.902 M 97.2488 105.301 H 112.07 M 97.2488 105.301 H 82.4272 M 97.2488 105.301 L 99.8934 107.991 M 112.07 105.301 L 114.337 107.991 M 112.07 105.301 H 126.892 M 104.798 112.98 H 118.541 M 104.798 112.98 L 107.076 115.297 M 104.798 112.98 H 91.0546 M 104.798 112.98 L 102.407 110.547 M 118.541 112.98 L 120.494 115.297 M 118.541 112.98 L 116.491 110.547 M 118.541 112.98 H 132.284 M 107.076 115.297 H 120.494 M 107.076 115.297 H 93.6581 M 107.076 115.297 L 109.249 117.506 M 120.494 115.297 L 122.356 117.506 M 120.494 115.297 H 133.911 M 113.306 121.633 H 125.833 M 113.306 121.633 L 115.202 123.562 M 113.306 121.633 H 100.778 M 113.306 121.633 L 111.323 119.616 M 125.833 121.633 L 127.459 123.562 M 125.833 121.633 L 124.134 119.616 M 125.833 121.633 H 138.361 M 115.202 123.562 H 127.459 M 115.202 123.562 H 102.946 M 115.202 123.562 L 117.019 125.41 M 127.459 123.562 L 129.016 125.41 M 127.459 123.562 H 139.716 M 120.431 128.88 H 131.941 M 120.431 128.88 L 122.035 130.512 M 120.431 128.88 H 108.921 M 120.431 128.88 L 118.76 127.181 M 131.941 128.88 L 131.765 128.672 L 130.509 127.181 M 131.941 128.88 L 133.315 130.512 M 131.941 128.88 H 143.451 M 122.035 130.512 H 133.315 M 122.035 130.512 H 110.754 M 122.035 130.512 L 123.576 132.08 M 133.315 130.512 L 134.637 132.08 M 133.315 130.512 H 144.596 M 126.485 135.039 H 137.13 M 126.485 135.039 L 127.859 136.436 M 126.485 135.039 H 115.84 M 126.485 135.039 L 125.059 133.588 M 137.13 135.039 L 138.308 136.436 M 137.13 135.039 L 136.677 134.501 L 136.371 134.138 L 135.907 133.588 M 137.13 135.039 H 147.775 M 127.859 136.436 H 138.308 M 127.859 136.436 H 117.41 M 127.859 136.436 L 129.183 137.783 M 138.308 136.436 L 138.738 136.947 L 139.022 137.284 L 139.443 137.783 M 138.308 136.436 H 148.756 M 131.693 140.336 H 141.594 M 131.693 140.336 L 132.59 141.248 L 132.883 141.547 M 131.693 140.336 H 121.792 M 131.693 140.336 L 130.617 139.241 L 130.461 139.082 M 141.594 140.336 L 142.363 141.248 L 142.489 141.398 L 142.614 141.547 M 141.594 140.336 L 141.07 139.715 L 140.538 139.082 M 141.594 140.336 H 151.495 M 132.883 141.547 H 142.614 M 132.883 141.547 L 134.033 142.716 M 132.883 141.547 H 123.152 M 142.614 141.547 H 152.345 M 142.614 141.547 L 143.6 142.716 M 120.931 20.8003 H 147.621 M 120.931 20.8003 L 124.533 29.3483 M 120.931 20.8003 H 94.2417 M 120.931 20.8003 L 116.973 11.407 M 147.621 20.8003 L 150.022 29.3483 M 147.621 20.8003 L 144.982 11.407 M 147.621 20.8003 H 174.31 M 124.533 29.3483 H 150.022 M 124.533 29.3483 H 99.0438 M 124.533 29.3483 L 127.825 37.1605 M 150.022 29.3483 L 152.216 37.1605 M 150.022 29.3483 H 175.511 M 133.625 50.927 H 156.083 M 133.625 50.927 L 136.194 57.0232 M 133.625 50.927 H 111.167 M 133.625 50.927 L 130.844 44.3278 M 156.083 50.927 L 157.796 57.0232 M 156.083 50.927 L 154.23 44.3278 M 156.083 50.927 H 178.542 M 136.194 57.0232 H 157.796 M 136.194 57.0232 H 114.591 M 136.194 57.0232 L 138.574 62.6714 M 157.796 57.0232 L 159.382 62.6714 M 157.796 57.0232 H 179.398 M 142.845 72.8087 H 162.23 M 142.845 72.8087 L 144.769 77.3743 M 142.845 72.8087 H 123.46 M 142.845 72.8087 L 140.785 67.9197 M 162.23 72.8087 L 163.512 77.3743 M 162.23 72.8087 L 160.857 67.9197 M 162.23 72.8087 H 181.615 M 144.769 77.3743 H 163.512 M 144.769 77.3743 H 126.025 M 144.769 77.3743 L 146.569 81.6475 M 163.512 77.3743 L 164.713 81.6475 M 163.512 77.3743 H 182.256 M 149.845 89.4226 H 166.897 M 149.845 89.4226 L 151.339 92.9692 M 149.845 89.4226 H 132.793 M 149.845 89.4226 L 148.258 85.6556 M 166.897 89.4226 L 167.893 92.9692 M 166.897 89.4226 L 165.839 85.6556 M 166.897 89.4226 H 183.948 M 151.339 92.9692 H 167.893 M 151.339 92.9692 H 134.786 M 151.339 92.9692 L 152.749 96.3148 M 167.893 92.9692 L 168.833 96.3148 M 167.893 92.9692 H 184.447 M 155.341 102.467 H 170.561 M 155.341 102.467 L 156.535 105.301 M 155.341 102.467 H 140.121 M 155.341 102.467 L 154.081 99.4754 M 170.561 102.467 L 171.357 105.301 M 170.561 102.467 L 169.721 99.4754 M 170.561 102.467 H 185.78 M 156.535 105.301 H 171.357 M 156.535 105.301 H 141.714 M 156.535 105.301 L 157.669 107.991 M 171.357 105.301 L 172.112 107.991 M 171.357 105.301 H 186.178 M 159.771 112.98 H 173.514 M 159.771 112.98 L 160.747 115.297 M 159.771 112.98 H 146.027 M 159.771 112.98 L 158.746 110.547 M 173.514 112.98 L 174.165 115.297 M 173.514 112.98 L 172.83 110.547 M 173.514 112.98 H 187.257 M 160.747 115.297 H 174.165 M 160.747 115.297 H 147.329 M 160.747 115.297 L 161.101 116.137 L 161.678 117.506 M 174.165 115.297 L 174.785 117.506 M 174.165 115.297 H 187.582 M 163.417 121.633 H 175.944 M 163.417 121.633 L 164.23 123.562 M 163.417 121.633 H 150.889 M 163.417 121.633 L 162.783 120.129 L 162.567 119.616 M 175.944 121.633 L 176.151 122.367 L 176.486 123.562 M 175.944 121.633 L 175.378 119.616 M 175.944 121.633 H 188.472 M 164.23 123.562 L 164.329 123.798 L 165.008 125.41 M 164.23 123.562 H 176.486 M 164.23 123.562 H 151.973 M 176.486 123.562 L 176.684 124.265 L 176.749 124.496 L 176.813 124.726 L 177.005 125.41 M 176.486 123.562 H 188.743 M 166.47 128.88 H 177.98 M 166.47 128.88 L 166.817 129.704 L 166.903 129.908 L 166.988 130.11 L 167.073 130.311 L 167.158 130.512 M 166.47 128.88 H 154.96 M 166.47 128.88 L 165.754 127.181 M 177.98 128.88 L 178.326 130.11 L 178.382 130.311 L 178.438 130.512 M 177.98 128.88 L 177.503 127.181 M 177.98 128.88 H 189.49 M 167.158 130.512 H 178.438 M 167.158 130.512 H 155.877 M 167.158 130.512 L 167.574 131.499 L 167.656 131.694 L 167.818 132.08 M 178.438 130.512 L 178.716 131.499 L 178.77 131.694 L 178.825 131.887 L 178.879 132.08 M 178.438 130.512 H 189.719 M 169.065 135.039 H 179.71 M 169.065 135.039 L 169.654 136.436 M 169.065 135.039 H 158.42 M 169.065 135.039 L 168.914 134.681 L 168.686 134.138 L 168.454 133.588 M 179.71 135.039 L 179.66 134.86 L 179.354 133.772 L 179.302 133.588 M 179.71 135.039 L 180.103 136.436 M 179.71 135.039 H 190.355 M 169.654 136.436 H 180.103 M 169.654 136.436 H 159.205 M 169.654 136.436 L 170.222 137.783 M 180.103 136.436 L 180.246 136.947 L 180.294 137.116 L 180.341 137.284 L 180.481 137.783 M 180.103 136.436 H 190.551 M 171.297 140.336 H 181.198 M 171.297 140.336 L 171.681 141.248 L 171.807 141.547 M 171.297 140.336 H 161.396 M 171.297 140.336 L 171.101 139.871 L 171.035 139.715 L 170.969 139.558 L 170.769 139.082 M 181.198 140.336 L 181.241 140.49 L 181.327 140.795 L 181.412 141.097 L 181.538 141.547 M 181.198 140.336 L 181.023 139.715 L 180.979 139.558 L 180.891 139.241 L 180.846 139.082 M 181.198 140.336 H 191.099 M 171.807 141.547 H 181.538 M 171.807 141.547 L 172.239 142.572 L 172.3 142.716 M 171.807 141.547 H 162.076 M 181.538 141.547 L 181.58 141.695 L 181.621 141.843 L 181.663 141.99 L 181.704 142.136 L 181.826 142.572 L 181.867 142.716 M 181.538 141.547 H 191.269 M 227.69 20.8003 H 254.379 M 227.69 20.8003 L 226.489 29.3483 M 227.69 20.8003 H 201 M 227.69 20.8003 L 229.009 11.407 M 254.379 20.8003 L 251.978 29.3483 M 254.379 20.8003 L 257.018 11.407 M 254.379 20.8003 H 281.069 M 226.489 29.3483 H 251.978 M 226.489 29.3483 H 201 M 226.489 29.3483 L 225.392 37.1605 M 251.978 29.3483 L 249.784 37.1605 M 251.978 29.3483 H 277.467 M 223.458 50.927 H 245.917 M 223.458 50.927 L 222.602 57.0232 M 223.458 50.927 H 201 M 223.458 50.927 L 224.385 44.3278 M 245.917 50.927 L 244.204 57.0232 M 245.917 50.927 L 247.77 44.3278 M 245.917 50.927 H 268.375 M 222.602 57.0232 H 244.204 M 222.602 57.0232 H 201 M 222.602 57.0232 L 221.809 62.6714 M 244.204 57.0232 L 242.618 62.6714 M 244.204 57.0232 H 265.806 M 220.385 72.8087 H 239.77 M 220.385 72.8087 L 219.744 77.3743 M 220.385 72.8087 H 201 M 220.385 72.8087 L 221.072 67.9197 M 239.77 72.8087 L 238.488 77.3743 M 239.77 72.8087 L 241.143 67.9197 M 239.77 72.8087 H 259.155 M 219.744 77.3743 H 238.488 M 219.744 77.3743 H 201 M 219.744 77.3743 L 219.144 81.6475 M 238.488 77.3743 L 237.287 81.6475 M 238.488 77.3743 H 257.232 M 218.052 89.4226 H 235.103 M 218.052 89.4226 L 217.553 92.9692 M 218.052 89.4226 H 201 M 218.052 89.4226 L 218.581 85.6556 M 235.103 89.4226 L 234.107 92.9692 M 235.103 89.4226 L 236.162 85.6556 M 235.103 89.4226 H 252.155 M 217.553 92.9692 H 234.107 M 217.553 92.9692 H 201 M 217.553 92.9692 L 217.084 96.3148 M 234.107 92.9692 L 233.167 96.3148 M 234.107 92.9692 H 250.661 M 216.22 102.467 H 231.439 M 216.22 102.467 L 215.822 105.301 M 216.22 102.467 H 201 M 216.22 102.467 L 216.64 99.4754 M 231.439 102.467 L 230.643 105.301 M 231.439 102.467 L 232.279 99.4754 M 231.439 102.467 H 246.659 M 215.822 105.301 H 230.643 M 215.822 105.301 H 201 M 215.822 105.301 L 215.444 107.991 M 230.643 105.301 L 229.888 107.991 M 230.643 105.301 H 245.465 M 214.743 112.98 H 228.486 M 214.743 112.98 L 214.418 115.297 M 214.743 112.98 H 201 M 214.743 112.98 L 215.085 110.547 M 228.486 112.98 L 227.835 115.297 M 228.486 112.98 L 229.17 110.547 M 228.486 112.98 H 242.229 M 214.418 115.297 H 227.835 M 214.418 115.297 H 201 M 214.418 115.297 L 214.107 117.506 M 227.835 115.297 L 227.215 117.506 M 227.835 115.297 H 241.253 M 213.528 121.633 H 226.056 M 213.528 121.633 L 213.257 123.562 M 213.528 121.633 H 201 M 213.528 121.633 L 213.811 119.616 M 226.056 121.633 L 225.58 123.326 L 225.514 123.562 M 226.056 121.633 L 226.622 119.616 M 226.056 121.633 H 238.583 M 213.257 123.562 L 213.224 123.798 L 212.997 125.41 M 213.257 123.562 H 225.514 M 213.257 123.562 H 201 M 225.514 123.562 L 225.316 124.265 L 225.251 124.496 L 225.187 124.726 L 224.995 125.41 M 225.514 123.562 H 237.77 M 212.51 128.88 H 224.02 M 212.51 128.88 L 212.281 130.512 M 212.51 128.88 H 201 M 212.51 128.88 L 212.598 128.251 L 212.628 128.04 L 212.658 127.827 L 212.718 127.397 L 212.749 127.181 M 224.02 128.88 L 223.674 130.11 L 223.561 130.512 M 224.02 128.88 L 224.497 127.181 M 224.02 128.88 H 235.53 M 212.281 130.512 H 223.561 M 212.281 130.512 H 201 M 212.281 130.512 L 212.061 132.08 M 223.561 130.512 L 223.284 131.499 L 223.23 131.694 L 223.175 131.887 L 223.121 132.08 M 223.561 130.512 H 234.842 M 211.645 135.039 H 222.29 M 211.645 135.039 L 211.449 136.436 M 211.645 135.039 H 201 M 211.645 135.039 L 211.849 133.588 M 222.29 135.039 L 222.34 134.86 L 222.646 133.772 L 222.698 133.588 M 222.29 135.039 L 221.897 136.436 M 222.29 135.039 H 232.935 M 211.449 136.436 H 221.897 M 211.449 136.436 H 201 M 211.449 136.436 L 211.26 137.783 M 221.897 136.436 L 221.754 136.947 L 221.706 137.116 L 221.659 137.284 L 221.519 137.783 M 221.897 136.436 H 232.346 M 210.901 140.336 H 220.802 M 210.901 140.336 L 210.731 141.547 M 210.901 140.336 H 201 M 210.901 140.336 L 211.077 139.082 M 220.802 140.336 L 220.759 140.49 L 220.673 140.795 L 220.63 140.947 L 220.546 141.248 L 220.504 141.398 L 220.462 141.547 M 220.802 140.336 L 220.977 139.715 L 221.021 139.558 L 221.109 139.241 L 221.154 139.082 M 220.802 140.336 H 230.703 M 210.731 141.547 L 210.71 141.695 L 210.689 141.843 L 210.669 141.99 L 210.567 142.716 M 210.731 141.547 H 220.462 M 210.731 141.547 H 201 M 220.462 141.547 H 230.193 M 220.462 141.547 L 220.379 141.843 L 220.337 141.99 L 220.296 142.136 L 220.174 142.572 L 220.133 142.716 M 334.448 20.8003 H 361.138 M 334.448 20.8003 L 328.445 29.3483 M 334.448 20.8003 H 307.759 M 334.448 20.8003 L 341.044 11.407 M 361.138 20.8003 L 353.934 29.3483 M 361.138 20.8003 L 369.053 11.407 M 361.138 20.8003 H 387.827 M 328.445 29.3483 H 353.934 M 328.445 29.3483 H 302.956 M 328.445 29.3483 L 322.959 37.1605 M 353.934 29.3483 L 347.351 37.1605 M 353.934 29.3483 H 379.423 M 313.292 50.927 H 335.75 M 313.292 50.927 L 309.011 57.0232 M 313.292 50.927 H 290.833 M 313.292 50.927 L 317.926 44.3278 M 335.75 50.927 L 330.613 57.0232 M 335.75 50.927 L 341.311 44.3278 M 335.75 50.927 H 358.208 M 309.011 57.0232 H 330.613 M 309.011 57.0232 H 287.409 M 309.011 57.0232 L 305.044 62.6714 M 330.613 57.0232 L 325.853 62.6714 M 330.613 57.0232 H 352.215 M 297.925 72.8087 H 317.311 M 297.925 72.8087 L 294.719 77.3743 M 297.925 72.8087 H 278.54 M 297.925 72.8087 L 301.359 67.9197 M 317.311 72.8087 L 313.463 77.3743 M 317.311 72.8087 L 321.43 67.9197 M 317.311 72.8087 H 336.696 M 294.719 77.3743 H 313.463 M 294.719 77.3743 H 275.975 M 294.719 77.3743 L 291.718 81.6475 M 313.463 77.3743 L 309.862 81.6475 M 313.463 77.3743 H 332.207 M 286.258 89.4226 H 303.31 M 286.258 89.4226 L 283.768 92.9692 M 286.258 89.4226 H 269.207 M 286.258 89.4226 L 288.904 85.6556 M 303.31 89.4226 L 300.321 92.9692 M 303.31 89.4226 L 306.485 85.6556 M 303.31 89.4226 H 320.362 M 283.768 92.9692 H 300.321 M 283.768 92.9692 H 267.214 M 283.768 92.9692 L 281.418 96.3148 M 300.321 92.9692 L 297.502 96.3148 M 300.321 92.9692 H 316.875 M 277.098 102.467 H 292.318 M 277.098 102.467 L 275.108 105.301 M 277.098 102.467 H 261.879 M 277.098 102.467 L 279.199 99.4754 M 292.318 102.467 L 289.93 105.301 M 292.318 102.467 L 294.839 99.4754 M 292.318 102.467 H 307.538 M 275.108 105.301 H 289.93 M 275.108 105.301 H 260.286 M 275.108 105.301 L 273.219 107.991 M 289.93 105.301 L 287.663 107.991 M 289.93 105.301 H 304.751 M 269.716 112.98 H 283.459 M 269.716 112.98 L 268.089 115.297 M 269.716 112.98 H 255.973 M 269.716 112.98 L 271.424 110.547 M 283.459 112.98 L 281.506 115.297 M 283.459 112.98 L 285.509 110.547 M 283.459 112.98 H 297.202 M 268.089 115.297 H 281.506 M 268.089 115.297 H 254.671 M 268.089 115.297 L 266.537 117.506 M 281.506 115.297 L 279.644 117.506 M 281.506 115.297 H 294.924 M 263.639 121.633 L 263.812 121.386 L 263.987 121.137 L 265.055 119.616 M 263.639 121.633 H 276.167 M 263.639 121.633 L 262.284 123.562 M 263.639 121.633 H 251.111 M 276.167 121.633 L 274.541 123.562 M 276.167 121.633 L 277.866 119.616 M 276.167 121.633 H 288.694 M 262.284 123.562 H 274.541 M 262.284 123.562 H 250.027 M 262.284 123.562 L 260.987 125.41 M 274.541 123.562 L 272.984 125.41 M 274.541 123.562 H 286.798 M 258.549 128.88 H 270.06 M 258.549 128.88 L 257.404 130.512 M 258.549 128.88 H 247.04 M 258.549 128.88 L 259.743 127.181 M 270.06 128.88 L 269.194 129.908 L 268.685 130.512 M 270.06 128.88 L 271.491 127.181 M 270.06 128.88 H 281.569 M 257.404 130.512 H 268.685 M 257.404 130.512 H 246.123 M 257.404 130.512 L 256.438 131.887 L 256.303 132.08 M 268.685 130.512 L 267.363 132.08 M 268.685 130.512 H 279.965 M 254.225 135.039 H 264.87 M 254.225 135.039 L 253.976 135.393 L 253.244 136.436 M 254.225 135.039 H 243.58 M 254.225 135.039 L 254.476 134.681 L 254.986 133.955 L 255.244 133.588 M 264.87 135.039 L 263.692 136.436 M 264.87 135.039 L 265.323 134.501 L 265.629 134.138 L 266.093 133.588 M 264.87 135.039 H 275.515 M 253.244 136.436 H 263.692 M 253.244 136.436 H 242.795 M 253.244 136.436 L 252.531 137.451 L 252.298 137.783 M 263.692 136.436 L 263.262 136.947 L 262.978 137.284 L 262.557 137.783 M 263.692 136.436 H 274.141 M 250.505 140.336 H 260.406 M 250.505 140.336 L 249.97 141.097 L 249.655 141.547 M 250.505 140.336 H 240.604 M 250.505 140.336 L 251.385 139.082 M 260.406 140.336 L 259.637 141.248 L 259.511 141.398 L 259.386 141.547 M 260.406 140.336 L 260.93 139.715 L 261.462 139.082 M 260.406 140.336 H 270.307 M 249.655 141.547 H 259.386 M 249.655 141.547 L 249.241 142.136 L 249.036 142.428 L 248.934 142.572 L 248.833 142.716 M 249.655 141.547 H 239.924 M 259.386 141.547 H 269.117 M 259.386 141.547 L 258.4 142.716 M 395.419 57.0232 H 373.817 M 395.419 57.0232 L 388.28 62.6714 M 395.419 57.0232 H 401.892 M 395.419 57.0232 L 401.892 51.9026 M 375.466 72.8087 H 394.851 M 375.466 72.8087 L 369.695 77.3743 M 375.466 72.8087 H 356.081 M 375.466 72.8087 L 381.646 67.9197 M 394.851 72.8087 L 388.439 77.3743 M 394.851 72.8087 L 401.718 67.9197 M 394.851 72.8087 H 401.892 M 369.695 77.3743 H 388.439 M 369.695 77.3743 H 350.951 M 369.695 77.3743 L 364.293 81.6475 M 388.439 77.3743 L 382.437 81.6475 M 388.439 77.3743 H 401.892 M 354.465 89.4226 H 371.517 M 354.465 89.4226 L 349.982 92.9692 M 354.465 89.4226 H 337.414 M 354.465 89.4226 L 359.227 85.6556 M 371.517 89.4226 L 366.536 92.9692 M 371.517 89.4226 L 376.808 85.6556 M 371.517 89.4226 H 388.569 M 349.982 92.9692 H 366.536 M 349.982 92.9692 H 333.429 M 349.982 92.9692 L 345.753 96.3148 M 366.536 92.9692 L 361.837 96.3148 M 366.536 92.9692 H 383.089 M 337.977 102.467 H 353.197 M 337.977 102.467 L 334.394 105.301 M 337.977 102.467 H 322.758 M 337.977 102.467 L 341.758 99.4754 M 353.197 102.467 L 349.216 105.301 M 353.197 102.467 L 357.398 99.4754 M 353.197 102.467 H 368.417 M 334.394 105.301 H 349.216 M 334.394 105.301 H 319.573 M 334.394 105.301 L 330.994 107.991 M 349.216 105.301 L 345.438 107.991 M 349.216 105.301 H 364.038 M 324.688 112.98 H 338.432 M 324.688 112.98 L 321.76 115.297 M 324.688 112.98 H 310.945 M 324.688 112.98 L 327.763 110.547 M 338.432 112.98 L 335.177 115.297 M 338.432 112.98 L 341.848 110.547 M 338.432 112.98 H 352.175 M 321.76 115.297 H 335.177 M 321.76 115.297 H 308.342 M 321.76 115.297 L 318.966 117.506 M 335.177 115.297 L 332.074 117.506 M 335.177 115.297 H 348.595 M 313.75 121.633 H 326.278 M 313.75 121.633 L 311.311 123.562 M 313.75 121.633 H 301.222 M 313.75 121.633 L 316.299 119.616 M 326.278 121.633 L 323.568 123.562 M 326.278 121.633 L 329.11 119.616 M 326.278 121.633 H 338.806 M 311.311 123.562 H 323.568 M 311.311 123.562 H 299.054 M 311.311 123.562 L 308.976 125.41 M 323.568 123.562 L 320.973 125.41 M 323.568 123.562 H 335.825 M 304.589 128.88 H 316.099 M 304.589 128.88 L 302.527 130.512 M 304.589 128.88 H 293.079 M 304.589 128.88 L 306.737 127.181 M 316.099 128.88 L 313.808 130.512 M 316.099 128.88 L 318.486 127.181 M 316.099 128.88 H 327.609 M 302.527 130.512 H 313.808 M 302.527 130.512 H 291.246 M 302.527 130.512 L 300.545 132.08 M 313.808 130.512 L 311.606 132.08 M 313.808 130.512 H 325.088 M 296.805 135.039 H 307.45 M 296.805 135.039 L 295.038 136.436 M 296.805 135.039 H 286.16 M 296.805 135.039 L 297.257 134.681 L 297.485 134.501 L 298.639 133.588 M 307.45 135.039 L 305.487 136.436 M 307.45 135.039 L 309.488 133.588 M 307.45 135.039 H 318.095 M 295.038 136.436 H 305.487 M 295.038 136.436 H 284.59 M 295.038 136.436 L 293.336 137.783 M 305.487 136.436 L 303.595 137.783 M 305.487 136.436 H 315.936 M 290.109 140.336 H 300.01 M 290.109 140.336 L 288.579 141.547 M 290.109 140.336 H 280.208 M 290.109 140.336 L 291.694 139.082 M 300.01 140.336 L 298.729 141.248 L 298.519 141.398 L 298.309 141.547 M 300.01 140.336 L 301.771 139.082 M 300.01 140.336 H 309.911 M 288.579 141.547 H 298.309 M 288.579 141.547 L 287.282 142.572 L 287.1 142.716 M 288.579 141.547 H 278.848 M 298.309 141.547 H 308.041 M 298.309 141.547 L 296.667 142.716 M 398.856 102.467 L 393.681 105.301 M 398.856 102.467 H 383.636 M 398.856 102.467 L 401.892 100.804 M 398.856 102.467 H 401.892 M 393.681 105.301 H 378.859 M 393.681 105.301 L 388.769 107.991 M 393.681 105.301 H 401.892 M 379.661 112.98 H 393.404 M 379.661 112.98 L 375.43 115.297 M 379.661 112.98 H 365.918 M 379.661 112.98 L 384.102 110.547 M 393.404 112.98 L 388.848 115.297 M 393.404 112.98 L 398.187 110.547 M 393.404 112.98 H 401.892 M 375.43 115.297 H 388.848 M 375.43 115.297 H 362.013 M 375.43 115.297 L 371.396 117.506 M 388.848 115.297 L 384.503 117.506 M 388.848 115.297 H 401.892 M 363.861 121.633 H 376.389 M 363.861 121.633 L 360.338 123.562 M 363.861 121.633 H 351.333 M 363.861 121.633 L 367.543 119.616 M 376.389 121.633 L 372.595 123.562 M 376.389 121.633 L 380.354 119.616 M 376.389 121.633 H 388.917 M 360.338 123.562 H 372.595 M 360.338 123.562 H 348.081 M 360.338 123.562 L 356.965 125.41 M 372.595 123.562 L 368.962 125.41 M 372.595 123.562 H 384.852 M 350.629 128.88 H 362.138 M 350.629 128.88 L 347.65 130.512 M 350.629 128.88 H 339.119 M 350.629 128.88 L 353.731 127.181 M 362.138 128.88 L 358.931 130.512 M 362.138 128.88 L 365.48 127.181 M 362.138 128.88 H 373.649 M 347.65 130.512 H 358.931 M 347.65 130.512 H 336.369 M 347.65 130.512 L 344.787 132.08 M 358.931 130.512 L 355.848 132.08 M 358.931 130.512 H 370.211 M 339.385 135.039 H 350.03 M 339.385 135.039 L 336.833 136.436 M 339.385 135.039 H 328.74 M 339.385 135.039 L 342.034 133.588 M 350.03 135.039 L 347.282 136.436 M 350.03 135.039 L 352.883 133.588 M 350.03 135.039 H 360.675 M 336.833 136.436 H 347.282 M 336.833 136.436 H 326.384 M 336.833 136.436 L 334.374 137.783 M 347.282 136.436 L 344.633 137.783 M 347.282 136.436 H 357.731 M 329.713 140.336 H 339.614 M 329.713 140.336 L 327.502 141.547 M 329.713 140.336 H 319.812 M 329.713 140.336 L 332.002 139.082 M 339.614 140.336 L 337.233 141.547 M 339.614 140.336 L 342.079 139.082 M 339.614 140.336 H 349.515 M 327.502 141.547 H 337.233 M 327.502 141.547 L 325.367 142.716 M 327.502 141.547 H 317.772 M 337.233 141.547 H 346.964 M 337.233 141.547 L 334.933 142.716 M 396.668 128.88 L 392.773 130.512 M 396.668 128.88 H 385.158 M 396.668 128.88 L 400.725 127.181 M 396.668 128.88 H 401.892 M 392.773 130.512 H 381.492 M 392.773 130.512 L 389.03 132.08 M 392.773 130.512 H 401.892 M 381.965 135.039 H 392.61 M 381.965 135.039 L 378.628 136.436 M 381.965 135.039 H 371.32 M 381.965 135.039 L 385.43 133.588 M 392.61 135.039 L 389.077 136.436 M 392.61 135.039 L 396.278 133.588 M 392.61 135.039 H 401.892 M 378.628 136.436 H 389.077 M 378.628 136.436 H 368.179 M 378.628 136.436 L 375.412 137.783 M 389.077 136.436 L 385.671 137.783 M 389.077 136.436 H 399.525 M 369.317 140.336 H 379.218 M 369.317 140.336 L 366.426 141.547 M 369.317 140.336 H 359.416 M 369.317 140.336 L 372.31 139.082 M 379.218 140.336 L 376.157 141.547 M 379.218 140.336 L 382.387 139.082 M 379.218 140.336 H 389.119 M 366.426 141.547 H 376.157 M 366.426 141.547 L 363.633 142.716 M 366.426 141.547 H 356.695 M 376.157 141.547 H 385.888 M 376.157 141.547 L 373.2 142.716 M 382.387 139.082 L 385.671 137.783 M 382.387 139.082 H 392.464 M 382.387 139.082 H 372.31 M 389.119 140.336 L 385.888 141.547 M 389.119 140.336 L 392.464 139.082 M 389.119 140.336 H 399.02 M 385.888 141.547 H 395.619 M 385.888 141.547 L 382.767 142.716 M 373.2 142.716 H 363.633 M 373.2 142.716 H 382.767 M 373.2 142.716 L 370.341 143.847 M 392.464 139.082 L 395.931 137.783 M 392.464 139.082 H 401.892 M 399.02 140.336 L 395.619 141.547 M 399.02 140.336 L 401.892 139.314 M 399.02 140.336 H 401.892 M 395.619 141.547 L 392.333 142.716 M 395.619 141.547 H 401.892 M 382.767 142.716 H 392.333 M 382.767 142.716 L 379.749 143.847 M 392.333 142.716 L 389.157 143.847 M 392.333 142.716 H 401.892 M 385.671 137.783 H 395.931 M 385.671 137.783 H 375.412 M 399.525 136.436 L 395.931 137.783 M 399.525 136.436 L 401.892 135.549 M 399.525 136.436 H 401.892 M 395.931 137.783 H 401.892 M 375.412 137.783 H 365.152 M 375.412 137.783 L 372.31 139.082 M 372.31 139.082 H 362.233 M 396.278 133.588 L 400.09 132.08 M 396.278 133.588 H 385.43 M 396.278 133.588 H 401.892 M 401.924 135.039 H 401.892 M 400.09 132.08 H 389.03 M 400.09 132.08 L 401.892 131.367 M 400.09 132.08 H 401.892 M 389.03 132.08 H 377.969 M 389.03 132.08 L 385.43 133.588 M 385.43 133.588 H 374.581 M 342.079 139.082 L 344.633 137.783 M 342.079 139.082 H 352.156 M 342.079 139.082 H 332.002 M 349.515 140.336 L 346.964 141.547 M 349.515 140.336 L 352.156 139.082 M 349.515 140.336 H 359.416 M 346.964 141.547 H 356.695 M 346.964 141.547 L 344.5 142.716 M 334.933 142.716 H 344.5 M 334.933 142.716 L 332.71 143.847 M 334.933 142.716 H 325.367 M 352.156 139.082 L 354.893 137.783 M 352.156 139.082 H 362.233 M 359.416 140.336 L 356.695 141.547 M 359.416 140.336 L 362.233 139.082 M 356.695 141.547 L 354.067 142.716 M 344.5 142.716 H 354.067 M 344.5 142.716 L 342.118 143.847 M 362.233 139.082 L 365.152 137.783 M 363.633 142.716 H 354.067 M 363.633 142.716 L 360.933 143.847 M 354.067 142.716 L 351.525 143.847 M 344.633 137.783 H 354.893 M 344.633 137.783 H 334.374 M 357.731 136.436 L 354.893 137.783 M 357.731 136.436 L 360.675 135.039 M 357.731 136.436 H 368.179 M 354.893 137.783 H 365.152 M 334.374 137.783 H 324.114 M 334.374 137.783 L 332.002 139.082 M 365.152 137.783 L 368.179 136.436 M 332.002 139.082 H 321.925 M 360.675 135.039 L 363.732 133.588 M 360.675 135.039 H 371.32 M 368.179 136.436 L 371.32 135.039 M 371.32 135.039 L 374.581 133.588 M 352.883 133.588 L 355.848 132.08 M 352.883 133.588 H 363.732 M 352.883 133.588 H 342.034 M 363.732 133.588 L 366.908 132.08 M 363.732 133.588 H 374.581 M 374.581 133.588 L 377.969 132.08 M 355.848 132.08 H 366.908 M 355.848 132.08 H 344.787 M 370.211 130.512 L 366.908 132.08 M 370.211 130.512 L 373.649 128.88 M 370.211 130.512 H 381.492 M 366.908 132.08 H 377.969 M 344.787 132.08 H 333.727 M 344.787 132.08 L 342.034 133.588 M 377.969 132.08 L 381.492 130.512 M 342.034 133.588 H 331.186 M 373.649 128.88 L 377.228 127.181 M 373.649 128.88 H 385.158 M 381.492 130.512 L 385.158 128.88 M 385.158 128.88 L 388.977 127.181 M 365.48 127.181 L 368.962 125.41 M 365.48 127.181 H 377.228 M 365.48 127.181 H 353.731 M 377.228 127.181 L 380.959 125.41 M 377.228 127.181 H 388.977 M 388.977 127.181 L 392.957 125.41 M 388.977 127.181 H 400.725 M 400.725 127.181 H 401.892 M 400.725 127.181 L 401.892 126.693 M 368.962 125.41 H 380.959 M 368.962 125.41 H 356.965 M 384.852 123.562 L 380.959 125.41 M 384.852 123.562 L 388.917 121.633 M 384.852 123.562 H 397.109 M 380.959 125.41 H 392.957 M 356.965 125.41 H 344.967 M 356.965 125.41 L 353.731 127.181 M 392.957 125.41 L 397.109 123.562 M 392.957 125.41 H 401.892 M 353.731 127.181 H 341.983 M 388.917 121.633 L 393.165 119.616 M 388.917 121.633 H 401.444 M 397.109 123.562 L 401.444 121.633 M 397.109 123.562 H 401.892 M 401.955 125.41 H 401.892 M 401.444 121.633 L 401.892 121.434 M 401.444 121.633 H 401.892 M 380.354 119.616 L 384.503 117.506 M 380.354 119.616 H 393.165 M 380.354 119.616 H 367.543 M 393.165 119.616 L 397.61 117.506 M 393.165 119.616 H 401.892 M 402 121.386 L 401.892 121.434 M 384.503 117.506 H 397.61 M 384.503 117.506 H 371.396 M 397.61 117.506 H 401.892 M 397.61 117.506 L 401.892 115.474 M 371.396 117.506 H 358.288 M 371.396 117.506 L 367.543 119.616 M 367.543 119.616 H 354.732 M 398.187 110.547 H 384.102 M 398.187 110.547 L 401.892 108.663 M 398.187 110.547 H 401.892 M 401.994 112.98 H 401.892 M 384.102 110.547 H 370.017 M 384.102 110.547 L 388.769 107.991 M 401.933 108.642 L 401.892 108.663 M 301.771 139.082 L 303.595 137.783 M 301.771 139.082 H 311.848 M 301.771 139.082 H 291.694 M 309.911 140.336 L 308.041 141.547 M 309.911 140.336 L 311.848 139.082 M 309.911 140.336 H 319.812 M 308.041 141.547 H 317.772 M 308.041 141.547 L 306.233 142.716 M 296.667 142.716 H 306.233 M 296.667 142.716 L 296.065 143.145 L 295.078 143.847 M 296.667 142.716 H 287.1 M 311.848 139.082 L 313.855 137.783 M 311.848 139.082 H 321.925 M 319.812 140.336 L 317.772 141.547 M 319.812 140.336 L 321.925 139.082 M 317.772 141.547 L 315.8 142.716 M 306.233 142.716 H 315.8 M 306.233 142.716 L 304.486 143.847 M 321.925 139.082 L 324.114 137.783 M 325.367 142.716 L 323.302 143.847 M 325.367 142.716 H 315.8 M 315.8 142.716 L 315.558 142.86 L 315.078 143.145 L 313.894 143.847 M 303.595 137.783 H 313.855 M 303.595 137.783 H 293.336 M 315.936 136.436 L 313.855 137.783 M 315.936 136.436 L 318.095 135.039 M 315.936 136.436 H 326.384 M 313.855 137.783 H 324.114 M 293.336 137.783 H 283.076 M 293.336 137.783 L 291.694 139.082 M 324.114 137.783 L 326.384 136.436 M 291.694 139.082 H 281.616 M 318.095 135.039 L 320.337 133.588 M 318.095 135.039 H 328.74 M 326.384 136.436 L 326.674 136.264 L 328.74 135.039 M 328.74 135.039 L 331.186 133.588 M 309.488 133.588 L 309.748 133.402 L 311.606 132.08 M 309.488 133.588 H 320.337 M 309.488 133.588 H 298.639 M 320.337 133.588 L 322.666 132.08 M 320.337 133.588 H 331.186 M 331.186 133.588 L 333.727 132.08 M 311.606 132.08 H 322.666 M 311.606 132.08 H 300.545 M 325.088 130.512 L 322.666 132.08 M 325.088 130.512 L 327.609 128.88 M 325.088 130.512 H 336.369 M 322.666 132.08 H 333.727 M 300.545 132.08 H 289.484 M 300.545 132.08 L 298.639 133.588 M 333.727 132.08 L 336.369 130.512 M 298.639 133.588 H 287.79 M 327.609 128.88 L 330.234 127.181 M 327.609 128.88 H 339.119 M 336.369 130.512 L 339.119 128.88 M 339.119 128.88 L 341.983 127.181 M 318.486 127.181 L 320.973 125.41 M 318.486 127.181 H 330.234 M 318.486 127.181 H 306.737 M 330.234 127.181 L 332.97 125.41 M 330.234 127.181 H 341.983 M 341.983 127.181 L 344.967 125.41 M 320.973 125.41 H 332.97 M 320.973 125.41 H 308.976 M 335.825 123.562 L 332.97 125.41 M 335.825 123.562 L 338.806 121.633 M 335.825 123.562 H 348.081 M 332.97 125.41 H 344.967 M 308.976 125.41 H 296.978 M 308.976 125.41 L 306.737 127.181 M 344.967 125.41 L 348.081 123.562 M 306.737 127.181 H 294.988 M 338.806 121.633 L 341.921 119.616 M 338.806 121.633 H 351.333 M 348.081 123.562 L 351.333 121.633 M 351.333 121.633 L 354.732 119.616 M 329.11 119.616 L 332.074 117.506 M 329.11 119.616 H 341.921 M 329.11 119.616 H 316.299 M 341.921 119.616 L 345.181 117.506 M 341.921 119.616 H 354.732 M 354.732 119.616 L 358.288 117.506 M 332.074 117.506 H 345.181 M 332.074 117.506 H 318.966 M 348.595 115.297 L 345.181 117.506 M 348.595 115.297 L 352.175 112.98 M 348.595 115.297 H 362.013 M 345.181 117.506 H 358.288 M 318.966 117.506 H 305.859 M 318.966 117.506 L 316.299 119.616 M 358.288 117.506 L 362.013 115.297 M 316.299 119.616 H 303.488 M 352.175 112.98 L 355.932 110.547 M 352.175 112.98 H 365.918 M 362.013 115.297 L 365.918 112.98 M 365.918 112.98 L 370.017 110.547 M 341.848 110.547 L 345.438 107.991 M 341.848 110.547 H 355.932 M 341.848 110.547 H 327.763 M 355.932 110.547 L 359.882 107.991 M 355.932 110.547 H 370.017 M 370.017 110.547 L 374.325 107.991 M 345.438 107.991 H 359.882 M 345.438 107.991 H 330.994 M 364.038 105.301 L 359.882 107.991 M 364.038 105.301 L 368.417 102.467 M 364.038 105.301 H 378.859 M 359.882 107.991 H 374.325 M 330.994 107.991 H 316.55 M 330.994 107.991 L 327.763 110.547 M 374.325 107.991 L 378.859 105.301 M 374.325 107.991 H 388.769 M 327.763 110.547 H 313.678 M 368.417 102.467 L 373.037 99.4754 M 368.417 102.467 H 383.636 M 378.859 105.301 L 383.636 102.467 M 388.769 107.991 H 401.892 M 383.636 102.467 L 388.677 99.4754 M 357.398 99.4754 L 361.837 96.3148 M 357.398 99.4754 H 373.037 M 357.398 99.4754 H 341.758 M 373.037 99.4754 L 377.921 96.3148 M 373.037 99.4754 H 388.677 M 388.677 99.4754 L 394.004 96.3148 M 388.677 99.4754 H 401.892 M 361.837 96.3148 H 377.921 M 361.837 96.3148 H 345.753 M 383.089 92.9692 L 377.921 96.3148 M 383.089 92.9692 L 388.569 89.4226 M 383.089 92.9692 H 399.643 M 377.921 96.3148 H 394.004 M 345.753 96.3148 H 329.67 M 345.753 96.3148 L 341.758 99.4754 M 394.004 96.3148 L 399.643 92.9692 M 394.004 96.3148 H 401.892 M 341.758 99.4754 H 326.118 M 388.569 89.4226 L 394.388 85.6556 M 388.569 89.4226 H 401.892 M 399.643 92.9692 H 401.892 M 399.643 92.9692 L 401.892 91.6348 M 376.808 85.6556 L 382.437 81.6475 M 376.808 85.6556 H 394.388 M 376.808 85.6556 H 359.227 M 394.388 85.6556 L 400.58 81.6475 M 394.388 85.6556 H 401.892 M 382.437 81.6475 H 400.58 M 382.437 81.6475 H 364.293 M 400.58 81.6475 L 401.892 80.7987 M 400.58 81.6475 H 401.892 M 364.293 81.6475 H 346.149 M 364.293 81.6475 L 359.227 85.6556 M 359.227 85.6556 H 341.646 M 401.718 67.9197 H 381.646 M 401.718 67.9197 H 401.892 M 401.718 67.9197 L 401.892 67.7956 M 381.646 67.9197 H 361.574 M 381.646 67.9197 L 388.28 62.6714 M 261.462 139.082 L 261.868 138.601 L 262.005 138.438 L 262.557 137.783 M 261.462 139.082 H 271.539 M 261.462 139.082 H 251.385 M 270.307 140.336 L 269.41 141.248 L 269.117 141.547 M 270.307 140.336 L 271.383 139.241 L 271.539 139.082 M 270.307 140.336 H 280.208 M 269.117 141.547 H 278.848 M 269.117 141.547 L 267.967 142.716 M 258.4 142.716 H 267.967 M 258.4 142.716 L 258.039 143.145 L 257.447 143.847 M 258.4 142.716 H 248.833 M 271.539 139.082 L 271.855 138.762 L 272.817 137.783 M 271.539 139.082 H 281.616 M 280.208 140.336 L 278.848 141.547 M 280.208 140.336 L 281.616 139.082 M 278.848 141.547 L 277.858 142.428 L 277.533 142.716 M 267.967 142.716 H 277.533 M 267.967 142.716 L 266.855 143.847 M 281.616 139.082 L 283.076 137.783 M 287.1 142.716 L 286.919 142.86 L 285.67 143.847 M 287.1 142.716 H 277.533 M 277.533 142.716 L 277.052 143.145 L 276.263 143.847 M 262.557 137.783 H 272.817 M 262.557 137.783 H 252.298 M 274.141 136.436 L 272.817 137.783 M 274.141 136.436 L 275.515 135.039 M 274.141 136.436 H 284.59 M 272.817 137.783 H 283.076 M 252.298 137.783 H 242.038 M 252.298 137.783 L 251.385 139.082 M 283.076 137.783 L 284.59 136.436 M 251.385 139.082 H 241.308 M 275.515 135.039 L 276.4 134.138 L 276.58 133.955 L 276.942 133.588 M 275.515 135.039 H 286.16 M 284.59 136.436 L 286.16 135.039 M 286.16 135.039 L 287.79 133.588 M 266.093 133.588 L 267.363 132.08 M 266.093 133.588 H 276.942 M 266.093 133.588 H 255.244 M 276.942 133.588 L 278.424 132.08 M 276.942 133.588 H 287.79 M 287.79 133.588 L 289.484 132.08 M 267.363 132.08 H 278.424 M 267.363 132.08 H 256.303 M 279.965 130.512 L 278.995 131.499 L 278.804 131.694 L 278.424 132.08 M 279.965 130.512 L 281.569 128.88 M 279.965 130.512 H 291.246 M 278.424 132.08 H 289.484 M 256.303 132.08 H 245.242 M 256.303 132.08 L 255.244 133.588 M 289.484 132.08 L 291.246 130.512 M 255.244 133.588 H 244.395 M 281.569 128.88 L 283.24 127.181 M 281.569 128.88 H 293.079 M 291.246 130.512 L 293.079 128.88 M 293.079 128.88 L 294.988 127.181 M 271.491 127.181 L 272.23 126.305 L 272.417 126.083 L 272.984 125.41 M 271.491 127.181 H 283.24 M 271.491 127.181 H 259.743 M 283.24 127.181 L 284.981 125.41 M 283.24 127.181 H 294.988 M 294.988 127.181 L 296.978 125.41 M 272.984 125.41 H 284.981 M 272.984 125.41 H 260.987 M 286.798 123.562 L 284.981 125.41 M 286.798 123.562 L 288.694 121.633 M 286.798 123.562 H 299.054 M 284.981 125.41 H 296.978 M 260.987 125.41 H 248.989 M 260.987 125.41 L 260.671 125.86 L 259.743 127.181 M 296.978 125.41 L 299.054 123.562 M 259.743 127.181 H 247.994 M 288.694 121.633 L 290.677 119.616 M 288.694 121.633 H 301.222 M 299.054 123.562 L 301.222 121.633 M 301.222 121.633 L 303.488 119.616 M 277.866 119.616 L 279.644 117.506 M 277.866 119.616 H 290.677 M 277.866 119.616 H 265.055 M 290.677 119.616 L 292.751 117.506 M 290.677 119.616 H 303.488 M 303.488 119.616 L 305.859 117.506 M 279.644 117.506 H 292.751 M 279.644 117.506 H 266.537 M 294.924 115.297 L 292.751 117.506 M 294.924 115.297 L 297.202 112.98 M 294.924 115.297 H 308.342 M 292.751 117.506 H 305.859 M 266.537 117.506 H 253.429 M 266.537 117.506 L 265.055 119.616 M 305.859 117.506 L 308.342 115.297 M 265.055 119.616 H 252.244 M 297.202 112.98 L 299.593 110.547 M 297.202 112.98 H 310.945 M 308.342 115.297 L 310.945 112.98 M 310.945 112.98 L 313.678 110.547 M 285.509 110.547 L 287.663 107.991 M 285.509 110.547 H 299.593 M 285.509 110.547 H 271.424 M 299.593 110.547 L 302.107 107.991 M 299.593 110.547 H 313.678 M 313.678 110.547 L 316.55 107.991 M 287.663 107.991 H 302.107 M 287.663 107.991 H 273.219 M 304.751 105.301 L 302.107 107.991 M 304.751 105.301 L 307.538 102.467 M 304.751 105.301 H 319.573 M 302.107 107.991 H 316.55 M 273.219 107.991 H 258.775 M 273.219 107.991 L 271.424 110.547 M 316.55 107.991 L 319.573 105.301 M 271.424 110.547 H 257.339 M 307.538 102.467 L 310.478 99.4754 M 307.538 102.467 H 322.758 M 319.573 105.301 L 322.758 102.467 M 322.758 102.467 L 326.118 99.4754 M 294.839 99.4754 L 297.502 96.3148 M 294.839 99.4754 H 310.478 M 294.839 99.4754 H 279.199 M 310.478 99.4754 L 313.586 96.3148 M 310.478 99.4754 H 326.118 M 326.118 99.4754 L 329.67 96.3148 M 297.502 96.3148 H 313.586 M 297.502 96.3148 H 281.418 M 316.875 92.9692 L 313.586 96.3148 M 316.875 92.9692 L 320.362 89.4226 M 316.875 92.9692 H 333.429 M 313.586 96.3148 H 329.67 M 281.418 96.3148 H 265.335 M 281.418 96.3148 L 279.199 99.4754 M 329.67 96.3148 L 333.429 92.9692 M 279.199 99.4754 H 263.559 M 320.362 89.4226 L 324.065 85.6556 M 320.362 89.4226 H 337.414 M 333.429 92.9692 L 337.414 89.4226 M 337.414 89.4226 L 341.646 85.6556 M 306.485 85.6556 L 309.862 81.6475 M 306.485 85.6556 H 324.065 M 306.485 85.6556 H 288.904 M 324.065 85.6556 L 328.006 81.6475 M 324.065 85.6556 H 341.646 M 341.646 85.6556 L 346.149 81.6475 M 309.862 81.6475 H 328.006 M 309.862 81.6475 H 291.718 M 332.207 77.3743 L 328.006 81.6475 M 332.207 77.3743 L 336.696 72.8087 M 332.207 77.3743 H 350.951 M 328.006 81.6475 H 346.149 M 291.718 81.6475 H 273.575 M 291.718 81.6475 L 288.904 85.6556 M 346.149 81.6475 L 350.951 77.3743 M 288.904 85.6556 H 271.323 M 336.696 72.8087 L 341.502 67.9197 M 336.696 72.8087 H 356.081 M 350.951 77.3743 L 356.081 72.8087 M 356.081 72.8087 L 361.574 67.9197 M 321.43 67.9197 L 325.853 62.6714 M 321.43 67.9197 H 341.502 M 321.43 67.9197 H 301.359 M 341.502 67.9197 L 346.662 62.6714 M 341.502 67.9197 H 361.574 M 361.574 67.9197 L 367.471 62.6714 M 325.853 62.6714 H 346.662 M 325.853 62.6714 H 305.044 M 352.215 57.0232 L 346.662 62.6714 M 352.215 57.0232 L 358.208 50.927 M 352.215 57.0232 H 373.817 M 346.662 62.6714 H 367.471 M 305.044 62.6714 H 284.235 M 305.044 62.6714 L 301.359 67.9197 M 367.471 62.6714 L 373.817 57.0232 M 367.471 62.6714 H 388.28 M 301.359 67.9197 H 281.287 M 358.208 50.927 L 364.696 44.3278 M 358.208 50.927 H 380.667 M 373.817 57.0232 L 380.667 50.927 M 388.28 62.6714 H 401.892 M 380.667 50.927 L 388.082 44.3278 M 380.667 50.927 H 401.892 M 341.311 44.3278 L 347.351 37.1605 M 341.311 44.3278 H 364.696 M 341.311 44.3278 H 317.926 M 364.696 44.3278 L 371.743 37.1605 M 364.696 44.3278 H 388.082 M 388.082 44.3278 L 396.135 37.1605 M 388.082 44.3278 H 401.892 M 347.351 37.1605 H 371.743 M 347.351 37.1605 H 322.959 M 379.423 29.3483 L 371.743 37.1605 M 379.423 29.3483 L 387.827 20.8003 M 379.423 29.3483 H 401.892 M 371.743 37.1605 H 396.135 M 322.959 37.1605 H 298.567 M 322.959 37.1605 L 317.926 44.3278 M 396.135 37.1605 H 401.892 M 396.135 37.1605 L 401.892 32.0364 M 317.926 44.3278 H 294.541 M 387.827 20.8003 L 397.062 11.407 M 387.827 20.8003 H 401.892 M 369.053 11.407 L 377.792 1.03684 M 369.053 11.407 H 397.062 M 369.053 11.407 H 341.044 M 397.062 11.407 L 401.892 6.49428 M 397.062 11.407 H 401.892 M 377.792 1.03684 H 348.327 M 377.792 1.03684 L 401.892 1.03703 M 348.327 1.03684 H 318.861 M 348.327 1.03684 L 341.044 11.407 M 341.044 11.407 H 313.035 M 221.154 139.082 L 221.199 138.922 L 221.244 138.762 L 221.289 138.601 L 221.335 138.438 L 221.473 137.948 L 221.519 137.783 M 221.154 139.082 H 231.231 M 221.154 139.082 H 211.077 M 230.703 140.336 L 230.319 141.248 L 230.193 141.547 M 230.703 140.336 L 231.031 139.558 L 231.231 139.082 M 230.703 140.336 H 240.604 M 230.193 141.547 H 239.924 M 230.193 141.547 L 229.822 142.428 L 229.7 142.716 M 220.133 142.716 L 220.093 142.86 L 219.934 143.428 L 219.816 143.847 M 220.133 142.716 H 229.7 M 220.133 142.716 H 210.567 M 231.231 139.082 L 231.298 138.922 L 231.366 138.762 L 231.434 138.601 L 231.502 138.438 L 231.779 137.783 M 231.231 139.082 H 241.308 M 240.604 140.336 L 240.092 141.248 L 239.924 141.547 M 240.604 140.336 L 241.308 139.082 M 239.924 141.547 L 239.592 142.136 L 239.348 142.572 L 239.267 142.716 M 229.7 142.716 L 229.64 142.86 L 229.52 143.145 L 229.4 143.428 L 229.341 143.568 L 229.223 143.847 M 229.7 142.716 H 239.267 M 241.308 139.082 L 241.853 138.112 L 242.038 137.783 M 248.833 142.716 L 248.235 143.568 L 248.039 143.847 M 248.833 142.716 H 239.267 M 239.267 142.716 L 238.71 143.708 L 238.631 143.847 M 221.519 137.783 H 231.779 M 221.519 137.783 H 211.26 M 232.346 136.436 L 231.779 137.783 M 232.346 136.436 L 232.935 135.039 M 232.346 136.436 H 242.795 M 231.779 137.783 H 242.038 M 211.26 137.783 H 201 M 211.26 137.783 L 211.077 139.082 M 242.038 137.783 L 242.795 136.436 M 211.077 139.082 H 201 M 232.935 135.039 L 233.086 134.681 L 233.315 134.138 L 233.546 133.588 M 232.935 135.039 H 243.58 M 242.795 136.436 L 242.891 136.264 L 243.58 135.039 M 243.58 135.039 L 243.68 134.86 L 243.781 134.681 L 243.882 134.501 L 244.395 133.588 M 222.698 133.588 L 223.121 132.08 M 222.698 133.588 H 233.546 M 222.698 133.588 H 211.849 M 233.546 133.588 L 234.182 132.08 M 233.546 133.588 H 244.395 M 244.395 133.588 L 245.027 132.462 L 245.135 132.271 L 245.242 132.08 M 223.121 132.08 H 234.182 M 223.121 132.08 H 212.061 M 234.842 130.512 L 234.927 130.311 L 235.012 130.11 L 235.097 129.908 L 235.53 128.88 M 234.842 130.512 L 234.509 131.304 L 234.426 131.499 L 234.344 131.694 L 234.182 132.08 M 234.842 130.512 H 246.123 M 234.182 132.08 H 245.242 M 212.061 132.08 H 201 M 212.061 132.08 L 211.849 133.588 M 245.242 132.08 L 246.123 130.512 M 211.849 133.588 H 201 M 235.53 128.88 L 236.155 127.397 L 236.246 127.181 M 235.53 128.88 H 247.04 M 246.123 130.512 L 246.349 130.11 L 247.04 128.88 M 247.04 128.88 L 247.393 128.251 L 247.994 127.181 M 224.497 127.181 L 224.743 126.305 L 224.806 126.083 L 224.995 125.41 M 224.497 127.181 H 236.246 M 224.497 127.181 H 212.749 M 236.246 127.181 L 236.992 125.41 M 236.246 127.181 H 247.994 M 247.994 127.181 L 248.989 125.41 M 224.995 125.41 H 236.992 M 224.995 125.41 H 212.997 M 237.77 123.562 L 236.992 125.41 M 237.77 123.562 L 238.583 121.633 M 237.77 123.562 H 250.027 M 236.992 125.41 H 248.989 M 212.997 125.41 H 201 M 212.997 125.41 L 212.934 125.86 L 212.81 126.745 L 212.749 127.181 M 248.989 125.41 L 250.027 123.562 M 212.749 127.181 H 201 M 238.583 121.633 L 239.217 120.129 L 239.433 119.616 M 238.583 121.633 H 251.111 M 250.027 123.562 L 251.111 121.633 M 251.111 121.633 L 251.671 120.636 L 252.244 119.616 M 226.622 119.616 L 227.215 117.506 M 226.622 119.616 H 239.433 M 226.622 119.616 H 213.811 M 239.433 119.616 L 240.322 117.506 M 239.433 119.616 H 252.244 M 252.244 119.616 L 253.429 117.506 M 227.215 117.506 H 240.322 M 227.215 117.506 H 214.107 M 241.253 115.297 L 241.016 115.859 L 240.322 117.506 M 241.253 115.297 L 242.229 112.98 M 241.253 115.297 H 254.671 M 240.322 117.506 H 253.429 M 214.107 117.506 H 201 M 214.107 117.506 L 213.811 119.616 M 253.429 117.506 L 254.671 115.297 M 213.811 119.616 H 201 M 242.229 112.98 L 243.254 110.547 M 242.229 112.98 H 255.973 M 254.671 115.297 L 255.973 112.98 M 255.973 112.98 L 257.339 110.547 M 229.17 110.547 L 229.888 107.991 M 229.17 110.547 H 243.254 M 229.17 110.547 H 215.085 M 243.254 110.547 L 244.331 107.991 M 243.254 110.547 H 257.339 M 257.339 110.547 L 258.775 107.991 M 229.888 107.991 H 244.331 M 229.888 107.991 H 215.444 M 245.465 105.301 L 244.331 107.991 M 245.465 105.301 L 246.659 102.467 M 245.465 105.301 H 260.286 M 244.331 107.991 H 258.775 M 215.444 107.991 H 201 M 215.444 107.991 L 215.129 110.235 L 215.085 110.547 M 258.775 107.991 L 260.286 105.301 M 215.085 110.547 H 201 M 246.659 102.467 L 247.919 99.4754 M 246.659 102.467 H 261.879 M 260.286 105.301 L 261.473 103.189 L 261.879 102.467 M 261.879 102.467 L 263.559 99.4754 M 232.279 99.4754 L 233.167 96.3148 M 232.279 99.4754 H 247.919 M 232.279 99.4754 H 216.64 M 247.919 99.4754 L 249.251 96.3148 M 247.919 99.4754 H 263.559 M 263.559 99.4754 L 265.335 96.3148 M 233.167 96.3148 H 249.251 M 233.167 96.3148 H 217.084 M 250.661 92.9692 L 249.251 96.3148 M 250.661 92.9692 L 252.155 89.4226 M 250.661 92.9692 H 267.214 M 249.251 96.3148 H 265.335 M 217.084 96.3148 H 201 M 217.084 96.3148 L 216.64 99.4754 M 265.335 96.3148 L 267.214 92.9692 M 216.64 99.4754 H 201 M 252.155 89.4226 L 253.742 85.6556 M 252.155 89.4226 H 269.207 M 267.214 92.9692 L 269.207 89.4226 M 269.207 89.4226 L 271.323 85.6556 M 236.162 85.6556 L 237.287 81.6475 M 236.162 85.6556 H 253.742 M 236.162 85.6556 H 218.581 M 253.742 85.6556 L 255.431 81.6475 M 253.742 85.6556 H 271.323 M 271.323 85.6556 L 273.575 81.6475 M 237.287 81.6475 H 255.431 M 237.287 81.6475 H 219.144 M 257.232 77.3743 L 255.431 81.6475 M 257.232 77.3743 L 259.155 72.8087 M 257.232 77.3743 H 275.975 M 255.431 81.6475 H 273.575 M 219.144 81.6475 H 201 M 219.144 81.6475 L 218.581 85.6556 M 273.575 81.6475 L 275.975 77.3743 M 218.581 85.6556 H 201 M 259.155 72.8087 L 261.215 67.9197 M 259.155 72.8087 H 278.54 M 275.975 77.3743 L 278.54 72.8087 M 278.54 72.8087 L 281.287 67.9197 M 241.143 67.9197 L 242.618 62.6714 M 241.143 67.9197 H 261.215 M 241.143 67.9197 H 221.072 M 261.215 67.9197 L 263.427 62.6714 M 261.215 67.9197 H 281.287 M 281.287 67.9197 L 284.235 62.6714 M 242.618 62.6714 H 263.427 M 242.618 62.6714 H 221.809 M 265.806 57.0232 L 263.427 62.6714 M 265.806 57.0232 L 268.375 50.927 M 265.806 57.0232 H 287.409 M 263.427 62.6714 H 284.235 M 221.809 62.6714 H 201 M 221.809 62.6714 L 221.072 67.9197 M 284.235 62.6714 L 287.409 57.0232 M 221.072 67.9197 H 201 M 268.375 50.927 L 271.156 44.3278 M 268.375 50.927 H 290.833 M 287.409 57.0232 L 290.833 50.927 M 290.833 50.927 L 294.541 44.3278 M 247.77 44.3278 L 249.784 37.1605 M 247.77 44.3278 H 271.156 M 247.77 44.3278 H 224.385 M 271.156 44.3278 L 274.175 37.1605 M 271.156 44.3278 H 294.541 M 294.541 44.3278 L 298.567 37.1605 M 249.784 37.1605 H 274.175 M 249.784 37.1605 H 225.392 M 277.467 29.3483 L 274.175 37.1605 M 277.467 29.3483 L 281.069 20.8003 M 277.467 29.3483 H 302.956 M 274.175 37.1605 H 298.567 M 225.392 37.1605 H 201 M 225.392 37.1605 L 224.385 44.3278 M 298.567 37.1605 L 302.956 29.3483 M 224.385 44.3278 H 201 M 281.069 20.8003 L 285.027 11.407 M 281.069 20.8003 H 307.759 M 302.956 29.3483 L 307.759 20.8003 M 307.759 20.8003 L 313.035 11.407 M 257.018 11.407 L 259.931 1.03684 M 257.018 11.407 H 285.027 M 257.018 11.407 H 229.009 M 285.027 11.407 L 289.396 1.03684 M 285.027 11.407 H 313.035 M 313.035 11.407 L 318.861 1.03684 M 289.396 1.03684 H 259.931 M 289.396 1.03684 H 318.861 M 259.931 1.03684 H 230.465 M 230.465 1.03684 H 201 M 230.465 1.03684 L 229.009 11.407 M 229.009 11.407 H 201 M 180.846 139.082 L 180.801 138.922 L 180.756 138.762 L 180.711 138.601 L 180.665 138.438 L 180.574 138.112 L 180.527 137.948 L 180.481 137.783 M 180.846 139.082 H 190.923 M 180.846 139.082 H 170.769 M 191.099 140.336 L 191.269 141.547 M 191.099 140.336 L 190.923 139.082 M 191.099 140.336 H 201 M 191.269 141.547 L 191.29 141.695 L 191.311 141.843 L 191.331 141.99 L 191.433 142.716 M 191.269 141.547 H 201 M 181.867 142.716 L 181.907 142.86 L 182.066 143.428 L 182.184 143.847 M 181.867 142.716 H 191.433 M 181.867 142.716 H 172.3 M 190.923 139.082 L 190.9 138.922 L 190.878 138.762 L 190.855 138.601 L 190.741 137.783 M 190.923 139.082 H 201 M 201 140.336 V 141.547 M 201 140.336 V 139.082 M 201 141.547 V 142.716 M 191.433 142.716 H 201 M 191.433 142.716 L 191.493 143.145 L 191.514 143.286 L 191.592 143.847 M 201 139.082 V 137.783 M 210.567 142.716 L 210.507 143.145 L 210.487 143.286 L 210.467 143.428 L 210.447 143.568 L 210.427 143.708 L 210.408 143.847 M 210.567 142.716 H 201 M 201 142.716 V 143.847 M 180.481 137.783 H 190.741 M 180.481 137.783 H 170.222 M 190.551 136.436 L 190.527 136.264 L 190.503 136.092 L 190.355 135.039 M 190.551 136.436 L 190.741 137.783 M 190.551 136.436 H 201 M 190.741 137.783 H 201 M 170.222 137.783 H 159.962 M 170.222 137.783 L 170.36 138.112 L 170.429 138.276 L 170.498 138.438 L 170.566 138.601 L 170.634 138.762 L 170.702 138.922 L 170.769 139.082 M 201 137.783 V 136.436 M 170.769 139.082 H 160.692 M 190.355 135.039 L 190.151 133.588 M 190.355 135.039 H 201 M 201 136.436 V 135.039 M 201 135.039 V 133.588 M 179.302 133.588 L 178.879 132.08 M 179.302 133.588 H 190.151 M 179.302 133.588 H 168.454 M 190.151 133.588 L 189.939 132.08 M 190.151 133.588 H 201 M 201 133.588 V 132.08 M 178.879 132.08 H 189.939 M 178.879 132.08 H 167.818 M 189.719 130.512 L 189.939 132.08 M 189.719 130.512 L 189.49 128.88 M 189.719 130.512 H 201 M 189.939 132.08 H 201 M 167.818 132.08 H 156.758 M 167.818 132.08 L 168.454 133.588 M 201 132.08 V 130.512 M 168.454 133.588 H 157.605 M 189.49 128.88 L 189.402 128.251 L 189.312 127.613 L 189.251 127.181 M 189.49 128.88 H 201 M 201 130.512 V 128.88 M 201 128.88 V 127.181 M 177.503 127.181 L 177.257 126.305 L 177.195 126.083 L 177.005 125.41 M 177.503 127.181 H 189.251 M 177.503 127.181 H 165.754 M 189.251 127.181 L 189.19 126.745 L 189.066 125.86 L 189.003 125.41 M 189.251 127.181 H 201 M 201 127.181 V 125.41 M 177.005 125.41 H 189.003 M 177.005 125.41 H 165.008 M 188.743 123.562 L 188.776 123.798 L 189.003 125.41 M 188.743 123.562 L 188.472 121.633 M 188.743 123.562 H 201 M 189.003 125.41 H 201 M 165.008 125.41 H 153.011 M 165.008 125.41 L 165.754 127.181 M 201 125.41 V 123.562 M 165.754 127.181 H 154.006 M 188.472 121.633 L 188.189 119.616 M 188.472 121.633 H 201 M 201 123.562 V 121.633 M 201 121.633 V 119.616 M 175.378 119.616 L 174.785 117.506 M 175.378 119.616 H 188.189 M 175.378 119.616 H 162.567 M 188.189 119.616 L 187.893 117.506 M 188.189 119.616 H 201 M 201 119.616 V 117.506 M 174.785 117.506 H 187.893 M 174.785 117.506 H 161.678 M 187.582 115.297 L 187.893 117.506 M 187.582 115.297 L 187.257 112.98 M 187.582 115.297 H 201 M 187.893 117.506 H 201 M 161.678 117.506 H 148.571 M 161.678 117.506 L 162.567 119.616 M 201 117.506 V 115.297 M 162.567 119.616 H 149.756 M 187.257 112.98 L 186.915 110.547 M 187.257 112.98 H 201 M 201 115.297 V 112.98 M 201 112.98 V 110.547 M 172.83 110.547 L 172.112 107.991 M 172.83 110.547 H 186.915 M 172.83 110.547 H 158.746 M 186.915 110.547 L 186.556 107.991 M 186.915 110.547 H 201 M 201 110.547 V 107.991 M 172.112 107.991 H 186.556 M 172.112 107.991 H 157.669 M 186.178 105.301 L 186.556 107.991 M 186.178 105.301 L 185.78 102.467 M 186.178 105.301 H 201 M 186.556 107.991 H 201 M 157.669 107.991 H 143.225 M 157.669 107.991 L 158.746 110.547 M 201 107.991 V 105.301 M 158.746 110.547 H 144.661 M 185.78 102.467 L 185.36 99.4754 M 185.78 102.467 H 201 M 201 105.301 V 102.467 M 201 102.467 V 99.4754 M 169.721 99.4754 L 168.833 96.3148 M 169.721 99.4754 H 185.36 M 169.721 99.4754 H 154.081 M 185.36 99.4754 L 184.916 96.3148 M 185.36 99.4754 H 201 M 201 99.4754 V 96.3148 M 168.833 96.3148 H 184.916 M 168.833 96.3148 H 152.749 M 184.447 92.9692 L 184.916 96.3148 M 184.447 92.9692 L 183.948 89.4226 M 184.447 92.9692 H 201 M 184.916 96.3148 H 201 M 152.749 96.3148 H 136.665 M 152.749 96.3148 L 154.081 99.4754 M 201 96.3148 V 92.9692 M 154.081 99.4754 H 138.441 M 183.948 89.4226 L 183.419 85.6556 M 183.948 89.4226 H 201 M 201 92.9692 V 89.4226 M 201 89.4226 V 85.6556 M 165.839 85.6556 L 164.713 81.6475 M 165.839 85.6556 H 183.419 M 165.839 85.6556 H 148.258 M 183.419 85.6556 L 182.856 81.6475 M 183.419 85.6556 H 201 M 201 85.6556 V 81.6475 M 164.713 81.6475 H 182.856 M 164.713 81.6475 H 146.569 M 182.256 77.3743 L 182.856 81.6475 M 182.256 77.3743 L 181.615 72.8087 M 182.256 77.3743 H 201 M 182.856 81.6475 H 201 M 146.569 81.6475 H 128.425 M 146.569 81.6475 L 148.258 85.6556 M 201 81.6475 V 77.3743 M 148.258 85.6556 H 130.677 M 181.615 72.8087 L 180.928 67.9197 M 181.615 72.8087 H 201 M 201 77.3743 V 72.8087 M 201 72.8087 V 67.9197 M 160.857 67.9197 L 159.382 62.6714 M 160.857 67.9197 H 180.928 M 160.857 67.9197 H 140.785 M 180.928 67.9197 L 180.191 62.6714 M 180.928 67.9197 H 201 M 201 67.9197 V 62.6714 M 159.382 62.6714 H 180.191 M 159.382 62.6714 H 138.574 M 179.398 57.0232 L 180.191 62.6714 M 179.398 57.0232 L 178.542 50.927 M 179.398 57.0232 H 201 M 180.191 62.6714 H 201 M 138.574 62.6714 H 117.765 M 138.574 62.6714 L 140.785 67.9197 M 201 62.6714 V 57.0232 M 140.785 67.9197 H 120.713 M 178.542 50.927 L 177.615 44.3278 M 178.542 50.927 H 201 M 201 57.0232 V 50.927 M 201 50.927 V 44.3278 M 154.23 44.3278 L 152.216 37.1605 M 154.23 44.3278 H 177.615 M 154.23 44.3278 H 130.844 M 177.615 44.3278 L 176.608 37.1605 M 177.615 44.3278 H 201 M 201 44.3278 V 37.1605 M 152.216 37.1605 H 176.608 M 152.216 37.1605 H 127.825 M 175.511 29.3483 L 176.608 37.1605 M 175.511 29.3483 L 174.31 20.8003 M 175.511 29.3483 H 201 M 176.608 37.1605 H 201 M 127.825 37.1605 H 103.433 M 127.825 37.1605 L 130.844 44.3278 M 201 37.1605 V 29.3483 M 130.844 44.3278 H 107.459 M 174.31 20.8003 L 172.991 11.407 M 174.31 20.8003 H 201 M 201 29.3483 V 20.8003 M 201 20.8003 V 11.407 M 144.982 11.407 L 142.069 1.03684 M 144.982 11.407 H 172.991 M 144.982 11.407 H 116.973 M 172.991 11.407 L 171.535 1.03684 M 172.991 11.407 H 201 M 201 11.407 V 1.03684 M 171.535 1.03684 H 142.069 M 171.535 1.03684 H 201 M 142.069 1.03684 H 112.604 M 112.604 1.03684 H 83.1387 M 112.604 1.03684 L 116.973 11.407 M 116.973 11.407 H 88.9645 M 140.538 139.082 L 139.995 138.438 L 139.443 137.783 M 140.538 139.082 H 150.615 M 140.538 139.082 H 130.461 M 151.495 140.336 L 152.345 141.547 M 151.495 140.336 L 150.615 139.082 M 151.495 140.336 H 161.396 M 152.345 141.547 H 162.076 M 152.345 141.547 L 152.964 142.428 L 153.167 142.716 M 143.6 142.716 H 153.167 M 143.6 142.716 L 143.961 143.145 L 144.553 143.847 M 143.6 142.716 H 134.033 M 150.615 139.082 L 149.702 137.783 M 150.615 139.082 H 160.692 M 161.396 140.336 L 162.076 141.547 M 161.396 140.336 L 160.692 139.082 M 162.076 141.547 L 162.408 142.136 L 162.652 142.572 L 162.733 142.716 M 153.167 142.716 H 162.733 M 153.167 142.716 L 153.765 143.568 L 153.961 143.847 M 160.692 139.082 L 160.147 138.112 L 159.962 137.783 M 172.3 142.716 L 172.36 142.86 L 172.48 143.145 L 172.659 143.568 L 172.777 143.847 M 172.3 142.716 H 162.733 M 162.733 142.716 L 162.814 142.86 L 162.974 143.145 L 163.369 143.847 M 139.443 137.783 H 149.702 M 139.443 137.783 H 129.183 M 148.756 136.436 L 148.877 136.607 L 148.996 136.778 L 149.469 137.451 L 149.702 137.783 M 148.756 136.436 L 148.024 135.393 L 147.775 135.039 M 148.756 136.436 H 159.205 M 149.702 137.783 H 159.962 M 129.183 137.783 H 118.924 M 129.183 137.783 L 130.145 138.762 L 130.461 139.082 M 159.962 137.783 L 159.205 136.436 M 130.461 139.082 H 120.383 M 147.775 135.039 L 147.65 134.86 L 147.524 134.681 L 147.143 134.138 L 147.014 133.955 L 146.756 133.588 M 147.775 135.039 H 158.42 M 159.205 136.436 L 159.109 136.264 L 158.42 135.039 M 158.42 135.039 L 158.32 134.86 L 158.219 134.681 L 158.118 134.501 L 157.605 133.588 M 135.907 133.588 L 134.637 132.08 M 135.907 133.588 H 146.756 M 135.907 133.588 H 125.059 M 146.756 133.588 L 145.697 132.08 M 146.756 133.588 H 157.605 M 157.605 133.588 L 156.758 132.08 M 134.637 132.08 H 145.697 M 134.637 132.08 H 123.576 M 144.596 130.512 L 145.697 132.08 M 144.596 130.512 L 143.451 128.88 M 144.596 130.512 H 155.877 M 145.697 132.08 H 156.758 M 123.576 132.08 H 112.516 M 123.576 132.08 L 125.059 133.588 M 156.758 132.08 L 155.877 130.512 M 125.059 133.588 H 114.21 M 143.451 128.88 L 142.257 127.181 M 143.451 128.88 H 154.96 M 155.877 130.512 L 155.651 130.11 L 154.96 128.88 M 154.96 128.88 L 154.607 128.251 L 154.248 127.613 L 154.006 127.181 M 130.509 127.181 L 129.77 126.305 L 129.016 125.41 M 130.509 127.181 H 142.257 M 130.509 127.181 H 118.76 M 142.257 127.181 L 141.014 125.41 M 142.257 127.181 H 154.006 M 154.006 127.181 L 153.011 125.41 M 129.016 125.41 H 141.014 M 129.016 125.41 H 117.019 M 139.716 123.562 L 141.014 125.41 M 139.716 123.562 L 138.361 121.633 M 139.716 123.562 H 151.973 M 141.014 125.41 H 153.011 M 117.019 125.41 H 105.022 M 117.019 125.41 L 118.76 127.181 M 153.011 125.41 L 151.973 123.562 M 118.76 127.181 H 107.012 M 138.361 121.633 L 138.013 121.137 L 136.945 119.616 M 138.361 121.633 H 150.889 M 151.973 123.562 L 150.889 121.633 M 150.889 121.633 L 150.75 121.386 L 150.329 120.636 L 149.756 119.616 M 124.134 119.616 L 122.356 117.506 M 124.134 119.616 H 136.945 M 124.134 119.616 H 111.323 M 136.945 119.616 L 135.463 117.506 M 136.945 119.616 H 149.756 M 149.756 119.616 L 148.571 117.506 M 122.356 117.506 H 135.463 M 122.356 117.506 H 109.249 M 133.911 115.297 L 134.89 116.69 L 135.463 117.506 M 133.911 115.297 L 132.284 112.98 M 133.911 115.297 H 147.329 M 135.463 117.506 H 148.571 M 109.249 117.506 H 96.1412 M 109.249 117.506 L 111.323 119.616 M 148.571 117.506 L 147.329 115.297 M 111.323 119.616 H 98.5119 M 132.284 112.98 L 130.576 110.547 M 132.284 112.98 H 146.027 M 147.329 115.297 L 146.027 112.98 M 146.027 112.98 L 144.661 110.547 M 116.491 110.547 L 114.337 107.991 M 116.491 110.547 H 130.576 M 116.491 110.547 H 102.407 M 130.576 110.547 L 128.781 107.991 M 130.576 110.547 H 144.661 M 144.661 110.547 L 143.225 107.991 M 114.337 107.991 H 128.781 M 114.337 107.991 H 99.8934 M 126.892 105.301 L 128.781 107.991 M 126.892 105.301 L 124.902 102.467 M 126.892 105.301 H 141.714 M 128.781 107.991 H 143.225 M 99.8934 107.991 H 85.4498 M 99.8934 107.991 L 102.407 110.547 M 143.225 107.991 L 141.714 105.301 M 102.407 110.547 H 88.3219 M 124.902 102.467 L 122.801 99.4754 M 124.902 102.467 H 140.121 M 141.714 105.301 L 140.121 102.467 M 140.121 102.467 L 138.441 99.4754 M 107.161 99.4754 L 104.498 96.3148 M 107.161 99.4754 H 122.801 M 107.161 99.4754 H 91.5215 M 122.801 99.4754 L 120.582 96.3148 M 122.801 99.4754 H 138.441 M 138.441 99.4754 L 136.665 96.3148 M 104.498 96.3148 H 120.582 M 104.498 96.3148 H 88.4142 M 118.232 92.9692 L 120.582 96.3148 M 118.232 92.9692 L 115.742 89.4226 M 118.232 92.9692 H 134.786 M 120.582 96.3148 H 136.665 M 88.4142 96.3148 H 72.3305 M 88.4142 96.3148 L 91.5215 99.4754 M 136.665 96.3148 L 134.786 92.9692 M 91.5215 99.4754 H 75.8819 M 115.742 89.4226 L 113.096 85.6556 M 115.742 89.4226 H 132.793 M 134.786 92.9692 L 132.793 89.4226 M 132.793 89.4226 L 130.677 85.6556 M 95.5155 85.6556 L 92.138 81.6475 M 95.5155 85.6556 H 113.096 M 95.5155 85.6556 H 77.9347 M 113.096 85.6556 L 110.282 81.6475 M 113.096 85.6556 H 130.677 M 130.677 85.6556 L 128.425 81.6475 M 92.138 81.6475 H 110.282 M 92.138 81.6475 H 73.9943 M 107.281 77.3743 L 110.282 81.6475 M 107.281 77.3743 L 104.075 72.8087 M 107.281 77.3743 H 126.025 M 110.282 81.6475 H 128.425 M 73.9943 81.6475 H 55.8506 M 73.9943 81.6475 L 77.9347 85.6556 M 128.425 81.6475 L 126.025 77.3743 M 77.9347 85.6556 H 60.354 M 104.075 72.8087 L 100.641 67.9197 M 104.075 72.8087 H 123.46 M 126.025 77.3743 L 123.46 72.8087 M 123.46 72.8087 L 120.713 67.9197 M 80.5695 67.9197 L 76.147 62.6714 M 80.5695 67.9197 H 100.641 M 80.5695 67.9197 H 60.4977 M 100.641 67.9197 L 96.9558 62.6714 M 100.641 67.9197 H 120.713 M 120.713 67.9197 L 117.765 62.6714 M 76.147 62.6714 H 96.9558 M 76.147 62.6714 H 55.3382 M 92.9893 57.0232 L 96.9558 62.6714 M 92.9893 57.0232 L 88.7084 50.927 M 92.9893 57.0232 H 114.591 M 96.9558 62.6714 H 117.765 M 55.3382 62.6714 H 34.5293 M 55.3382 62.6714 L 60.4977 67.9197 M 117.765 62.6714 L 114.591 57.0232 M 60.4977 67.9197 H 40.4259 M 88.7084 50.927 L 84.0741 44.3278 M 88.7084 50.927 H 111.167 M 114.591 57.0232 L 111.167 50.927 M 111.167 50.927 L 107.459 44.3278 M 60.689 44.3278 L 54.6491 37.1605 M 60.689 44.3278 H 84.0741 M 60.689 44.3278 H 37.3037 M 84.0741 44.3278 L 79.0409 37.1605 M 84.0741 44.3278 H 107.459 M 107.459 44.3278 L 103.433 37.1605 M 54.6491 37.1605 H 79.0409 M 54.6491 37.1605 H 30.2572 M 73.5549 29.3483 L 79.0409 37.1605 M 73.5549 29.3483 L 67.552 20.8003 M 73.5549 29.3483 H 99.0438 M 79.0409 37.1605 H 103.433 M 30.2572 37.1605 H 5.86541 M 30.2572 37.1605 L 37.3037 44.3278 M 103.433 37.1605 L 99.0438 29.3483 M 37.3037 44.3278 H 13.9187 M 67.552 20.8003 L 60.9558 11.407 M 67.552 20.8003 H 94.2417 M 99.0438 29.3483 L 94.2417 20.8003 M 94.2417 20.8003 L 88.9645 11.407 M 32.9469 11.407 L 24.2081 1.03684 M 32.9469 11.407 H 60.9558 M 32.9469 11.407 H 4.93796 M 60.9558 11.407 L 53.6735 1.03684 M 60.9558 11.407 H 88.9645 M 88.9645 11.407 L 83.1387 1.03684 M 53.6735 1.03684 H 24.2081 M 53.6735 1.03684 H 83.1387 M 24.2081 1.03684 L 0.10819 1.03703 M 4.93796 11.407 L 0.10819 6.49428 M 4.93796 11.407 H 0.10819 M 100.229 139.082 L 98.4048 137.783 M 100.229 139.082 H 110.306 M 100.229 139.082 H 90.1523 M 111.891 140.336 L 113.421 141.547 M 111.891 140.336 L 110.306 139.082 M 111.891 140.336 H 121.792 M 113.421 141.547 H 123.152 M 113.421 141.547 L 114.9 142.716 M 105.333 142.716 H 114.9 M 105.333 142.716 L 105.935 143.145 L 106.922 143.847 M 105.333 142.716 H 95.7666 M 110.306 139.082 L 108.664 137.783 M 110.306 139.082 H 120.383 M 121.792 140.336 L 123.152 141.547 M 121.792 140.336 L 120.383 139.082 M 123.152 141.547 L 124.142 142.428 L 124.467 142.716 M 114.9 142.716 L 115.081 142.86 L 116.33 143.847 M 114.9 142.716 H 124.467 M 120.383 139.082 L 118.924 137.783 M 134.033 142.716 L 135.145 143.847 M 134.033 142.716 H 124.467 M 124.467 142.716 L 124.948 143.145 L 125.737 143.847 M 98.4048 137.783 H 108.664 M 98.4048 137.783 H 88.1453 M 106.962 136.436 L 108.664 137.783 M 106.962 136.436 L 105.195 135.039 M 106.962 136.436 H 117.41 M 108.664 137.783 H 118.924 M 88.1453 137.783 H 77.8858 M 88.1453 137.783 L 90.1523 139.082 M 118.924 137.783 L 117.41 136.436 M 90.1523 139.082 H 80.0753 M 105.195 135.039 L 104.743 134.681 L 103.361 133.588 M 105.195 135.039 H 115.84 M 117.41 136.436 L 115.84 135.039 M 115.84 135.039 L 114.21 133.588 M 92.5119 133.588 L 92.2518 133.402 L 90.3944 132.08 M 92.5119 133.588 H 103.361 M 92.5119 133.588 H 81.6632 M 103.361 133.588 L 101.455 132.08 M 103.361 133.588 H 114.21 M 114.21 133.588 L 114.002 133.402 L 112.516 132.08 M 90.3944 132.08 H 101.455 M 90.3944 132.08 H 79.3339 M 99.4732 130.512 L 101.455 132.08 M 99.4732 130.512 L 97.411 128.88 M 99.4732 130.512 H 110.754 M 101.455 132.08 H 112.516 M 79.3339 132.08 H 68.2733 M 79.3339 132.08 L 81.6632 133.588 M 112.516 132.08 L 110.754 130.512 M 81.6632 133.588 H 70.8144 M 97.411 128.88 L 95.2631 127.181 M 97.411 128.88 H 108.921 M 110.754 130.512 L 108.921 128.88 M 108.921 128.88 L 107.012 127.181 M 83.5147 127.181 L 81.0272 125.41 M 83.5147 127.181 H 95.2631 M 83.5147 127.181 H 71.7661 M 95.2631 127.181 L 93.0244 125.41 M 95.2631 127.181 H 107.012 M 107.012 127.181 L 105.022 125.41 M 81.0272 125.41 H 93.0244 M 81.0272 125.41 H 69.0298 M 90.6888 123.562 L 93.0244 125.41 M 90.6888 123.562 L 88.2499 121.633 M 90.6888 123.562 H 102.946 M 93.0244 125.41 H 105.022 M 69.0298 125.41 H 57.0326 M 69.0298 125.41 L 71.7661 127.181 M 105.022 125.41 L 102.946 123.562 M 71.7661 127.181 H 60.0175 M 88.2499 121.633 L 85.7009 119.616 M 88.2499 121.633 H 100.778 M 102.946 123.562 L 100.778 121.633 M 100.778 121.633 L 98.5119 119.616 M 72.8898 119.616 L 69.9265 117.506 M 72.8898 119.616 H 85.7009 M 72.8898 119.616 H 60.0788 M 85.7009 119.616 L 83.0338 117.506 M 85.7009 119.616 H 98.5119 M 98.5119 119.616 L 96.1412 117.506 M 69.9265 117.506 H 83.0338 M 69.9265 117.506 H 56.8191 M 80.2404 115.297 L 83.0338 117.506 M 80.2404 115.297 L 77.3115 112.98 M 80.2404 115.297 H 93.6581 M 83.0338 117.506 H 96.1412 M 56.8191 117.506 H 43.7118 M 56.8191 117.506 L 60.0788 119.616 M 96.1412 117.506 L 93.6581 115.297 M 60.0788 119.616 H 47.2678 M 77.3115 112.98 L 74.2371 110.547 M 77.3115 112.98 H 91.0546 M 93.6581 115.297 L 91.0546 112.98 M 91.0546 112.98 L 88.3219 110.547 M 60.1522 110.547 L 56.5621 107.991 M 60.1522 110.547 H 74.2371 M 60.1522 110.547 H 46.0676 M 74.2371 110.547 L 71.0058 107.991 M 74.2371 110.547 H 88.3219 M 88.3219 110.547 L 85.4498 107.991 M 56.5621 107.991 H 71.0058 M 56.5621 107.991 H 42.1182 M 67.6055 105.301 L 71.0058 107.991 M 67.6055 105.301 L 64.0228 102.467 M 67.6055 105.301 H 82.4272 M 71.0058 107.991 H 85.4498 M 42.1182 107.991 H 27.6745 M 42.1182 107.991 L 46.0676 110.547 M 85.4498 107.991 L 82.4272 105.301 M 46.0676 110.547 H 31.9828 M 64.0228 102.467 L 60.242 99.4754 M 64.0228 102.467 H 79.2424 M 82.4272 105.301 L 79.2424 102.467 M 79.2424 102.467 L 75.8819 99.4754 M 44.6022 99.4754 L 40.1631 96.3148 M 44.6022 99.4754 H 60.242 M 44.6022 99.4754 H 28.9625 M 60.242 99.4754 L 56.2468 96.3148 M 60.242 99.4754 H 75.8819 M 75.8819 99.4754 L 72.3305 96.3148 M 40.1631 96.3148 H 56.2468 M 40.1631 96.3148 H 24.0794 M 52.018 92.9692 L 56.2468 96.3148 M 52.018 92.9692 L 47.5348 89.4226 M 52.018 92.9692 H 68.5715 M 56.2468 96.3148 H 72.3305 M 24.0794 96.3148 H 7.9957 M 24.0794 96.3148 L 28.9625 99.4754 M 72.3305 96.3148 L 68.5715 92.9692 M 28.9625 99.4754 H 13.3227 M 47.5348 89.4226 L 42.7732 85.6556 M 47.5348 89.4226 H 64.5865 M 68.5715 92.9692 L 64.5865 89.4226 M 64.5865 89.4226 L 60.354 85.6556 M 25.1925 85.6556 L 19.5633 81.6475 M 25.1925 85.6556 H 42.7732 M 25.1925 85.6556 H 7.61171 M 42.7732 85.6556 L 37.707 81.6475 M 42.7732 85.6556 H 60.354 M 60.354 85.6556 L 55.8506 81.6475 M 19.5633 81.6475 H 37.707 M 19.5633 81.6475 H 1.41964 M 32.3053 77.3743 L 37.707 81.6475 M 32.3053 77.3743 L 26.5343 72.8087 M 32.3053 77.3743 H 51.0491 M 37.707 81.6475 H 55.8506 M 1.41964 81.6475 L 7.61171 85.6556 M 1.41964 81.6475 H 0.10819 M 1.41964 81.6475 L 0.10819 80.7987 M 55.8506 81.6475 L 51.0491 77.3743 M 7.61171 85.6556 H 0.10819 M 26.5343 72.8087 L 20.3543 67.9197 M 26.5343 72.8087 H 45.9193 M 51.0491 77.3743 L 45.9193 72.8087 M 45.9193 72.8087 L 40.4259 67.9197 M 0.282505 67.9197 H 20.3543 M 0.282505 67.9197 H 0.10819 M 0.282505 67.9197 L 0.10819 67.7956 M 20.3543 67.9197 L 13.7203 62.6714 M 20.3543 67.9197 H 40.4259 M 40.4259 67.9197 L 34.5293 62.6714 M 6.58067 57.0232 L 13.7203 62.6714 M 6.58067 57.0232 H 28.1828 M 6.58067 57.0232 H 0.10819 M 6.58067 57.0232 L 0.10819 51.9026 M 13.7203 62.6714 H 34.5293 M 13.7203 62.6714 H 0.10819 M 34.5293 62.6714 L 28.1828 57.0232 M 28.1828 57.0232 L 21.3335 50.927 M 21.3335 50.927 L 13.9187 44.3278 M 21.3335 50.927 H 0.10819 M 13.9187 44.3278 L 5.86541 37.1605 M 13.9187 44.3278 H 0.10819 M 5.86541 37.1605 H 0.10819 M 5.86541 37.1605 L 0.10819 32.0364 M 59.921 139.082 L 57.3668 137.783 M 59.921 139.082 H 69.9982 M 59.921 139.082 H 49.844 M 72.2872 140.336 L 74.4976 141.547 M 72.2872 140.336 L 69.9982 139.082 M 72.2872 140.336 H 82.1882 M 74.4976 141.547 H 84.2285 M 74.4976 141.547 L 76.6333 142.716 M 67.0667 142.716 H 76.6333 M 67.0667 142.716 L 69.2903 143.847 M 67.0667 142.716 H 57.5001 M 69.9982 139.082 L 67.6263 137.783 M 69.9982 139.082 H 80.0753 M 82.1882 140.336 L 84.2285 141.547 M 82.1882 140.336 L 80.0753 139.082 M 84.2285 141.547 L 86.2 142.716 M 76.6333 142.716 L 76.8951 142.86 L 78.6981 143.847 M 76.6333 142.716 H 86.2 M 80.0753 139.082 L 77.8858 137.783 M 95.7666 142.716 L 97.5137 143.847 M 95.7666 142.716 H 86.2 M 86.2 142.716 L 86.4417 142.86 L 88.1059 143.847 M 57.3668 137.783 H 67.6263 M 57.3668 137.783 H 47.1072 M 65.1668 136.436 L 67.6263 137.783 M 65.1668 136.436 L 62.615 135.039 M 65.1668 136.436 H 75.6157 M 67.6263 137.783 H 77.8858 M 47.1072 137.783 H 36.8477 M 47.1072 137.783 L 49.844 139.082 M 77.8858 137.783 L 75.6157 136.436 M 49.844 139.082 H 39.767 M 62.615 135.039 L 59.9656 133.588 M 62.615 135.039 H 73.26 M 75.6157 136.436 L 75.3258 136.264 L 73.26 135.039 M 73.26 135.039 L 70.8144 133.588 M 49.1168 133.588 L 46.1522 132.08 M 49.1168 133.588 H 59.9656 M 49.1168 133.588 H 38.268 M 59.9656 133.588 L 57.2127 132.08 M 59.9656 133.588 H 70.8144 M 70.8144 133.588 L 68.2733 132.08 M 46.1522 132.08 H 57.2127 M 46.1522 132.08 H 35.0916 M 54.3502 130.512 L 57.2127 132.08 M 54.3502 130.512 L 51.3714 128.88 M 54.3502 130.512 H 65.6309 M 57.2127 132.08 H 68.2733 M 35.0916 132.08 H 24.0311 M 35.0916 132.08 L 38.268 133.588 M 68.2733 132.08 L 65.6309 130.512 M 38.268 133.588 H 27.4192 M 51.3714 128.88 L 48.2691 127.181 M 51.3714 128.88 H 62.8812 M 65.6309 130.512 L 62.8812 128.88 M 62.8812 128.88 L 60.0175 127.181 M 36.5205 127.181 L 33.0379 125.41 M 36.5205 127.181 H 48.2691 M 36.5205 127.181 H 24.7718 M 48.2691 127.181 L 45.0353 125.41 M 48.2691 127.181 H 60.0175 M 60.0175 127.181 L 57.0326 125.41 M 33.0379 125.41 H 45.0353 M 33.0379 125.41 H 21.0407 M 41.6616 123.562 L 45.0353 125.41 M 41.6616 123.562 L 38.1389 121.633 M 41.6616 123.562 H 53.9185 M 45.0353 125.41 H 57.0326 M 21.0407 125.41 H 9.04348 M 21.0407 125.41 L 24.7718 127.181 M 57.0326 125.41 L 53.9185 123.562 M 24.7718 127.181 H 13.0234 M 38.1389 121.633 L 34.4567 119.616 M 38.1389 121.633 H 50.6666 M 53.9185 123.562 L 50.6666 121.633 M 50.6666 121.633 L 47.2678 119.616 M 21.6457 119.616 L 17.4971 117.506 M 21.6457 119.616 H 34.4567 M 21.6457 119.616 H 8.83485 M 34.4567 119.616 L 30.6044 117.506 M 34.4567 119.616 H 47.2678 M 47.2678 119.616 L 43.7118 117.506 M 17.4971 117.506 H 30.6044 M 26.5694 115.297 L 30.6044 117.506 M 26.5694 115.297 L 22.339 112.98 M 26.5694 115.297 H 39.9873 M 30.6044 117.506 H 43.7118 M 43.7118 117.506 L 39.9873 115.297 M 8.83485 119.616 H 0.10819 M 22.339 112.98 L 17.898 110.547 M 22.339 112.98 H 36.0821 M 39.9873 115.297 L 36.0821 112.98 M 36.0821 112.98 L 31.9828 110.547 M 3.81318 110.547 H 17.898 M 3.81318 110.547 H 0.10819 M 3.81318 110.547 L 0.10819 108.663 M 17.898 110.547 L 13.2306 107.991 M 17.898 110.547 H 31.9828 M 31.9828 110.547 L 27.6745 107.991 M 8.31922 105.301 L 13.2306 107.991 M 8.31922 105.301 L 3.14396 102.467 M 8.31922 105.301 H 23.1409 M 8.31922 105.301 H 0.10819 M 13.2306 107.991 H 27.6745 M 13.2306 107.991 H 0.10819 M 27.6745 107.991 L 23.1409 105.301 M 0.0673838 108.642 L 0.10819 108.663 M 3.14396 102.467 H 18.3636 M 3.14396 102.467 H 0.10819 M 3.14396 102.467 L 0.10819 100.804 M 23.1409 105.301 L 18.3636 102.467 M 18.3636 102.467 L 13.3227 99.4754 M 13.3227 99.4754 L 7.9957 96.3148 M 13.3227 99.4754 H 0.10819 M 2.35734 92.9692 L 7.9957 96.3148 M 2.35734 92.9692 H 0.10819 M 2.35734 92.9692 L 0.10819 91.6348 M 7.9957 96.3148 H 0.10819 M 19.6129 139.082 L 16.3287 137.783 M 19.6129 139.082 H 29.6899 M 19.6129 139.082 H 9.53567 M 32.6832 140.336 L 35.5738 141.547 M 32.6832 140.336 L 29.6899 139.082 M 32.6832 140.336 H 42.5843 M 35.5738 141.547 H 45.3047 M 35.5738 141.547 L 38.3666 142.716 M 28.7999 142.716 H 38.3666 M 28.7999 142.716 L 31.6589 143.847 M 28.7999 142.716 H 19.2333 M 29.6899 139.082 L 26.5882 137.783 M 29.6899 139.082 H 39.767 M 42.5843 140.336 L 45.3047 141.547 M 42.5843 140.336 L 39.767 139.082 M 45.3047 141.547 L 47.9332 142.716 M 38.3666 142.716 H 47.9332 M 38.3666 142.716 L 41.0669 143.847 M 39.767 139.082 L 36.8477 137.783 M 57.5001 142.716 L 59.8825 143.847 M 57.5001 142.716 H 47.9332 M 47.9332 142.716 L 50.4747 143.847 M 16.3287 137.783 H 26.5882 M 16.3287 137.783 H 6.06923 M 23.3721 136.436 L 26.5882 137.783 M 23.3721 136.436 L 20.0352 135.039 M 23.3721 136.436 H 33.8208 M 26.5882 137.783 H 36.8477 M 6.06923 137.783 L 9.53567 139.082 M 6.06923 137.783 H 0.10819 M 36.8477 137.783 L 33.8208 136.436 M 9.53567 139.082 H 0.10819 M 20.0352 135.039 L 16.5704 133.588 M 20.0352 135.039 H 30.6802 M 33.8208 136.436 L 30.6802 135.039 M 30.6802 135.039 L 27.4192 133.588 M 5.72165 133.588 L 1.90994 132.08 M 5.72165 133.588 H 16.5704 M 5.72165 133.588 H 0.10819 M 16.5704 133.588 L 12.9705 132.08 M 16.5704 133.588 H 27.4192 M 27.4192 133.588 L 24.0311 132.08 M 9.22721 130.512 L 12.9705 132.08 M 9.22721 130.512 L 5.3318 128.88 M 9.22721 130.512 H 20.5079 M 9.22721 130.512 H 0.10819 M 12.9705 132.08 H 1.90994 M 12.9705 132.08 H 24.0311 M 1.90994 132.08 L 0.10819 131.367 M 1.90994 132.08 H 0.10819 M 24.0311 132.08 L 20.5079 130.512 M 5.3318 128.88 L 1.27483 127.181 M 5.3318 128.88 H 16.8416 M 5.3318 128.88 H 0.10819 M 20.5079 130.512 L 16.8416 128.88 M 16.8416 128.88 L 13.0234 127.181 M 1.27483 127.181 H 13.0234 M 1.27483 127.181 L 0.10819 126.693 M 1.27483 127.181 H 0.10819 M 13.0234 127.181 L 9.04348 125.41 M 4.8913 123.562 L 9.04348 125.41 M 4.8913 123.562 L 0.555593 121.633 M 4.8913 123.562 H 0.10819 M 9.04348 125.41 H 0.10819 M 0.0454105 125.41 H 0.10819 M 0.555593 121.633 H 0.10819 M 0.555593 121.633 L 0.10819 121.434 M 0 121.386 L 0.10819 121.434 M 2.98031 140.336 L 6.38083 141.547 M 2.98031 140.336 H 0.10819 M 2.98031 140.336 L 0.10819 139.314 M 6.38083 141.547 L 9.66666 142.716 M 6.38083 141.547 H 0.10819 M 19.2333 142.716 L 22.2511 143.847 M 19.2333 142.716 H 9.66666 M 9.66666 142.716 L 12.8433 143.847 M 9.66666 142.716 H 0.10819 M 332.71 143.847 H 342.118 M 332.71 143.847 H 323.302 M 339.813 144.941 L 340.382 144.671 L 342.118 143.847 M 339.813 144.941 H 349.067 M 342.118 143.847 H 351.525 M 349.067 144.941 L 349.674 144.671 L 349.979 144.535 L 351.525 143.847 M 351.525 143.847 H 360.933 M 360.933 143.847 H 370.341 M 323.302 143.847 H 313.894 M 370.341 143.847 H 379.749 M 379.749 143.847 L 376.83 144.941 M 379.749 143.847 H 389.157 M 376.83 144.941 H 386.084 M 295.078 143.847 H 304.486 M 295.078 143.847 H 285.67 M 302.796 144.941 L 303.213 144.671 L 303.423 144.535 L 304.486 143.847 M 302.796 144.941 H 312.05 M 304.486 143.847 H 313.894 M 312.05 144.941 L 313.894 143.847 M 285.67 143.847 H 276.263 M 257.447 143.847 H 266.855 M 257.447 143.847 H 248.039 M 265.779 144.941 L 265.912 144.806 L 266.045 144.671 L 266.179 144.535 L 266.855 143.847 M 265.779 144.941 H 275.033 M 266.855 143.847 H 276.263 M 275.033 144.941 L 276.263 143.847 M 248.039 143.847 H 238.631 M 219.816 143.847 H 229.223 M 219.816 143.847 H 210.408 M 228.763 144.941 L 229.223 143.847 M 228.763 144.941 H 238.017 M 229.223 143.847 H 238.631 M 238.017 144.941 L 238.093 144.806 L 238.169 144.671 L 238.245 144.535 L 238.631 143.847 M 210.408 143.847 H 201 M 182.184 143.847 H 191.592 M 182.184 143.847 H 172.777 M 191.746 144.941 L 191.592 143.847 M 191.746 144.941 H 201 M 191.592 143.847 H 201 M 201 144.941 V 143.847 M 172.777 143.847 H 163.369 M 144.553 143.847 H 153.961 M 144.553 143.847 H 135.145 M 154.729 144.941 L 154.539 144.671 L 154.155 144.124 L 153.961 143.847 M 154.729 144.941 H 163.983 M 153.961 143.847 H 163.369 M 163.983 144.941 L 163.907 144.806 L 163.831 144.671 L 163.755 144.535 L 163.369 143.847 M 135.145 143.847 H 125.737 M 106.922 143.847 H 116.33 M 106.922 143.847 H 97.5137 M 117.712 144.941 L 117.371 144.671 L 117.199 144.535 L 116.33 143.847 M 117.712 144.941 H 126.967 M 116.33 143.847 H 125.737 M 126.967 144.941 L 126.815 144.806 L 125.737 143.847 M 97.5137 143.847 H 88.1059 M 69.2903 143.847 H 78.6981 M 69.2903 143.847 H 59.8825 M 80.6955 144.941 L 80.2023 144.671 L 79.9541 144.535 L 78.6981 143.847 M 80.6955 144.941 H 89.9497 M 78.6981 143.847 H 88.1059 M 89.9497 144.941 L 89.7225 144.806 L 88.1059 143.847 M 59.8825 143.847 H 50.4747 M 31.6589 143.847 H 41.0669 M 31.6589 143.847 H 22.2511 M 43.6787 144.941 L 41.0669 143.847 M 43.6787 144.941 H 52.9329 M 41.0669 143.847 H 50.4747 M 52.9329 144.941 L 52.326 144.671 L 52.0205 144.535 L 50.4747 143.847 M 22.2511 143.847 H 12.8433 M 6.66207 144.941 L 3.43546 143.847 M 6.66207 144.941 H 15.9163 M 6.66207 144.941 H 0.10819 M 3.43546 143.847 H 12.8433 M 3.43546 143.847 L 0.10819 142.719 M 3.43546 143.847 H 0.10819 M 15.9163 144.941 L 15.1575 144.671 L 12.8433 143.847 M 386.084 144.941 L 386.843 144.671 L 389.157 143.847 M 389.157 143.847 H 398.565 M 398.565 143.847 L 401.892 142.719 M 398.565 143.847 H 401.892 M 401.892 91.6348 V 92.9692 M 401.892 91.6348 V 89.4226 M 401.892 92.9692 V 96.3148 M 401.892 89.4226 V 88.7615 V 85.6556 M 401.892 85.6556 V 81.6475 M 401.892 117.506 V 119.616 M 401.892 117.506 V 115.474 M 401.892 144.941 V 143.847 M 401.892 143.847 V 142.719 M 401.892 142.719 L 401.9 142.716 H 401.892 M 401.892 142.719 V 142.716 M 401.892 142.716 V 141.547 M 401.892 141.547 V 140.336 M 401.892 140.336 V 139.314 M 401.892 139.314 V 139.082 M 401.892 139.082 V 137.783 M 401.892 137.783 V 136.436 M 401.892 136.436 V 135.549 M 401.892 135.549 V 135.039 M 401.892 135.039 V 133.588 M 401.892 133.588 V 132.08 M 401.892 132.08 V 131.367 M 401.892 131.367 V 130.512 M 401.892 130.512 V 128.88 M 401.892 128.88 V 127.181 M 401.892 127.181 V 126.693 M 401.892 126.693 V 125.41 M 401.892 125.41 V 123.562 M 401.892 123.562 V 121.633 M 401.892 121.633 V 121.434 M 401.892 121.434 V 119.616 M 401.892 115.297 V 112.98 M 401.892 115.297 V 115.474 M 401.892 112.98 V 110.547 M 401.892 110.547 V 108.663 M 401.892 108.663 V 107.991 M 401.892 107.991 V 105.301 M 401.892 105.301 V 102.467 M 401.892 102.467 V 100.804 M 401.892 100.804 V 99.4754 M 401.892 99.4754 V 96.3148 M 401.892 81.6475 V 80.7987 M 401.892 80.7987 V 77.3743 M 401.892 77.3743 V 72.8087 M 401.892 72.8087 V 67.9197 M 401.892 67.9197 V 67.7956 M 401.892 67.7956 V 62.6714 M 401.892 62.6714 V 57.0232 M 401.892 57.0232 V 51.9026 M 401.892 51.9026 V 50.927 M 401.892 50.927 V 44.3278 M 401.892 44.3278 V 37.1605 M 401.892 37.1605 V 32.0364 M 401.892 32.0364 V 29.3483 M 401.892 29.3483 V 20.8003 M 401.892 20.8003 V 11.407 M 401.892 11.407 V 6.49428 M 401.892 6.49428 V 1.03703 M 401.892 1.03703 V 1 H 0.10819 V 1.03703 M 0.10819 115.297 V 112.98 M 0.10819 115.297 V 115.474 M 0.10819 115.474 V 117.506 M 0.10819 117.506 V 119.616 M 0.10819 119.616 V 121.434 M 0.10819 121.434 V 121.633 M 0.10819 121.633 V 123.562 M 0.10819 123.562 V 125.41 M 0.10819 125.41 V 126.693 M 0.10819 126.693 V 127.181 M 0.10819 127.181 V 128.88 M 0.10819 128.88 V 130.512 M 0.10819 130.512 V 131.367 M 0.10819 131.367 V 132.08 M 0.10819 132.08 V 133.588 M 0.10819 133.588 V 135.039 M 0.10819 135.039 V 135.549 M 0.10819 135.549 V 136.436 M 0.10819 136.436 V 137.783 M 0.10819 137.783 V 139.082 M 0.10819 139.082 V 139.314 M 0.10819 139.314 V 140.336 M 0.10819 140.336 V 141.547 M 0.10819 141.547 V 142.716 M 0.10819 142.716 H 0.100028 L 0.10819 142.719 M 0.10819 142.716 V 142.719 M 0.10819 142.719 V 143.847 M 0.10819 143.847 V 144.941 M 0.10819 1.03703 V 6.49428 M 0.10819 6.49428 V 11.407 M 0.10819 11.407 V 20.8001 M 0.10819 20.8001 V 29.3483 M 0.10819 29.3483 V 32.0364 M 0.10819 32.0364 V 37.1605 M 0.10819 37.1605 V 44.3278 M 0.10819 44.3278 V 50.927 M 0.10819 50.927 V 51.9026 M 0.10819 51.9026 V 57.0232 M 0.10819 57.0232 V 62.6714 M 0.10819 62.6714 V 67.7956 M 0.10819 67.7956 V 67.9197 M 0.10819 67.9197 V 72.8087 M 0.10819 72.8087 V 77.3743 M 0.10819 77.3743 V 80.7987 M 0.10819 80.7987 V 81.6475 M 0.10819 81.6475 V 85.6556 M 0.10819 85.6556 V 89.4226 M 0.10819 89.4226 V 91.6348 M 0.10819 91.6348 V 92.9692 M 0.10819 92.9692 V 96.3148 M 0.10819 96.3148 V 99.4754 M 0.10819 99.4754 V 100.804 M 0.10819 100.804 V 102.467 M 0.10819 102.467 V 105.301 M 0.10819 105.301 V 107.991 M 0.10819 107.991 V 108.663 M 0.10819 108.663 V 110.547 M 0.10819 110.547 V 112.98" stroke-linecap="round" />
</g>
</svg>